<?xml version="1.0" encoding="UTF-8" standalone="no"?>
<!DOCTYPE svg PUBLIC "-//W3C//DTD SVG 1.1//EN"
 "http://www.w3.org/Graphics/SVG/1.1/DTD/svg11.dtd">
<!-- Generated by graphviz version 2.43.0 (0)
 -->
<!-- Title: Menu Pages: 1 -->
<svg width="155pt" height="430pt"
 viewBox="0.00 0.00 154.50 430.00" xmlns="http://www.w3.org/2000/svg" xmlns:xlink="http://www.w3.org/1999/xlink">
<g id="graph0" class="graph" transform="scale(1 1) rotate(0) translate(4 426)">
<title>Menu</title>
<polygon fill="white" stroke="transparent" points="-4,4 -4,-426 150.5,-426 150.5,4 -4,4"/>
<!-- Node1 -->
<g id="node1" class="node">
<title>Node1</title>
<g id="a_node1"><a xlink:title="permettant de gerer le menu">
<polygon fill="#bfbfbf" stroke="black" points="4,-0.5 4,-79.5 60,-79.5 60,-0.5 4,-0.5"/>
<text text-anchor="middle" x="32" y="-67.5" font-family="Helvetica,sans-Serif" font-size="10.00">Menu</text>
<polyline fill="none" stroke="black" points="4,-60.5 60,-60.5 "/>
<text text-anchor="start" x="12" y="-48.5" font-family="Helvetica,sans-Serif" font-size="10.00">&#45; m_w</text>
<text text-anchor="start" x="12" y="-37.5" font-family="Helvetica,sans-Serif" font-size="10.00">&#45; m_h</text>
<polyline fill="none" stroke="black" points="4,-30.5 60,-30.5 "/>
<text text-anchor="start" x="12" y="-18.5" font-family="Helvetica,sans-Serif" font-size="10.00">+ Menu()</text>
<text text-anchor="start" x="12" y="-7.5" font-family="Helvetica,sans-Serif" font-size="10.00">+ Menu()</text>
</a>
</g>
</g>
<!-- Node2 -->
<g id="node2" class="node">
<title>Node2</title>
<g id="a_node2"><a xlink:href="classTexture.html" target="_top" xlink:title="class permettant de gerer les textures d&#39;un personnage">
<polygon fill="white" stroke="black" points="0,-353.5 0,-421.5 64,-421.5 64,-353.5 0,-353.5"/>
<text text-anchor="middle" x="32" y="-409.5" font-family="Helvetica,sans-Serif" font-size="10.00">Texture</text>
<polyline fill="none" stroke="black" points="0,-402.5 64,-402.5 "/>
<text text-anchor="start" x="8" y="-390.5" font-family="Helvetica,sans-Serif" font-size="10.00">+ url</text>
<text text-anchor="start" x="8" y="-379.5" font-family="Helvetica,sans-Serif" font-size="10.00">+ lettre</text>
<polyline fill="none" stroke="black" points="0,-372.5 64,-372.5 "/>
<text text-anchor="start" x="8" y="-360.5" font-family="Helvetica,sans-Serif" font-size="10.00">+ Texture()</text>
</a>
</g>
</g>
<!-- Node2&#45;&gt;Node1 -->
<g id="edge1" class="edge">
<title>Node2&#45;&gt;Node1</title>
<path fill="none" stroke="#404040" d="M28.96,-353.24C27.78,-338.74 26.58,-321.55 26,-306 23.59,-241.16 24.37,-224.87 26,-160 26.56,-137.63 27.72,-112.92 28.87,-91.84"/>
<polygon fill="none" stroke="#404040" points="28.89,-91.55 25.23,-85.33 29.56,-79.57 33.22,-85.78 28.89,-91.55"/>
<text text-anchor="middle" x="37.5" y="-230.5" font-family="Helvetica,sans-Serif" font-size="10.00"> +tex</text>
</g>
<!-- Node3 -->
<g id="node3" class="node">
<title>Node3</title>
<g id="a_node3"><a xlink:href="classBouton.html" target="_top" xlink:title="permettant de gerer les boutons du menu">
<polygon fill="white" stroke="black" points="57.5,-160.5 57.5,-305.5 146.5,-305.5 146.5,-160.5 57.5,-160.5"/>
<text text-anchor="middle" x="102" y="-293.5" font-family="Helvetica,sans-Serif" font-size="10.00">Bouton</text>
<polyline fill="none" stroke="black" points="57.5,-286.5 146.5,-286.5 "/>
<text text-anchor="start" x="65.5" y="-274.5" font-family="Helvetica,sans-Serif" font-size="10.00">&#45; b_x</text>
<text text-anchor="start" x="65.5" y="-263.5" font-family="Helvetica,sans-Serif" font-size="10.00">&#45; b_y</text>
<text text-anchor="start" x="65.5" y="-252.5" font-family="Helvetica,sans-Serif" font-size="10.00">&#45; b_w</text>
<text text-anchor="start" x="65.5" y="-241.5" font-family="Helvetica,sans-Serif" font-size="10.00">&#45; b_h</text>
<polyline fill="none" stroke="black" points="57.5,-234.5 146.5,-234.5 "/>
<text text-anchor="start" x="65.5" y="-222.5" font-family="Helvetica,sans-Serif" font-size="10.00">+ Bouton()</text>
<text text-anchor="start" x="65.5" y="-211.5" font-family="Helvetica,sans-Serif" font-size="10.00">+ placerBouton()</text>
<text text-anchor="start" x="65.5" y="-200.5" font-family="Helvetica,sans-Serif" font-size="10.00">+ getx()</text>
<text text-anchor="start" x="65.5" y="-189.5" font-family="Helvetica,sans-Serif" font-size="10.00">+ gety()</text>
<text text-anchor="start" x="65.5" y="-178.5" font-family="Helvetica,sans-Serif" font-size="10.00">+ getw()</text>
<text text-anchor="start" x="65.5" y="-167.5" font-family="Helvetica,sans-Serif" font-size="10.00">+ geth()</text>
</a>
</g>
</g>
<!-- Node2&#45;&gt;Node3 -->
<g id="edge3" class="edge">
<title>Node2&#45;&gt;Node3</title>
<path fill="none" stroke="#404040" d="M47.19,-353.41C52.25,-342.39 58.13,-329.58 64.12,-316.52"/>
<polygon fill="none" stroke="#404040" points="64.16,-316.43 63.03,-309.31 69.17,-305.53 70.3,-312.65 64.16,-316.43"/>
<text text-anchor="middle" x="70.5" y="-327" font-family="Helvetica,sans-Serif" font-size="10.00"> +tex</text>
</g>
<!-- Node3&#45;&gt;Node1 -->
<g id="edge2" class="edge">
<title>Node3&#45;&gt;Node1</title>
<path fill="none" stroke="#404040" d="M75.74,-160.34C67.26,-137.2 58.05,-112.08 50.28,-90.87"/>
<polygon fill="none" stroke="#404040" points="50.25,-90.8 44.43,-86.55 46.12,-79.54 51.94,-83.79 50.25,-90.8"/>
<text text-anchor="middle" x="81" y="-134" font-family="Helvetica,sans-Serif" font-size="10.00"> +son</text>
<text text-anchor="middle" x="81" y="-123" font-family="Helvetica,sans-Serif" font-size="10.00">+start</text>
<text text-anchor="middle" x="81" y="-112" font-family="Helvetica,sans-Serif" font-size="10.00">+quit</text>
<text text-anchor="middle" x="81" y="-101" font-family="Helvetica,sans-Serif" font-size="10.00">+back</text>
</g>
</g>
</svg>
