<?xml version="1.0" encoding="UTF-8" standalone="no"?>
<!DOCTYPE svg PUBLIC "-//W3C//DTD SVG 1.1//EN"
 "http://www.w3.org/Graphics/SVG/1.1/DTD/svg11.dtd">
<!-- Generated by graphviz version 2.43.0 (0)
 -->
<!-- Title: Jeu Pages: 1 -->
<svg width="556pt" height="1205pt"
 viewBox="0.00 0.00 555.50 1205.00" xmlns="http://www.w3.org/2000/svg" xmlns:xlink="http://www.w3.org/1999/xlink">
<g id="graph0" class="graph" transform="scale(1 1) rotate(0) translate(4 1201)">
<title>Jeu</title>
<polygon fill="white" stroke="transparent" points="-4,4 -4,-1201 551.5,-1201 551.5,4 -4,4"/>
<!-- Node1 -->
<g id="node1" class="node">
<title>Node1</title>
<g id="a_node1"><a xlink:title=" ">
<polygon fill="#bfbfbf" stroke="black" points="172,-0.5 172,-178.5 290,-178.5 290,-0.5 172,-0.5"/>
<text text-anchor="middle" x="231" y="-166.5" font-family="Helvetica,sans-Serif" font-size="10.00">Jeu</text>
<polyline fill="none" stroke="black" points="172,-159.5 290,-159.5 "/>
<text text-anchor="middle" x="231" y="-147.5" font-family="Helvetica,sans-Serif" font-size="10.00"> </text>
<polyline fill="none" stroke="black" points="172,-140.5 290,-140.5 "/>
<text text-anchor="start" x="180" y="-128.5" font-family="Helvetica,sans-Serif" font-size="10.00">+ actionsAutomatique()</text>
<text text-anchor="start" x="180" y="-117.5" font-family="Helvetica,sans-Serif" font-size="10.00">+ MPClavierDown()</text>
<text text-anchor="start" x="180" y="-106.5" font-family="Helvetica,sans-Serif" font-size="10.00">+ MPClavierUp()</text>
<text text-anchor="start" x="180" y="-95.5" font-family="Helvetica,sans-Serif" font-size="10.00">+ SPClavierDown()</text>
<text text-anchor="start" x="180" y="-84.5" font-family="Helvetica,sans-Serif" font-size="10.00">+ SPClavierUp()</text>
<text text-anchor="start" x="180" y="-73.5" font-family="Helvetica,sans-Serif" font-size="10.00">+ actionsMenu()</text>
<text text-anchor="start" x="180" y="-62.5" font-family="Helvetica,sans-Serif" font-size="10.00">+ initPartie()</text>
<text text-anchor="start" x="180" y="-51.5" font-family="Helvetica,sans-Serif" font-size="10.00">+ updatePartie()</text>
<text text-anchor="start" x="180" y="-40.5" font-family="Helvetica,sans-Serif" font-size="10.00">+ quitPartie()</text>
<text text-anchor="start" x="180" y="-29.5" font-family="Helvetica,sans-Serif" font-size="10.00">+ init()</text>
<text text-anchor="start" x="180" y="-18.5" font-family="Helvetica,sans-Serif" font-size="10.00">+ update()</text>
<text text-anchor="start" x="180" y="-7.5" font-family="Helvetica,sans-Serif" font-size="10.00">+ quit()</text>
</a>
</g>
</g>
<!-- Node2 -->
<g id="node2" class="node">
<title>Node2</title>
<g id="a_node2"><a xlink:href="classterrain.html" target="_top" xlink:title=" ">
<polygon fill="white" stroke="black" points="0,-489.5 0,-645.5 80,-645.5 80,-489.5 0,-489.5"/>
<text text-anchor="middle" x="40" y="-633.5" font-family="Helvetica,sans-Serif" font-size="10.00">terrain</text>
<polyline fill="none" stroke="black" points="0,-626.5 80,-626.5 "/>
<text text-anchor="start" x="8" y="-614.5" font-family="Helvetica,sans-Serif" font-size="10.00">&#45; dimx</text>
<text text-anchor="start" x="8" y="-603.5" font-family="Helvetica,sans-Serif" font-size="10.00">&#45; dimy</text>
<text text-anchor="start" x="8" y="-592.5" font-family="Helvetica,sans-Serif" font-size="10.00">&#45; caract</text>
<polyline fill="none" stroke="black" points="0,-585.5 80,-585.5 "/>
<text text-anchor="start" x="8" y="-573.5" font-family="Helvetica,sans-Serif" font-size="10.00">+ terrain()</text>
<text text-anchor="start" x="8" y="-562.5" font-family="Helvetica,sans-Serif" font-size="10.00">+ ~terrain()</text>
<text text-anchor="start" x="8" y="-551.5" font-family="Helvetica,sans-Serif" font-size="10.00">+ posisvalide()</text>
<text text-anchor="start" x="8" y="-540.5" font-family="Helvetica,sans-Serif" font-size="10.00">+ getXY()</text>
<text text-anchor="start" x="8" y="-529.5" font-family="Helvetica,sans-Serif" font-size="10.00">+ getDimx()</text>
<text text-anchor="start" x="8" y="-518.5" font-family="Helvetica,sans-Serif" font-size="10.00">+ getDimy()</text>
<text text-anchor="start" x="8" y="-507.5" font-family="Helvetica,sans-Serif" font-size="10.00">+ setDim()</text>
<text text-anchor="start" x="8" y="-496.5" font-family="Helvetica,sans-Serif" font-size="10.00">+ setCaract()</text>
</a>
</g>
</g>
<!-- Node2&#45;&gt;Node1 -->
<g id="edge1" class="edge">
<title>Node2&#45;&gt;Node1</title>
<path fill="none" stroke="#404040" d="M51.91,-489.17C64.37,-420.59 87.59,-318.89 126,-237 136.51,-214.6 150.54,-192.06 164.92,-171.61"/>
<polygon fill="none" stroke="#404040" points="165,-171.5 165.24,-164.29 171.99,-161.75 171.74,-168.95 165,-171.5"/>
<text text-anchor="middle" x="139" y="-351.5" font-family="Helvetica,sans-Serif" font-size="10.00"> +ter1</text>
</g>
<!-- Node3 -->
<g id="node3" class="node">
<title>Node3</title>
<g id="a_node3"><a xlink:href="classTexture.html" target="_top" xlink:title="class permettant de gerer les textures d&#39;un personnage">
<polygon fill="white" stroke="black" points="157,-973 157,-1041 221,-1041 221,-973 157,-973"/>
<text text-anchor="middle" x="189" y="-1029" font-family="Helvetica,sans-Serif" font-size="10.00">Texture</text>
<polyline fill="none" stroke="black" points="157,-1022 221,-1022 "/>
<text text-anchor="start" x="165" y="-1010" font-family="Helvetica,sans-Serif" font-size="10.00">+ url</text>
<text text-anchor="start" x="165" y="-999" font-family="Helvetica,sans-Serif" font-size="10.00">+ lettre</text>
<polyline fill="none" stroke="black" points="157,-992 221,-992 "/>
<text text-anchor="start" x="165" y="-980" font-family="Helvetica,sans-Serif" font-size="10.00">+ Texture()</text>
</a>
</g>
</g>
<!-- Node3&#45;&gt;Node2 -->
<g id="edge2" class="edge">
<title>Node3&#45;&gt;Node2</title>
<path fill="none" stroke="#404040" d="M156.8,-981.23C124.23,-954.03 75.68,-907.1 54,-854 28.65,-791.91 26.16,-715.82 29.46,-657.8"/>
<polygon fill="none" stroke="#404040" points="29.47,-657.69 25.87,-651.44 30.25,-645.71 33.85,-651.96 29.47,-657.69"/>
<text text-anchor="middle" x="93.5" y="-886" font-family="Helvetica,sans-Serif" font-size="10.00"> +tex</text>
</g>
<!-- Node4 -->
<g id="node4" class="node">
<title>Node4</title>
<g id="a_node4"><a xlink:href="classMenu.html" target="_top" xlink:title="permettant de gerer le menu">
<polygon fill="white" stroke="black" points="161,-314.5 161,-393.5 217,-393.5 217,-314.5 161,-314.5"/>
<text text-anchor="middle" x="189" y="-381.5" font-family="Helvetica,sans-Serif" font-size="10.00">Menu</text>
<polyline fill="none" stroke="black" points="161,-374.5 217,-374.5 "/>
<text text-anchor="start" x="169" y="-362.5" font-family="Helvetica,sans-Serif" font-size="10.00">&#45; m_w</text>
<text text-anchor="start" x="169" y="-351.5" font-family="Helvetica,sans-Serif" font-size="10.00">&#45; m_h</text>
<polyline fill="none" stroke="black" points="161,-344.5 217,-344.5 "/>
<text text-anchor="start" x="169" y="-332.5" font-family="Helvetica,sans-Serif" font-size="10.00">+ Menu()</text>
<text text-anchor="start" x="169" y="-321.5" font-family="Helvetica,sans-Serif" font-size="10.00">+ Menu()</text>
</a>
</g>
</g>
<!-- Node3&#45;&gt;Node4 -->
<g id="edge4" class="edge">
<title>Node3&#45;&gt;Node4</title>
<path fill="none" stroke="#404040" d="M189,-972.82C189,-866.5 189,-533.77 189,-405.83"/>
<polygon fill="none" stroke="#404040" points="189,-405.74 185,-399.74 189,-393.74 193,-399.74 189,-405.74"/>
<text text-anchor="middle" x="200.5" y="-756.5" font-family="Helvetica,sans-Serif" font-size="10.00"> +tex</text>
</g>
<!-- Node5 -->
<g id="node5" class="node">
<title>Node5</title>
<g id="a_node5"><a xlink:href="classBouton.html" target="_top" xlink:title="permettant de gerer les boutons du menu">
<polygon fill="white" stroke="black" points="63.5,-686.5 63.5,-831.5 152.5,-831.5 152.5,-686.5 63.5,-686.5"/>
<text text-anchor="middle" x="108" y="-819.5" font-family="Helvetica,sans-Serif" font-size="10.00">Bouton</text>
<polyline fill="none" stroke="black" points="63.5,-812.5 152.5,-812.5 "/>
<text text-anchor="start" x="71.5" y="-800.5" font-family="Helvetica,sans-Serif" font-size="10.00">&#45; b_x</text>
<text text-anchor="start" x="71.5" y="-789.5" font-family="Helvetica,sans-Serif" font-size="10.00">&#45; b_y</text>
<text text-anchor="start" x="71.5" y="-778.5" font-family="Helvetica,sans-Serif" font-size="10.00">&#45; b_w</text>
<text text-anchor="start" x="71.5" y="-767.5" font-family="Helvetica,sans-Serif" font-size="10.00">&#45; b_h</text>
<polyline fill="none" stroke="black" points="63.5,-760.5 152.5,-760.5 "/>
<text text-anchor="start" x="71.5" y="-748.5" font-family="Helvetica,sans-Serif" font-size="10.00">+ Bouton()</text>
<text text-anchor="start" x="71.5" y="-737.5" font-family="Helvetica,sans-Serif" font-size="10.00">+ placerBouton()</text>
<text text-anchor="start" x="71.5" y="-726.5" font-family="Helvetica,sans-Serif" font-size="10.00">+ getx()</text>
<text text-anchor="start" x="71.5" y="-715.5" font-family="Helvetica,sans-Serif" font-size="10.00">+ gety()</text>
<text text-anchor="start" x="71.5" y="-704.5" font-family="Helvetica,sans-Serif" font-size="10.00">+ getw()</text>
<text text-anchor="start" x="71.5" y="-693.5" font-family="Helvetica,sans-Serif" font-size="10.00">+ geth()</text>
</a>
</g>
</g>
<!-- Node3&#45;&gt;Node5 -->
<g id="edge6" class="edge">
<title>Node3&#45;&gt;Node5</title>
<path fill="none" stroke="#404040" d="M176.36,-972.96C168.98,-953.31 159.64,-927.84 152,-905 145.37,-885.19 138.62,-863.71 132.46,-843.52"/>
<polygon fill="none" stroke="#404040" points="132.39,-843.28 126.82,-838.7 128.91,-831.79 134.48,-836.38 132.39,-843.28"/>
<text text-anchor="middle" x="163.5" y="-886" font-family="Helvetica,sans-Serif" font-size="10.00"> +tex</text>
</g>
<!-- Node6 -->
<g id="node6" class="node">
<title>Node6</title>
<g id="a_node6"><a xlink:href="classTuiles.html" target="_top" xlink:title=" ">
<polygon fill="white" stroke="black" points="230,-725 230,-793 288,-793 288,-725 230,-725"/>
<text text-anchor="middle" x="259" y="-781" font-family="Helvetica,sans-Serif" font-size="10.00">Tuiles</text>
<polyline fill="none" stroke="black" points="230,-774 288,-774 "/>
<text text-anchor="start" x="238" y="-762" font-family="Helvetica,sans-Serif" font-size="10.00">+ width</text>
<text text-anchor="start" x="238" y="-751" font-family="Helvetica,sans-Serif" font-size="10.00">+ height</text>
<polyline fill="none" stroke="black" points="230,-744 288,-744 "/>
<text text-anchor="start" x="238" y="-732" font-family="Helvetica,sans-Serif" font-size="10.00">+ Tuiles()</text>
</a>
</g>
</g>
<!-- Node3&#45;&gt;Node6 -->
<g id="edge9" class="edge">
<title>Node3&#45;&gt;Node6</title>
<path fill="none" stroke="#404040" d="M198.44,-972.82C210.79,-929.42 232.48,-853.21 246.27,-804.73"/>
<polygon fill="none" stroke="#404040" points="246.31,-804.58 244.11,-797.72 249.6,-793.04 251.8,-799.91 246.31,-804.58"/>
<text text-anchor="middle" x="238.5" y="-886" font-family="Helvetica,sans-Serif" font-size="10.00"> +tex</text>
</g>
<!-- Node8 -->
<g id="node8" class="node">
<title>Node8</title>
<g id="a_node8"><a xlink:href="classPersonnage.html" target="_top" xlink:title="permettant de gerer les caracteristiques d&#39;un personnage">
<polygon fill="white" stroke="black" points="320,-237.5 320,-470.5 442,-470.5 442,-237.5 320,-237.5"/>
<text text-anchor="middle" x="381" y="-458.5" font-family="Helvetica,sans-Serif" font-size="10.00">Personnage</text>
<polyline fill="none" stroke="black" points="320,-451.5 442,-451.5 "/>
<text text-anchor="start" x="328" y="-439.5" font-family="Helvetica,sans-Serif" font-size="10.00">&#45; m_vie</text>
<text text-anchor="start" x="328" y="-428.5" font-family="Helvetica,sans-Serif" font-size="10.00">&#45; m_mana</text>
<polyline fill="none" stroke="black" points="320,-421.5 442,-421.5 "/>
<text text-anchor="start" x="328" y="-409.5" font-family="Helvetica,sans-Serif" font-size="10.00">+ Personnage()</text>
<text text-anchor="start" x="328" y="-398.5" font-family="Helvetica,sans-Serif" font-size="10.00">+ ~Personnage()</text>
<text text-anchor="start" x="328" y="-387.5" font-family="Helvetica,sans-Serif" font-size="10.00">+ bougerAdroite()</text>
<text text-anchor="start" x="328" y="-376.5" font-family="Helvetica,sans-Serif" font-size="10.00">+ bougerAgauche()</text>
<text text-anchor="start" x="328" y="-365.5" font-family="Helvetica,sans-Serif" font-size="10.00">+ sauter()</text>
<text text-anchor="start" x="328" y="-354.5" font-family="Helvetica,sans-Serif" font-size="10.00">+ sauterAdroite()</text>
<text text-anchor="start" x="328" y="-343.5" font-family="Helvetica,sans-Serif" font-size="10.00">+ sauterAgauche()</text>
<text text-anchor="start" x="328" y="-332.5" font-family="Helvetica,sans-Serif" font-size="10.00">+ recevoirDegats()</text>
<text text-anchor="start" x="328" y="-321.5" font-family="Helvetica,sans-Serif" font-size="10.00">+ attaquer()</text>
<text text-anchor="start" x="328" y="-310.5" font-family="Helvetica,sans-Serif" font-size="10.00">+ attaqueUltime()</text>
<text text-anchor="start" x="328" y="-299.5" font-family="Helvetica,sans-Serif" font-size="10.00">+ changerCompetence()</text>
<text text-anchor="start" x="328" y="-288.5" font-family="Helvetica,sans-Serif" font-size="10.00">+ estVivant()</text>
<text text-anchor="start" x="328" y="-277.5" font-family="Helvetica,sans-Serif" font-size="10.00">+ afficherEtat()</text>
<text text-anchor="start" x="328" y="-266.5" font-family="Helvetica,sans-Serif" font-size="10.00">+ getVie()</text>
<text text-anchor="start" x="328" y="-255.5" font-family="Helvetica,sans-Serif" font-size="10.00">+ setVie()</text>
<text text-anchor="start" x="328" y="-244.5" font-family="Helvetica,sans-Serif" font-size="10.00">+ testRegression()</text>
</a>
</g>
</g>
<!-- Node3&#45;&gt;Node8 -->
<g id="edge14" class="edge">
<title>Node3&#45;&gt;Node8</title>
<path fill="none" stroke="#404040" d="M219.42,-972.77C244.32,-943.64 278.38,-899.02 297,-854 304.09,-836.86 338.41,-625 360.93,-482.91"/>
<polygon fill="none" stroke="#404040" points="360.99,-482.52 357.98,-475.97 362.87,-470.67 365.88,-477.22 360.99,-482.52"/>
<text text-anchor="middle" x="343.5" y="-756.5" font-family="Helvetica,sans-Serif" font-size="10.00"> +tex</text>
</g>
<!-- Node4&#45;&gt;Node1 -->
<g id="edge3" class="edge">
<title>Node4&#45;&gt;Node1</title>
<path fill="none" stroke="#404040" d="M192.71,-314.39C195.99,-282.74 201.29,-236.82 208,-197 208.35,-194.95 208.7,-192.88 209.07,-190.79"/>
<polygon fill="none" stroke="#404040" points="209.12,-190.52 206.28,-183.89 211.3,-178.71 214.15,-185.34 209.12,-190.52"/>
<text text-anchor="middle" x="225" y="-205.5" font-family="Helvetica,sans-Serif" font-size="10.00"> +menu</text>
</g>
<!-- Node5&#45;&gt;Node4 -->
<g id="edge5" class="edge">
<title>Node5&#45;&gt;Node4</title>
<path fill="none" stroke="#404040" d="M115.23,-686.35C121.5,-631.82 131.94,-555.14 147,-489 153.42,-460.78 162.92,-429.92 171.26,-404.94"/>
<polygon fill="none" stroke="#404040" points="171.27,-404.91 169.4,-397.94 175.12,-393.54 176.98,-400.51 171.27,-404.91"/>
<text text-anchor="middle" x="161" y="-581.5" font-family="Helvetica,sans-Serif" font-size="10.00"> +son</text>
<text text-anchor="middle" x="161" y="-570.5" font-family="Helvetica,sans-Serif" font-size="10.00">+start</text>
<text text-anchor="middle" x="161" y="-559.5" font-family="Helvetica,sans-Serif" font-size="10.00">+quit</text>
<text text-anchor="middle" x="161" y="-548.5" font-family="Helvetica,sans-Serif" font-size="10.00">+back</text>
</g>
<!-- Node6&#45;&gt;Node1 -->
<g id="edge7" class="edge">
<title>Node6&#45;&gt;Node1</title>
<path fill="none" stroke="#404040" d="M258.83,-724.76C258.22,-637.91 255.34,-397.04 242,-197 241.86,-194.93 241.71,-192.83 241.56,-190.72"/>
<polygon fill="none" stroke="#404040" points="241.54,-190.47 237.08,-184.8 240.59,-178.5 245.05,-184.17 241.54,-190.47"/>
<text text-anchor="middle" x="269" y="-351.5" font-family="Helvetica,sans-Serif" font-size="10.00"> +tuile</text>
</g>
<!-- Node7 -->
<g id="node7" class="node">
<title>Node7</title>
<g id="a_node7"><a xlink:href="classVector2D.html" target="_top" xlink:title="class permettant de gerer des vecteurs">
<polygon fill="white" stroke="black" points="340.5,-923.5 340.5,-1090.5 419.5,-1090.5 419.5,-923.5 340.5,-923.5"/>
<text text-anchor="middle" x="380" y="-1078.5" font-family="Helvetica,sans-Serif" font-size="10.00">Vector2D</text>
<polyline fill="none" stroke="black" points="340.5,-1071.5 419.5,-1071.5 "/>
<text text-anchor="start" x="348.5" y="-1059.5" font-family="Helvetica,sans-Serif" font-size="10.00">&#45; x</text>
<text text-anchor="start" x="348.5" y="-1048.5" font-family="Helvetica,sans-Serif" font-size="10.00">&#45; y</text>
<polyline fill="none" stroke="black" points="340.5,-1041.5 419.5,-1041.5 "/>
<text text-anchor="start" x="348.5" y="-1029.5" font-family="Helvetica,sans-Serif" font-size="10.00">+ Vector2D()</text>
<text text-anchor="start" x="348.5" y="-1018.5" font-family="Helvetica,sans-Serif" font-size="10.00">+ Vector2D()</text>
<text text-anchor="start" x="348.5" y="-1007.5" font-family="Helvetica,sans-Serif" font-size="10.00">+ ~Vector2D()</text>
<text text-anchor="start" x="348.5" y="-996.5" font-family="Helvetica,sans-Serif" font-size="10.00">+ operator+()</text>
<text text-anchor="start" x="348.5" y="-985.5" font-family="Helvetica,sans-Serif" font-size="10.00">+ operator=()</text>
<text text-anchor="start" x="348.5" y="-974.5" font-family="Helvetica,sans-Serif" font-size="10.00">+ operator+=()</text>
<text text-anchor="start" x="348.5" y="-963.5" font-family="Helvetica,sans-Serif" font-size="10.00">+ getx()</text>
<text text-anchor="start" x="348.5" y="-952.5" font-family="Helvetica,sans-Serif" font-size="10.00">+ gety()</text>
<text text-anchor="start" x="348.5" y="-941.5" font-family="Helvetica,sans-Serif" font-size="10.00">+ setx()</text>
<text text-anchor="start" x="348.5" y="-930.5" font-family="Helvetica,sans-Serif" font-size="10.00">+ sety()</text>
</a>
</g>
</g>
<!-- Node7&#45;&gt;Node6 -->
<g id="edge8" class="edge">
<title>Node7&#45;&gt;Node6</title>
<path fill="none" stroke="#404040" d="M340.44,-930.57C327.92,-906.24 314.17,-879.09 302,-854 294.19,-837.89 285.93,-820.06 278.77,-804.29"/>
<polygon fill="none" stroke="#404040" points="278.71,-804.17 272.59,-800.35 273.76,-793.23 279.88,-797.05 278.71,-804.17"/>
<text text-anchor="middle" x="340.5" y="-886" font-family="Helvetica,sans-Serif" font-size="10.00"> +pos</text>
</g>
<!-- Node12 -->
<g id="node12" class="node">
<title>Node12</title>
<g id="a_node12"><a xlink:href="classPhysic.html" target="_top" xlink:title="permettant de gerer les caracteristiques physique d&#39;un joueur">
<polygon fill="white" stroke="black" points="366,-664.5 366,-853.5 434,-853.5 434,-664.5 366,-664.5"/>
<text text-anchor="middle" x="400" y="-841.5" font-family="Helvetica,sans-Serif" font-size="10.00">Physic</text>
<polyline fill="none" stroke="black" points="366,-834.5 434,-834.5 "/>
<text text-anchor="middle" x="400" y="-822.5" font-family="Helvetica,sans-Serif" font-size="10.00"> </text>
<polyline fill="none" stroke="black" points="366,-815.5 434,-815.5 "/>
<text text-anchor="start" x="374" y="-803.5" font-family="Helvetica,sans-Serif" font-size="10.00">+ Physic()</text>
<text text-anchor="start" x="374" y="-792.5" font-family="Helvetica,sans-Serif" font-size="10.00">+ ~Physic()</text>
<text text-anchor="start" x="374" y="-781.5" font-family="Helvetica,sans-Serif" font-size="10.00">+ getPos()</text>
<text text-anchor="start" x="374" y="-770.5" font-family="Helvetica,sans-Serif" font-size="10.00">+ getPosx()</text>
<text text-anchor="start" x="374" y="-759.5" font-family="Helvetica,sans-Serif" font-size="10.00">+ getPosy()</text>
<text text-anchor="start" x="374" y="-748.5" font-family="Helvetica,sans-Serif" font-size="10.00">+ setPos()</text>
<text text-anchor="start" x="374" y="-737.5" font-family="Helvetica,sans-Serif" font-size="10.00">+ setPosx()</text>
<text text-anchor="start" x="374" y="-726.5" font-family="Helvetica,sans-Serif" font-size="10.00">+ setPosy()</text>
<text text-anchor="start" x="374" y="-715.5" font-family="Helvetica,sans-Serif" font-size="10.00">+ getVit()</text>
<text text-anchor="start" x="374" y="-704.5" font-family="Helvetica,sans-Serif" font-size="10.00">+ setVit()</text>
<text text-anchor="start" x="374" y="-693.5" font-family="Helvetica,sans-Serif" font-size="10.00">+ setVitx()</text>
<text text-anchor="start" x="374" y="-682.5" font-family="Helvetica,sans-Serif" font-size="10.00">+ setVity()</text>
<text text-anchor="start" x="374" y="-671.5" font-family="Helvetica,sans-Serif" font-size="10.00">+ ticks()</text>
</a>
</g>
</g>
<!-- Node7&#45;&gt;Node12 -->
<g id="edge16" class="edge">
<title>Node7&#45;&gt;Node12</title>
<path fill="none" stroke="#404040" d="M386.72,-923.4C388.21,-904.99 389.82,-885.23 391.38,-866.03"/>
<polygon fill="none" stroke="#404040" points="391.4,-865.8 387.9,-859.49 392.37,-853.84 395.87,-860.14 391.4,-865.8"/>
<text text-anchor="middle" x="427.5" y="-897" font-family="Helvetica,sans-Serif" font-size="10.00"> &#45;m_acceleration</text>
<text text-anchor="middle" x="427.5" y="-886" font-family="Helvetica,sans-Serif" font-size="10.00">&#45;m_position</text>
<text text-anchor="middle" x="427.5" y="-875" font-family="Helvetica,sans-Serif" font-size="10.00">&#45;m_vitesse</text>
</g>
<!-- Node8&#45;&gt;Node1 -->
<g id="edge10" class="edge">
<title>Node8&#45;&gt;Node1</title>
<path fill="none" stroke="#404040" d="M319.99,-246.23C309.23,-227.4 298.06,-207.86 287.43,-189.26"/>
<polygon fill="none" stroke="#404040" points="287.37,-189.15 280.92,-185.92 281.42,-178.73 287.87,-181.96 287.37,-189.15"/>
<text text-anchor="middle" x="313.5" y="-211" font-family="Helvetica,sans-Serif" font-size="10.00"> +SP</text>
<text text-anchor="middle" x="313.5" y="-200" font-family="Helvetica,sans-Serif" font-size="10.00">+MP</text>
</g>
<!-- Node9 -->
<g id="node9" class="node">
<title>Node9</title>
<g id="a_node9"><a xlink:href="classCompetence.html" target="_top" xlink:title=" ">
<polygon fill="white" stroke="black" points="453.5,-703 453.5,-815 546.5,-815 546.5,-703 453.5,-703"/>
<text text-anchor="middle" x="500" y="-803" font-family="Helvetica,sans-Serif" font-size="10.00">Competence</text>
<polyline fill="none" stroke="black" points="453.5,-796 546.5,-796 "/>
<text text-anchor="start" x="461.5" y="-784" font-family="Helvetica,sans-Serif" font-size="10.00">&#45; m_degats</text>
<polyline fill="none" stroke="black" points="453.5,-777 546.5,-777 "/>
<text text-anchor="start" x="461.5" y="-765" font-family="Helvetica,sans-Serif" font-size="10.00">+ Competence()</text>
<text text-anchor="start" x="461.5" y="-754" font-family="Helvetica,sans-Serif" font-size="10.00">+ Competence()</text>
<text text-anchor="start" x="461.5" y="-743" font-family="Helvetica,sans-Serif" font-size="10.00">+ changer()</text>
<text text-anchor="start" x="461.5" y="-732" font-family="Helvetica,sans-Serif" font-size="10.00">+ afficher()</text>
<text text-anchor="start" x="461.5" y="-721" font-family="Helvetica,sans-Serif" font-size="10.00">+ getDegats()</text>
<text text-anchor="start" x="461.5" y="-710" font-family="Helvetica,sans-Serif" font-size="10.00">+ ~Competence()</text>
</a>
</g>
</g>
<!-- Node9&#45;&gt;Node8 -->
<g id="edge11" class="edge">
<title>Node9&#45;&gt;Node8</title>
<path fill="none" stroke="#404040" d="M485.06,-702.97C470.13,-648.48 446.25,-562.76 424,-489 423.35,-486.86 422.7,-484.69 422.04,-482.52"/>
<polygon fill="none" stroke="#404040" points="421.95,-482.24 416.37,-477.68 418.43,-470.77 424.01,-475.33 421.95,-482.24"/>
<text text-anchor="middle" x="505.5" y="-565" font-family="Helvetica,sans-Serif" font-size="10.00"> &#45;m_competence</text>
</g>
<!-- Node10 -->
<g id="node10" class="node">
<title>Node10</title>
<g id="a_node10"><a xlink:title="STL class.">
<polygon fill="white" stroke="#bfbfbf" points="470,-978.5 470,-1035.5 530,-1035.5 530,-978.5 470,-978.5"/>
<text text-anchor="middle" x="500" y="-1023.5" font-family="Helvetica,sans-Serif" font-size="10.00">std::string</text>
<polyline fill="none" stroke="#bfbfbf" points="470,-1016.5 530,-1016.5 "/>
<text text-anchor="middle" x="500" y="-1004.5" font-family="Helvetica,sans-Serif" font-size="10.00"> </text>
<polyline fill="none" stroke="#bfbfbf" points="470,-997.5 530,-997.5 "/>
<text text-anchor="middle" x="500" y="-985.5" font-family="Helvetica,sans-Serif" font-size="10.00"> </text>
</a>
</g>
</g>
<!-- Node10&#45;&gt;Node9 -->
<g id="edge12" class="edge">
<title>Node10&#45;&gt;Node9</title>
<path fill="none" stroke="#404040" d="M500,-978.26C500,-942 500,-877.29 500,-827.71"/>
<polygon fill="none" stroke="#404040" points="500,-827.46 496,-821.46 500,-815.46 504,-821.46 500,-827.46"/>
<text text-anchor="middle" x="519.5" y="-886" font-family="Helvetica,sans-Serif" font-size="10.00"> &#45;m_nom</text>
</g>
<!-- Node11 -->
<g id="node11" class="node">
<title>Node11</title>
<g id="a_node11"><a xlink:title="STL class.">
<polygon fill="white" stroke="#bfbfbf" points="452.5,-1128.5 452.5,-1196.5 547.5,-1196.5 547.5,-1128.5 452.5,-1128.5"/>
<text text-anchor="start" x="460.5" y="-1184.5" font-family="Helvetica,sans-Serif" font-size="10.00">std::basic_string&lt;</text>
<text text-anchor="middle" x="500" y="-1173.5" font-family="Helvetica,sans-Serif" font-size="10.00"> char &gt;</text>
<polyline fill="none" stroke="#bfbfbf" points="452.5,-1166.5 547.5,-1166.5 "/>
<text text-anchor="middle" x="500" y="-1154.5" font-family="Helvetica,sans-Serif" font-size="10.00"> </text>
<polyline fill="none" stroke="#bfbfbf" points="452.5,-1147.5 547.5,-1147.5 "/>
<text text-anchor="middle" x="500" y="-1135.5" font-family="Helvetica,sans-Serif" font-size="10.00"> </text>
</a>
</g>
</g>
<!-- Node11&#45;&gt;Node10 -->
<g id="edge13" class="edge">
<title>Node11&#45;&gt;Node10</title>
<path fill="none" stroke="midnightblue" d="M500,-1118.03C500,-1091.56 500,-1058.53 500,-1035.6"/>
<polygon fill="none" stroke="midnightblue" points="496.5,-1118.19 500,-1128.19 503.5,-1118.19 496.5,-1118.19"/>
</g>
<!-- Node12&#45;&gt;Node8 -->
<g id="edge15" class="edge">
<title>Node12&#45;&gt;Node8</title>
<path fill="none" stroke="#404040" d="M395.58,-664.28C393.03,-610.21 389.79,-541.48 387.01,-482.55"/>
<polygon fill="none" stroke="#404040" points="387.01,-482.5 382.73,-476.7 386.45,-470.51 390.72,-476.32 387.01,-482.5"/>
<text text-anchor="middle" x="407.5" y="-565" font-family="Helvetica,sans-Serif" font-size="10.00"> +phy</text>
</g>
</g>
</svg>
