<?xml version="1.0" encoding="UTF-8" standalone="no"?>
<!DOCTYPE svg PUBLIC "-//W3C//DTD SVG 1.1//EN"
 "http://www.w3.org/Graphics/SVG/1.1/DTD/svg11.dtd">
<!-- Generated by graphviz version 2.43.0 (0)
 -->
<!-- Title: JeuSDL Pages: 1 -->
<svg width="556pt" height="1409pt"
 viewBox="0.00 0.00 555.50 1409.00" xmlns="http://www.w3.org/2000/svg" xmlns:xlink="http://www.w3.org/1999/xlink">
<g id="graph0" class="graph" transform="scale(1 1) rotate(0) translate(4 1405)">
<title>JeuSDL</title>
<polygon fill="white" stroke="transparent" points="-4,4 -4,-1405 551.5,-1405 551.5,4 -4,4"/>
<!-- Node1 -->
<g id="node1" class="node">
<title>Node1</title>
<g id="a_node1"><a xlink:title=" ">
<polygon fill="#bfbfbf" stroke="black" points="168.5,-0.5 168.5,-156.5 293.5,-156.5 293.5,-0.5 168.5,-0.5"/>
<text text-anchor="middle" x="231" y="-144.5" font-family="Helvetica,sans-Serif" font-size="10.00">JeuSDL</text>
<polyline fill="none" stroke="black" points="168.5,-137.5 293.5,-137.5 "/>
<text text-anchor="start" x="176.5" y="-125.5" font-family="Helvetica,sans-Serif" font-size="10.00">&#45; window</text>
<text text-anchor="start" x="176.5" y="-114.5" font-family="Helvetica,sans-Serif" font-size="10.00">&#45; renderer</text>
<polyline fill="none" stroke="black" points="168.5,-107.5 293.5,-107.5 "/>
<text text-anchor="start" x="176.5" y="-95.5" font-family="Helvetica,sans-Serif" font-size="10.00">+ JeuSDL()</text>
<text text-anchor="start" x="176.5" y="-84.5" font-family="Helvetica,sans-Serif" font-size="10.00">+ loadImage()</text>
<text text-anchor="start" x="176.5" y="-73.5" font-family="Helvetica,sans-Serif" font-size="10.00">+ Afficher()</text>
<text text-anchor="start" x="176.5" y="-62.5" font-family="Helvetica,sans-Serif" font-size="10.00">+ KeyboardEventsLuffy()</text>
<text text-anchor="start" x="176.5" y="-51.5" font-family="Helvetica,sans-Serif" font-size="10.00">+ KeyboardEventsZoro()</text>
<text text-anchor="start" x="176.5" y="-40.5" font-family="Helvetica,sans-Serif" font-size="10.00">+ clavierUP()</text>
<text text-anchor="start" x="176.5" y="-29.5" font-family="Helvetica,sans-Serif" font-size="10.00">+ init()</text>
<text text-anchor="start" x="176.5" y="-18.5" font-family="Helvetica,sans-Serif" font-size="10.00">+ mainBoucle()</text>
<text text-anchor="start" x="176.5" y="-7.5" font-family="Helvetica,sans-Serif" font-size="10.00">+ quit()</text>
</a>
</g>
</g>
<!-- Node2 -->
<g id="node2" class="node">
<title>Node2</title>
<g id="a_node2"><a xlink:href="classJeu.html" target="_top" xlink:title=" ">
<polygon fill="white" stroke="black" points="172,-204.5 172,-382.5 290,-382.5 290,-204.5 172,-204.5"/>
<text text-anchor="middle" x="231" y="-370.5" font-family="Helvetica,sans-Serif" font-size="10.00">Jeu</text>
<polyline fill="none" stroke="black" points="172,-363.5 290,-363.5 "/>
<text text-anchor="middle" x="231" y="-351.5" font-family="Helvetica,sans-Serif" font-size="10.00"> </text>
<polyline fill="none" stroke="black" points="172,-344.5 290,-344.5 "/>
<text text-anchor="start" x="180" y="-332.5" font-family="Helvetica,sans-Serif" font-size="10.00">+ actionsAutomatique()</text>
<text text-anchor="start" x="180" y="-321.5" font-family="Helvetica,sans-Serif" font-size="10.00">+ MPClavierDown()</text>
<text text-anchor="start" x="180" y="-310.5" font-family="Helvetica,sans-Serif" font-size="10.00">+ MPClavierUp()</text>
<text text-anchor="start" x="180" y="-299.5" font-family="Helvetica,sans-Serif" font-size="10.00">+ SPClavierDown()</text>
<text text-anchor="start" x="180" y="-288.5" font-family="Helvetica,sans-Serif" font-size="10.00">+ SPClavierUp()</text>
<text text-anchor="start" x="180" y="-277.5" font-family="Helvetica,sans-Serif" font-size="10.00">+ actionsMenu()</text>
<text text-anchor="start" x="180" y="-266.5" font-family="Helvetica,sans-Serif" font-size="10.00">+ initPartie()</text>
<text text-anchor="start" x="180" y="-255.5" font-family="Helvetica,sans-Serif" font-size="10.00">+ updatePartie()</text>
<text text-anchor="start" x="180" y="-244.5" font-family="Helvetica,sans-Serif" font-size="10.00">+ quitPartie()</text>
<text text-anchor="start" x="180" y="-233.5" font-family="Helvetica,sans-Serif" font-size="10.00">+ init()</text>
<text text-anchor="start" x="180" y="-222.5" font-family="Helvetica,sans-Serif" font-size="10.00">+ update()</text>
<text text-anchor="start" x="180" y="-211.5" font-family="Helvetica,sans-Serif" font-size="10.00">+ quit()</text>
</a>
</g>
</g>
<!-- Node2&#45;&gt;Node1 -->
<g id="edge1" class="edge">
<title>Node2&#45;&gt;Node1</title>
<path fill="none" stroke="#404040" d="M231,-204.33C231,-192.61 231,-180.58 231,-168.84"/>
<polygon fill="none" stroke="#404040" points="231,-168.73 227,-162.73 231,-156.73 235,-162.73 231,-168.73"/>
<text text-anchor="middle" x="237" y="-178" font-family="Helvetica,sans-Serif" font-size="10.00"> &#45;J</text>
</g>
<!-- Node3 -->
<g id="node3" class="node">
<title>Node3</title>
<g id="a_node3"><a xlink:href="classterrain.html" target="_top" xlink:title=" ">
<polygon fill="white" stroke="black" points="0,-693.5 0,-849.5 80,-849.5 80,-693.5 0,-693.5"/>
<text text-anchor="middle" x="40" y="-837.5" font-family="Helvetica,sans-Serif" font-size="10.00">terrain</text>
<polyline fill="none" stroke="black" points="0,-830.5 80,-830.5 "/>
<text text-anchor="start" x="8" y="-818.5" font-family="Helvetica,sans-Serif" font-size="10.00">&#45; dimx</text>
<text text-anchor="start" x="8" y="-807.5" font-family="Helvetica,sans-Serif" font-size="10.00">&#45; dimy</text>
<text text-anchor="start" x="8" y="-796.5" font-family="Helvetica,sans-Serif" font-size="10.00">&#45; caract</text>
<polyline fill="none" stroke="black" points="0,-789.5 80,-789.5 "/>
<text text-anchor="start" x="8" y="-777.5" font-family="Helvetica,sans-Serif" font-size="10.00">+ terrain()</text>
<text text-anchor="start" x="8" y="-766.5" font-family="Helvetica,sans-Serif" font-size="10.00">+ ~terrain()</text>
<text text-anchor="start" x="8" y="-755.5" font-family="Helvetica,sans-Serif" font-size="10.00">+ posisvalide()</text>
<text text-anchor="start" x="8" y="-744.5" font-family="Helvetica,sans-Serif" font-size="10.00">+ getXY()</text>
<text text-anchor="start" x="8" y="-733.5" font-family="Helvetica,sans-Serif" font-size="10.00">+ getDimx()</text>
<text text-anchor="start" x="8" y="-722.5" font-family="Helvetica,sans-Serif" font-size="10.00">+ getDimy()</text>
<text text-anchor="start" x="8" y="-711.5" font-family="Helvetica,sans-Serif" font-size="10.00">+ setDim()</text>
<text text-anchor="start" x="8" y="-700.5" font-family="Helvetica,sans-Serif" font-size="10.00">+ setCaract()</text>
</a>
</g>
</g>
<!-- Node3&#45;&gt;Node2 -->
<g id="edge2" class="edge">
<title>Node3&#45;&gt;Node2</title>
<path fill="none" stroke="#404040" d="M51.91,-693.17C64.37,-624.59 87.59,-522.89 126,-441 136.51,-418.6 150.54,-396.06 164.92,-375.61"/>
<polygon fill="none" stroke="#404040" points="165,-375.5 165.24,-368.29 171.99,-365.75 171.74,-372.95 165,-375.5"/>
<text text-anchor="middle" x="139" y="-555.5" font-family="Helvetica,sans-Serif" font-size="10.00"> +ter1</text>
</g>
<!-- Node4 -->
<g id="node4" class="node">
<title>Node4</title>
<g id="a_node4"><a xlink:href="classTexture.html" target="_top" xlink:title="class permettant de gerer les textures d&#39;un personnage">
<polygon fill="white" stroke="black" points="157,-1177 157,-1245 221,-1245 221,-1177 157,-1177"/>
<text text-anchor="middle" x="189" y="-1233" font-family="Helvetica,sans-Serif" font-size="10.00">Texture</text>
<polyline fill="none" stroke="black" points="157,-1226 221,-1226 "/>
<text text-anchor="start" x="165" y="-1214" font-family="Helvetica,sans-Serif" font-size="10.00">+ url</text>
<text text-anchor="start" x="165" y="-1203" font-family="Helvetica,sans-Serif" font-size="10.00">+ lettre</text>
<polyline fill="none" stroke="black" points="157,-1196 221,-1196 "/>
<text text-anchor="start" x="165" y="-1184" font-family="Helvetica,sans-Serif" font-size="10.00">+ Texture()</text>
</a>
</g>
</g>
<!-- Node4&#45;&gt;Node3 -->
<g id="edge3" class="edge">
<title>Node4&#45;&gt;Node3</title>
<path fill="none" stroke="#404040" d="M156.8,-1185.23C124.23,-1158.03 75.68,-1111.1 54,-1058 28.65,-995.91 26.16,-919.82 29.46,-861.8"/>
<polygon fill="none" stroke="#404040" points="29.47,-861.69 25.87,-855.44 30.25,-849.71 33.85,-855.96 29.47,-861.69"/>
<text text-anchor="middle" x="93.5" y="-1090" font-family="Helvetica,sans-Serif" font-size="10.00"> +tex</text>
</g>
<!-- Node5 -->
<g id="node5" class="node">
<title>Node5</title>
<g id="a_node5"><a xlink:href="classMenu.html" target="_top" xlink:title="permettant de gerer le menu">
<polygon fill="white" stroke="black" points="161,-518.5 161,-597.5 217,-597.5 217,-518.5 161,-518.5"/>
<text text-anchor="middle" x="189" y="-585.5" font-family="Helvetica,sans-Serif" font-size="10.00">Menu</text>
<polyline fill="none" stroke="black" points="161,-578.5 217,-578.5 "/>
<text text-anchor="start" x="169" y="-566.5" font-family="Helvetica,sans-Serif" font-size="10.00">&#45; m_w</text>
<text text-anchor="start" x="169" y="-555.5" font-family="Helvetica,sans-Serif" font-size="10.00">&#45; m_h</text>
<polyline fill="none" stroke="black" points="161,-548.5 217,-548.5 "/>
<text text-anchor="start" x="169" y="-536.5" font-family="Helvetica,sans-Serif" font-size="10.00">+ Menu()</text>
<text text-anchor="start" x="169" y="-525.5" font-family="Helvetica,sans-Serif" font-size="10.00">+ Menu()</text>
</a>
</g>
</g>
<!-- Node4&#45;&gt;Node5 -->
<g id="edge5" class="edge">
<title>Node4&#45;&gt;Node5</title>
<path fill="none" stroke="#404040" d="M189,-1176.82C189,-1070.5 189,-737.77 189,-609.83"/>
<polygon fill="none" stroke="#404040" points="189,-609.74 185,-603.74 189,-597.74 193,-603.74 189,-609.74"/>
<text text-anchor="middle" x="200.5" y="-960.5" font-family="Helvetica,sans-Serif" font-size="10.00"> +tex</text>
</g>
<!-- Node6 -->
<g id="node6" class="node">
<title>Node6</title>
<g id="a_node6"><a xlink:href="classBouton.html" target="_top" xlink:title="permettant de gerer les boutons du menu">
<polygon fill="white" stroke="black" points="63.5,-890.5 63.5,-1035.5 152.5,-1035.5 152.5,-890.5 63.5,-890.5"/>
<text text-anchor="middle" x="108" y="-1023.5" font-family="Helvetica,sans-Serif" font-size="10.00">Bouton</text>
<polyline fill="none" stroke="black" points="63.5,-1016.5 152.5,-1016.5 "/>
<text text-anchor="start" x="71.5" y="-1004.5" font-family="Helvetica,sans-Serif" font-size="10.00">&#45; b_x</text>
<text text-anchor="start" x="71.5" y="-993.5" font-family="Helvetica,sans-Serif" font-size="10.00">&#45; b_y</text>
<text text-anchor="start" x="71.5" y="-982.5" font-family="Helvetica,sans-Serif" font-size="10.00">&#45; b_w</text>
<text text-anchor="start" x="71.5" y="-971.5" font-family="Helvetica,sans-Serif" font-size="10.00">&#45; b_h</text>
<polyline fill="none" stroke="black" points="63.5,-964.5 152.5,-964.5 "/>
<text text-anchor="start" x="71.5" y="-952.5" font-family="Helvetica,sans-Serif" font-size="10.00">+ Bouton()</text>
<text text-anchor="start" x="71.5" y="-941.5" font-family="Helvetica,sans-Serif" font-size="10.00">+ placerBouton()</text>
<text text-anchor="start" x="71.5" y="-930.5" font-family="Helvetica,sans-Serif" font-size="10.00">+ getx()</text>
<text text-anchor="start" x="71.5" y="-919.5" font-family="Helvetica,sans-Serif" font-size="10.00">+ gety()</text>
<text text-anchor="start" x="71.5" y="-908.5" font-family="Helvetica,sans-Serif" font-size="10.00">+ getw()</text>
<text text-anchor="start" x="71.5" y="-897.5" font-family="Helvetica,sans-Serif" font-size="10.00">+ geth()</text>
</a>
</g>
</g>
<!-- Node4&#45;&gt;Node6 -->
<g id="edge7" class="edge">
<title>Node4&#45;&gt;Node6</title>
<path fill="none" stroke="#404040" d="M176.36,-1176.96C168.98,-1157.31 159.64,-1131.84 152,-1109 145.37,-1089.19 138.62,-1067.71 132.46,-1047.52"/>
<polygon fill="none" stroke="#404040" points="132.39,-1047.28 126.82,-1042.7 128.91,-1035.79 134.48,-1040.38 132.39,-1047.28"/>
<text text-anchor="middle" x="163.5" y="-1090" font-family="Helvetica,sans-Serif" font-size="10.00"> +tex</text>
</g>
<!-- Node7 -->
<g id="node7" class="node">
<title>Node7</title>
<g id="a_node7"><a xlink:href="classTuiles.html" target="_top" xlink:title=" ">
<polygon fill="white" stroke="black" points="230,-929 230,-997 288,-997 288,-929 230,-929"/>
<text text-anchor="middle" x="259" y="-985" font-family="Helvetica,sans-Serif" font-size="10.00">Tuiles</text>
<polyline fill="none" stroke="black" points="230,-978 288,-978 "/>
<text text-anchor="start" x="238" y="-966" font-family="Helvetica,sans-Serif" font-size="10.00">+ width</text>
<text text-anchor="start" x="238" y="-955" font-family="Helvetica,sans-Serif" font-size="10.00">+ height</text>
<polyline fill="none" stroke="black" points="230,-948 288,-948 "/>
<text text-anchor="start" x="238" y="-936" font-family="Helvetica,sans-Serif" font-size="10.00">+ Tuiles()</text>
</a>
</g>
</g>
<!-- Node4&#45;&gt;Node7 -->
<g id="edge10" class="edge">
<title>Node4&#45;&gt;Node7</title>
<path fill="none" stroke="#404040" d="M198.44,-1176.82C210.79,-1133.42 232.48,-1057.21 246.27,-1008.73"/>
<polygon fill="none" stroke="#404040" points="246.31,-1008.58 244.11,-1001.72 249.6,-997.04 251.8,-1003.91 246.31,-1008.58"/>
<text text-anchor="middle" x="238.5" y="-1090" font-family="Helvetica,sans-Serif" font-size="10.00"> +tex</text>
</g>
<!-- Node9 -->
<g id="node9" class="node">
<title>Node9</title>
<g id="a_node9"><a xlink:href="classPersonnage.html" target="_top" xlink:title="permettant de gerer les caracteristiques d&#39;un personnage">
<polygon fill="white" stroke="black" points="320,-441.5 320,-674.5 442,-674.5 442,-441.5 320,-441.5"/>
<text text-anchor="middle" x="381" y="-662.5" font-family="Helvetica,sans-Serif" font-size="10.00">Personnage</text>
<polyline fill="none" stroke="black" points="320,-655.5 442,-655.5 "/>
<text text-anchor="start" x="328" y="-643.5" font-family="Helvetica,sans-Serif" font-size="10.00">&#45; m_vie</text>
<text text-anchor="start" x="328" y="-632.5" font-family="Helvetica,sans-Serif" font-size="10.00">&#45; m_mana</text>
<polyline fill="none" stroke="black" points="320,-625.5 442,-625.5 "/>
<text text-anchor="start" x="328" y="-613.5" font-family="Helvetica,sans-Serif" font-size="10.00">+ Personnage()</text>
<text text-anchor="start" x="328" y="-602.5" font-family="Helvetica,sans-Serif" font-size="10.00">+ ~Personnage()</text>
<text text-anchor="start" x="328" y="-591.5" font-family="Helvetica,sans-Serif" font-size="10.00">+ bougerAdroite()</text>
<text text-anchor="start" x="328" y="-580.5" font-family="Helvetica,sans-Serif" font-size="10.00">+ bougerAgauche()</text>
<text text-anchor="start" x="328" y="-569.5" font-family="Helvetica,sans-Serif" font-size="10.00">+ sauter()</text>
<text text-anchor="start" x="328" y="-558.5" font-family="Helvetica,sans-Serif" font-size="10.00">+ sauterAdroite()</text>
<text text-anchor="start" x="328" y="-547.5" font-family="Helvetica,sans-Serif" font-size="10.00">+ sauterAgauche()</text>
<text text-anchor="start" x="328" y="-536.5" font-family="Helvetica,sans-Serif" font-size="10.00">+ recevoirDegats()</text>
<text text-anchor="start" x="328" y="-525.5" font-family="Helvetica,sans-Serif" font-size="10.00">+ attaquer()</text>
<text text-anchor="start" x="328" y="-514.5" font-family="Helvetica,sans-Serif" font-size="10.00">+ attaqueUltime()</text>
<text text-anchor="start" x="328" y="-503.5" font-family="Helvetica,sans-Serif" font-size="10.00">+ changerCompetence()</text>
<text text-anchor="start" x="328" y="-492.5" font-family="Helvetica,sans-Serif" font-size="10.00">+ estVivant()</text>
<text text-anchor="start" x="328" y="-481.5" font-family="Helvetica,sans-Serif" font-size="10.00">+ afficherEtat()</text>
<text text-anchor="start" x="328" y="-470.5" font-family="Helvetica,sans-Serif" font-size="10.00">+ getVie()</text>
<text text-anchor="start" x="328" y="-459.5" font-family="Helvetica,sans-Serif" font-size="10.00">+ setVie()</text>
<text text-anchor="start" x="328" y="-448.5" font-family="Helvetica,sans-Serif" font-size="10.00">+ testRegression()</text>
</a>
</g>
</g>
<!-- Node4&#45;&gt;Node9 -->
<g id="edge15" class="edge">
<title>Node4&#45;&gt;Node9</title>
<path fill="none" stroke="#404040" d="M219.42,-1176.77C244.32,-1147.64 278.38,-1103.02 297,-1058 304.09,-1040.86 338.41,-829 360.93,-686.91"/>
<polygon fill="none" stroke="#404040" points="360.99,-686.52 357.98,-679.97 362.87,-674.67 365.88,-681.22 360.99,-686.52"/>
<text text-anchor="middle" x="343.5" y="-960.5" font-family="Helvetica,sans-Serif" font-size="10.00"> +tex</text>
</g>
<!-- Node5&#45;&gt;Node2 -->
<g id="edge4" class="edge">
<title>Node5&#45;&gt;Node2</title>
<path fill="none" stroke="#404040" d="M192.71,-518.39C195.99,-486.74 201.29,-440.82 208,-401 208.35,-398.95 208.7,-396.88 209.07,-394.79"/>
<polygon fill="none" stroke="#404040" points="209.12,-394.52 206.28,-387.89 211.3,-382.71 214.15,-389.34 209.12,-394.52"/>
<text text-anchor="middle" x="225" y="-409.5" font-family="Helvetica,sans-Serif" font-size="10.00"> +menu</text>
</g>
<!-- Node6&#45;&gt;Node5 -->
<g id="edge6" class="edge">
<title>Node6&#45;&gt;Node5</title>
<path fill="none" stroke="#404040" d="M115.23,-890.35C121.5,-835.82 131.94,-759.14 147,-693 153.42,-664.78 162.92,-633.92 171.26,-608.94"/>
<polygon fill="none" stroke="#404040" points="171.27,-608.91 169.4,-601.94 175.12,-597.54 176.98,-604.51 171.27,-608.91"/>
<text text-anchor="middle" x="161" y="-785.5" font-family="Helvetica,sans-Serif" font-size="10.00"> +son</text>
<text text-anchor="middle" x="161" y="-774.5" font-family="Helvetica,sans-Serif" font-size="10.00">+start</text>
<text text-anchor="middle" x="161" y="-763.5" font-family="Helvetica,sans-Serif" font-size="10.00">+quit</text>
<text text-anchor="middle" x="161" y="-752.5" font-family="Helvetica,sans-Serif" font-size="10.00">+back</text>
</g>
<!-- Node7&#45;&gt;Node2 -->
<g id="edge8" class="edge">
<title>Node7&#45;&gt;Node2</title>
<path fill="none" stroke="#404040" d="M258.83,-928.76C258.22,-841.91 255.34,-601.04 242,-401 241.86,-398.93 241.71,-396.83 241.56,-394.72"/>
<polygon fill="none" stroke="#404040" points="241.54,-394.47 237.08,-388.8 240.59,-382.5 245.05,-388.17 241.54,-394.47"/>
<text text-anchor="middle" x="269" y="-555.5" font-family="Helvetica,sans-Serif" font-size="10.00"> +tuile</text>
</g>
<!-- Node8 -->
<g id="node8" class="node">
<title>Node8</title>
<g id="a_node8"><a xlink:href="classVector2D.html" target="_top" xlink:title="class permettant de gerer des vecteurs">
<polygon fill="white" stroke="black" points="340.5,-1127.5 340.5,-1294.5 419.5,-1294.5 419.5,-1127.5 340.5,-1127.5"/>
<text text-anchor="middle" x="380" y="-1282.5" font-family="Helvetica,sans-Serif" font-size="10.00">Vector2D</text>
<polyline fill="none" stroke="black" points="340.5,-1275.5 419.5,-1275.5 "/>
<text text-anchor="start" x="348.5" y="-1263.5" font-family="Helvetica,sans-Serif" font-size="10.00">&#45; x</text>
<text text-anchor="start" x="348.5" y="-1252.5" font-family="Helvetica,sans-Serif" font-size="10.00">&#45; y</text>
<polyline fill="none" stroke="black" points="340.5,-1245.5 419.5,-1245.5 "/>
<text text-anchor="start" x="348.5" y="-1233.5" font-family="Helvetica,sans-Serif" font-size="10.00">+ Vector2D()</text>
<text text-anchor="start" x="348.5" y="-1222.5" font-family="Helvetica,sans-Serif" font-size="10.00">+ Vector2D()</text>
<text text-anchor="start" x="348.5" y="-1211.5" font-family="Helvetica,sans-Serif" font-size="10.00">+ ~Vector2D()</text>
<text text-anchor="start" x="348.5" y="-1200.5" font-family="Helvetica,sans-Serif" font-size="10.00">+ operator+()</text>
<text text-anchor="start" x="348.5" y="-1189.5" font-family="Helvetica,sans-Serif" font-size="10.00">+ operator=()</text>
<text text-anchor="start" x="348.5" y="-1178.5" font-family="Helvetica,sans-Serif" font-size="10.00">+ operator+=()</text>
<text text-anchor="start" x="348.5" y="-1167.5" font-family="Helvetica,sans-Serif" font-size="10.00">+ getx()</text>
<text text-anchor="start" x="348.5" y="-1156.5" font-family="Helvetica,sans-Serif" font-size="10.00">+ gety()</text>
<text text-anchor="start" x="348.5" y="-1145.5" font-family="Helvetica,sans-Serif" font-size="10.00">+ setx()</text>
<text text-anchor="start" x="348.5" y="-1134.5" font-family="Helvetica,sans-Serif" font-size="10.00">+ sety()</text>
</a>
</g>
</g>
<!-- Node8&#45;&gt;Node7 -->
<g id="edge9" class="edge">
<title>Node8&#45;&gt;Node7</title>
<path fill="none" stroke="#404040" d="M340.44,-1134.57C327.92,-1110.24 314.17,-1083.09 302,-1058 294.19,-1041.89 285.93,-1024.06 278.77,-1008.29"/>
<polygon fill="none" stroke="#404040" points="278.71,-1008.17 272.59,-1004.35 273.76,-997.23 279.88,-1001.05 278.71,-1008.17"/>
<text text-anchor="middle" x="340.5" y="-1090" font-family="Helvetica,sans-Serif" font-size="10.00"> +pos</text>
</g>
<!-- Node13 -->
<g id="node13" class="node">
<title>Node13</title>
<g id="a_node13"><a xlink:href="classPhysic.html" target="_top" xlink:title="permettant de gerer les caracteristiques physique d&#39;un joueur">
<polygon fill="white" stroke="black" points="366,-868.5 366,-1057.5 434,-1057.5 434,-868.5 366,-868.5"/>
<text text-anchor="middle" x="400" y="-1045.5" font-family="Helvetica,sans-Serif" font-size="10.00">Physic</text>
<polyline fill="none" stroke="black" points="366,-1038.5 434,-1038.5 "/>
<text text-anchor="middle" x="400" y="-1026.5" font-family="Helvetica,sans-Serif" font-size="10.00"> </text>
<polyline fill="none" stroke="black" points="366,-1019.5 434,-1019.5 "/>
<text text-anchor="start" x="374" y="-1007.5" font-family="Helvetica,sans-Serif" font-size="10.00">+ Physic()</text>
<text text-anchor="start" x="374" y="-996.5" font-family="Helvetica,sans-Serif" font-size="10.00">+ ~Physic()</text>
<text text-anchor="start" x="374" y="-985.5" font-family="Helvetica,sans-Serif" font-size="10.00">+ getPos()</text>
<text text-anchor="start" x="374" y="-974.5" font-family="Helvetica,sans-Serif" font-size="10.00">+ getPosx()</text>
<text text-anchor="start" x="374" y="-963.5" font-family="Helvetica,sans-Serif" font-size="10.00">+ getPosy()</text>
<text text-anchor="start" x="374" y="-952.5" font-family="Helvetica,sans-Serif" font-size="10.00">+ setPos()</text>
<text text-anchor="start" x="374" y="-941.5" font-family="Helvetica,sans-Serif" font-size="10.00">+ setPosx()</text>
<text text-anchor="start" x="374" y="-930.5" font-family="Helvetica,sans-Serif" font-size="10.00">+ setPosy()</text>
<text text-anchor="start" x="374" y="-919.5" font-family="Helvetica,sans-Serif" font-size="10.00">+ getVit()</text>
<text text-anchor="start" x="374" y="-908.5" font-family="Helvetica,sans-Serif" font-size="10.00">+ setVit()</text>
<text text-anchor="start" x="374" y="-897.5" font-family="Helvetica,sans-Serif" font-size="10.00">+ setVitx()</text>
<text text-anchor="start" x="374" y="-886.5" font-family="Helvetica,sans-Serif" font-size="10.00">+ setVity()</text>
<text text-anchor="start" x="374" y="-875.5" font-family="Helvetica,sans-Serif" font-size="10.00">+ ticks()</text>
</a>
</g>
</g>
<!-- Node8&#45;&gt;Node13 -->
<g id="edge17" class="edge">
<title>Node8&#45;&gt;Node13</title>
<path fill="none" stroke="#404040" d="M386.72,-1127.4C388.21,-1108.99 389.82,-1089.23 391.38,-1070.03"/>
<polygon fill="none" stroke="#404040" points="391.4,-1069.8 387.9,-1063.49 392.37,-1057.84 395.87,-1064.14 391.4,-1069.8"/>
<text text-anchor="middle" x="427.5" y="-1101" font-family="Helvetica,sans-Serif" font-size="10.00"> &#45;m_acceleration</text>
<text text-anchor="middle" x="427.5" y="-1090" font-family="Helvetica,sans-Serif" font-size="10.00">&#45;m_position</text>
<text text-anchor="middle" x="427.5" y="-1079" font-family="Helvetica,sans-Serif" font-size="10.00">&#45;m_vitesse</text>
</g>
<!-- Node9&#45;&gt;Node2 -->
<g id="edge11" class="edge">
<title>Node9&#45;&gt;Node2</title>
<path fill="none" stroke="#404040" d="M319.99,-450.23C309.23,-431.4 298.06,-411.86 287.43,-393.26"/>
<polygon fill="none" stroke="#404040" points="287.37,-393.15 280.92,-389.92 281.42,-382.73 287.87,-385.96 287.37,-393.15"/>
<text text-anchor="middle" x="313.5" y="-415" font-family="Helvetica,sans-Serif" font-size="10.00"> +SP</text>
<text text-anchor="middle" x="313.5" y="-404" font-family="Helvetica,sans-Serif" font-size="10.00">+MP</text>
</g>
<!-- Node10 -->
<g id="node10" class="node">
<title>Node10</title>
<g id="a_node10"><a xlink:href="classCompetence.html" target="_top" xlink:title=" ">
<polygon fill="white" stroke="black" points="453.5,-907 453.5,-1019 546.5,-1019 546.5,-907 453.5,-907"/>
<text text-anchor="middle" x="500" y="-1007" font-family="Helvetica,sans-Serif" font-size="10.00">Competence</text>
<polyline fill="none" stroke="black" points="453.5,-1000 546.5,-1000 "/>
<text text-anchor="start" x="461.5" y="-988" font-family="Helvetica,sans-Serif" font-size="10.00">&#45; m_degats</text>
<polyline fill="none" stroke="black" points="453.5,-981 546.5,-981 "/>
<text text-anchor="start" x="461.5" y="-969" font-family="Helvetica,sans-Serif" font-size="10.00">+ Competence()</text>
<text text-anchor="start" x="461.5" y="-958" font-family="Helvetica,sans-Serif" font-size="10.00">+ Competence()</text>
<text text-anchor="start" x="461.5" y="-947" font-family="Helvetica,sans-Serif" font-size="10.00">+ changer()</text>
<text text-anchor="start" x="461.5" y="-936" font-family="Helvetica,sans-Serif" font-size="10.00">+ afficher()</text>
<text text-anchor="start" x="461.5" y="-925" font-family="Helvetica,sans-Serif" font-size="10.00">+ getDegats()</text>
<text text-anchor="start" x="461.5" y="-914" font-family="Helvetica,sans-Serif" font-size="10.00">+ ~Competence()</text>
</a>
</g>
</g>
<!-- Node10&#45;&gt;Node9 -->
<g id="edge12" class="edge">
<title>Node10&#45;&gt;Node9</title>
<path fill="none" stroke="#404040" d="M485.06,-906.97C470.13,-852.48 446.25,-766.76 424,-693 423.35,-690.86 422.7,-688.69 422.04,-686.52"/>
<polygon fill="none" stroke="#404040" points="421.95,-686.24 416.37,-681.68 418.43,-674.77 424.01,-679.33 421.95,-686.24"/>
<text text-anchor="middle" x="505.5" y="-769" font-family="Helvetica,sans-Serif" font-size="10.00"> &#45;m_competence</text>
</g>
<!-- Node11 -->
<g id="node11" class="node">
<title>Node11</title>
<g id="a_node11"><a xlink:title="STL class.">
<polygon fill="white" stroke="#bfbfbf" points="470,-1182.5 470,-1239.5 530,-1239.5 530,-1182.5 470,-1182.5"/>
<text text-anchor="middle" x="500" y="-1227.5" font-family="Helvetica,sans-Serif" font-size="10.00">std::string</text>
<polyline fill="none" stroke="#bfbfbf" points="470,-1220.5 530,-1220.5 "/>
<text text-anchor="middle" x="500" y="-1208.5" font-family="Helvetica,sans-Serif" font-size="10.00"> </text>
<polyline fill="none" stroke="#bfbfbf" points="470,-1201.5 530,-1201.5 "/>
<text text-anchor="middle" x="500" y="-1189.5" font-family="Helvetica,sans-Serif" font-size="10.00"> </text>
</a>
</g>
</g>
<!-- Node11&#45;&gt;Node10 -->
<g id="edge13" class="edge">
<title>Node11&#45;&gt;Node10</title>
<path fill="none" stroke="#404040" d="M500,-1182.26C500,-1146 500,-1081.29 500,-1031.71"/>
<polygon fill="none" stroke="#404040" points="500,-1031.46 496,-1025.46 500,-1019.46 504,-1025.46 500,-1031.46"/>
<text text-anchor="middle" x="519.5" y="-1090" font-family="Helvetica,sans-Serif" font-size="10.00"> &#45;m_nom</text>
</g>
<!-- Node12 -->
<g id="node12" class="node">
<title>Node12</title>
<g id="a_node12"><a xlink:title="STL class.">
<polygon fill="white" stroke="#bfbfbf" points="452.5,-1332.5 452.5,-1400.5 547.5,-1400.5 547.5,-1332.5 452.5,-1332.5"/>
<text text-anchor="start" x="460.5" y="-1388.5" font-family="Helvetica,sans-Serif" font-size="10.00">std::basic_string&lt;</text>
<text text-anchor="middle" x="500" y="-1377.5" font-family="Helvetica,sans-Serif" font-size="10.00"> char &gt;</text>
<polyline fill="none" stroke="#bfbfbf" points="452.5,-1370.5 547.5,-1370.5 "/>
<text text-anchor="middle" x="500" y="-1358.5" font-family="Helvetica,sans-Serif" font-size="10.00"> </text>
<polyline fill="none" stroke="#bfbfbf" points="452.5,-1351.5 547.5,-1351.5 "/>
<text text-anchor="middle" x="500" y="-1339.5" font-family="Helvetica,sans-Serif" font-size="10.00"> </text>
</a>
</g>
</g>
<!-- Node12&#45;&gt;Node11 -->
<g id="edge14" class="edge">
<title>Node12&#45;&gt;Node11</title>
<path fill="none" stroke="midnightblue" d="M500,-1322.03C500,-1295.56 500,-1262.53 500,-1239.6"/>
<polygon fill="none" stroke="midnightblue" points="496.5,-1322.19 500,-1332.19 503.5,-1322.19 496.5,-1322.19"/>
</g>
<!-- Node13&#45;&gt;Node9 -->
<g id="edge16" class="edge">
<title>Node13&#45;&gt;Node9</title>
<path fill="none" stroke="#404040" d="M395.58,-868.28C393.03,-814.21 389.79,-745.48 387.01,-686.55"/>
<polygon fill="none" stroke="#404040" points="387.01,-686.5 382.73,-680.7 386.45,-674.51 390.72,-680.32 387.01,-686.5"/>
<text text-anchor="middle" x="407.5" y="-769" font-family="Helvetica,sans-Serif" font-size="10.00"> +phy</text>
</g>
</g>
</svg>
