<?xml version="1.0" encoding="UTF-8" standalone="no"?>
<!DOCTYPE svg PUBLIC "-//W3C//DTD SVG 1.1//EN"
 "http://www.w3.org/Graphics/SVG/1.1/DTD/svg11.dtd">
<!-- Generated by graphviz version 2.43.0 (0)
 -->
<!-- Title: Competence Pages: 1 -->
<svg width="103pt" height="332pt"
 viewBox="0.00 0.00 103.00 332.00" xmlns="http://www.w3.org/2000/svg" xmlns:xlink="http://www.w3.org/1999/xlink">
<g id="graph0" class="graph" transform="scale(1 1) rotate(0) translate(4 328)">
<title>Competence</title>
<polygon fill="white" stroke="transparent" points="-4,4 -4,-328 99,-328 99,4 -4,4"/>
<!-- Node1 -->
<g id="node1" class="node">
<title>Node1</title>
<g id="a_node1"><a xlink:title=" ">
<polygon fill="#bfbfbf" stroke="black" points="1,-0.5 1,-112.5 94,-112.5 94,-0.5 1,-0.5"/>
<text text-anchor="middle" x="47.5" y="-100.5" font-family="Helvetica,sans-Serif" font-size="10.00">Competence</text>
<polyline fill="none" stroke="black" points="1,-93.5 94,-93.5 "/>
<text text-anchor="start" x="9" y="-81.5" font-family="Helvetica,sans-Serif" font-size="10.00">&#45; m_degats</text>
<polyline fill="none" stroke="black" points="1,-74.5 94,-74.5 "/>
<text text-anchor="start" x="9" y="-62.5" font-family="Helvetica,sans-Serif" font-size="10.00">+ Competence()</text>
<text text-anchor="start" x="9" y="-51.5" font-family="Helvetica,sans-Serif" font-size="10.00">+ Competence()</text>
<text text-anchor="start" x="9" y="-40.5" font-family="Helvetica,sans-Serif" font-size="10.00">+ changer()</text>
<text text-anchor="start" x="9" y="-29.5" font-family="Helvetica,sans-Serif" font-size="10.00">+ afficher()</text>
<text text-anchor="start" x="9" y="-18.5" font-family="Helvetica,sans-Serif" font-size="10.00">+ getDegats()</text>
<text text-anchor="start" x="9" y="-7.5" font-family="Helvetica,sans-Serif" font-size="10.00">+ ~Competence()</text>
</a>
</g>
</g>
<!-- Node2 -->
<g id="node2" class="node">
<title>Node2</title>
<g id="a_node2"><a xlink:title="STL class.">
<polygon fill="white" stroke="#bfbfbf" points="17.5,-160.5 17.5,-217.5 77.5,-217.5 77.5,-160.5 17.5,-160.5"/>
<text text-anchor="middle" x="47.5" y="-205.5" font-family="Helvetica,sans-Serif" font-size="10.00">std::string</text>
<polyline fill="none" stroke="#bfbfbf" points="17.5,-198.5 77.5,-198.5 "/>
<text text-anchor="middle" x="47.5" y="-186.5" font-family="Helvetica,sans-Serif" font-size="10.00"> </text>
<polyline fill="none" stroke="#bfbfbf" points="17.5,-179.5 77.5,-179.5 "/>
<text text-anchor="middle" x="47.5" y="-167.5" font-family="Helvetica,sans-Serif" font-size="10.00"> </text>
</a>
</g>
</g>
<!-- Node2&#45;&gt;Node1 -->
<g id="edge1" class="edge">
<title>Node2&#45;&gt;Node1</title>
<path fill="none" stroke="#404040" d="M47.5,-160.32C47.5,-149.78 47.5,-137.25 47.5,-124.62"/>
<polygon fill="none" stroke="#404040" points="47.5,-124.55 43.5,-118.55 47.5,-112.55 51.5,-118.55 47.5,-124.55"/>
<text text-anchor="middle" x="67" y="-134" font-family="Helvetica,sans-Serif" font-size="10.00"> &#45;m_nom</text>
</g>
<!-- Node3 -->
<g id="node3" class="node">
<title>Node3</title>
<g id="a_node3"><a xlink:title="STL class.">
<polygon fill="white" stroke="#bfbfbf" points="0,-255.5 0,-323.5 95,-323.5 95,-255.5 0,-255.5"/>
<text text-anchor="start" x="8" y="-311.5" font-family="Helvetica,sans-Serif" font-size="10.00">std::basic_string&lt;</text>
<text text-anchor="middle" x="47.5" y="-300.5" font-family="Helvetica,sans-Serif" font-size="10.00"> char &gt;</text>
<polyline fill="none" stroke="#bfbfbf" points="0,-293.5 95,-293.5 "/>
<text text-anchor="middle" x="47.5" y="-281.5" font-family="Helvetica,sans-Serif" font-size="10.00"> </text>
<polyline fill="none" stroke="#bfbfbf" points="0,-274.5 95,-274.5 "/>
<text text-anchor="middle" x="47.5" y="-262.5" font-family="Helvetica,sans-Serif" font-size="10.00"> </text>
</a>
</g>
</g>
<!-- Node3&#45;&gt;Node2 -->
<g id="edge2" class="edge">
<title>Node3&#45;&gt;Node2</title>
<path fill="none" stroke="midnightblue" d="M47.5,-245.38C47.5,-235.94 47.5,-226.2 47.5,-217.57"/>
<polygon fill="none" stroke="midnightblue" points="44,-245.43 47.5,-255.43 51,-245.43 44,-245.43"/>
</g>
</g>
</svg>
