<?xml version="1.0" encoding="UTF-8" standalone="no"?>
<!DOCTYPE svg PUBLIC "-//W3C//DTD SVG 1.1//EN"
 "http://www.w3.org/Graphics/SVG/1.1/DTD/svg11.dtd">
<!-- Generated by graphviz version 2.43.0 (0)
 -->
<!-- Title: Personnage Pages: 1 -->
<svg width="310pt" height="822pt"
 viewBox="0.00 0.00 309.50 822.00" xmlns="http://www.w3.org/2000/svg" xmlns:xlink="http://www.w3.org/1999/xlink">
<g id="graph0" class="graph" transform="scale(1 1) rotate(0) translate(4 818)">
<title>Personnage</title>
<polygon fill="white" stroke="transparent" points="-4,4 -4,-818 305.5,-818 305.5,4 -4,4"/>
<!-- Node1 -->
<g id="node1" class="node">
<title>Node1</title>
<g id="a_node1"><a xlink:title="permettant de gerer les caracteristiques d&#39;un personnage">
<polygon fill="#bfbfbf" stroke="black" points="83.5,-0.5 83.5,-233.5 205.5,-233.5 205.5,-0.5 83.5,-0.5"/>
<text text-anchor="middle" x="144.5" y="-221.5" font-family="Helvetica,sans-Serif" font-size="10.00">Personnage</text>
<polyline fill="none" stroke="black" points="83.5,-214.5 205.5,-214.5 "/>
<text text-anchor="start" x="91.5" y="-202.5" font-family="Helvetica,sans-Serif" font-size="10.00">&#45; m_vie</text>
<text text-anchor="start" x="91.5" y="-191.5" font-family="Helvetica,sans-Serif" font-size="10.00">&#45; m_mana</text>
<polyline fill="none" stroke="black" points="83.5,-184.5 205.5,-184.5 "/>
<text text-anchor="start" x="91.5" y="-172.5" font-family="Helvetica,sans-Serif" font-size="10.00">+ Personnage()</text>
<text text-anchor="start" x="91.5" y="-161.5" font-family="Helvetica,sans-Serif" font-size="10.00">+ ~Personnage()</text>
<text text-anchor="start" x="91.5" y="-150.5" font-family="Helvetica,sans-Serif" font-size="10.00">+ bougerAdroite()</text>
<text text-anchor="start" x="91.5" y="-139.5" font-family="Helvetica,sans-Serif" font-size="10.00">+ bougerAgauche()</text>
<text text-anchor="start" x="91.5" y="-128.5" font-family="Helvetica,sans-Serif" font-size="10.00">+ sauter()</text>
<text text-anchor="start" x="91.5" y="-117.5" font-family="Helvetica,sans-Serif" font-size="10.00">+ sauterAdroite()</text>
<text text-anchor="start" x="91.5" y="-106.5" font-family="Helvetica,sans-Serif" font-size="10.00">+ sauterAgauche()</text>
<text text-anchor="start" x="91.5" y="-95.5" font-family="Helvetica,sans-Serif" font-size="10.00">+ recevoirDegats()</text>
<text text-anchor="start" x="91.5" y="-84.5" font-family="Helvetica,sans-Serif" font-size="10.00">+ attaquer()</text>
<text text-anchor="start" x="91.5" y="-73.5" font-family="Helvetica,sans-Serif" font-size="10.00">+ attaqueUltime()</text>
<text text-anchor="start" x="91.5" y="-62.5" font-family="Helvetica,sans-Serif" font-size="10.00">+ changerCompetence()</text>
<text text-anchor="start" x="91.5" y="-51.5" font-family="Helvetica,sans-Serif" font-size="10.00">+ estVivant()</text>
<text text-anchor="start" x="91.5" y="-40.5" font-family="Helvetica,sans-Serif" font-size="10.00">+ afficherEtat()</text>
<text text-anchor="start" x="91.5" y="-29.5" font-family="Helvetica,sans-Serif" font-size="10.00">+ getVie()</text>
<text text-anchor="start" x="91.5" y="-18.5" font-family="Helvetica,sans-Serif" font-size="10.00">+ setVie()</text>
<text text-anchor="start" x="91.5" y="-7.5" font-family="Helvetica,sans-Serif" font-size="10.00">+ testRegression()</text>
</a>
</g>
</g>
<!-- Node2 -->
<g id="node2" class="node">
<title>Node2</title>
<g id="a_node2"><a xlink:href="classCompetence.html" target="_top" xlink:title=" ">
<polygon fill="white" stroke="black" points="1,-320 1,-432 94,-432 94,-320 1,-320"/>
<text text-anchor="middle" x="47.5" y="-420" font-family="Helvetica,sans-Serif" font-size="10.00">Competence</text>
<polyline fill="none" stroke="black" points="1,-413 94,-413 "/>
<text text-anchor="start" x="9" y="-401" font-family="Helvetica,sans-Serif" font-size="10.00">&#45; m_degats</text>
<polyline fill="none" stroke="black" points="1,-394 94,-394 "/>
<text text-anchor="start" x="9" y="-382" font-family="Helvetica,sans-Serif" font-size="10.00">+ Competence()</text>
<text text-anchor="start" x="9" y="-371" font-family="Helvetica,sans-Serif" font-size="10.00">+ Competence()</text>
<text text-anchor="start" x="9" y="-360" font-family="Helvetica,sans-Serif" font-size="10.00">+ changer()</text>
<text text-anchor="start" x="9" y="-349" font-family="Helvetica,sans-Serif" font-size="10.00">+ afficher()</text>
<text text-anchor="start" x="9" y="-338" font-family="Helvetica,sans-Serif" font-size="10.00">+ getDegats()</text>
<text text-anchor="start" x="9" y="-327" font-family="Helvetica,sans-Serif" font-size="10.00">+ ~Competence()</text>
</a>
</g>
</g>
<!-- Node2&#45;&gt;Node1 -->
<g id="edge1" class="edge">
<title>Node2&#45;&gt;Node1</title>
<path fill="none" stroke="#404040" d="M52.19,-319.75C55.12,-298.18 59.86,-273.51 67.5,-252 70.56,-243.38 74.18,-234.68 78.14,-226.07"/>
<polygon fill="none" stroke="#404040" points="78.15,-226.05 77.13,-218.91 83.33,-215.23 84.35,-222.36 78.15,-226.05"/>
<text text-anchor="middle" x="104" y="-255" font-family="Helvetica,sans-Serif" font-size="10.00"> &#45;m_competence</text>
</g>
<!-- Node3 -->
<g id="node3" class="node">
<title>Node3</title>
<g id="a_node3"><a xlink:title="STL class.">
<polygon fill="white" stroke="#bfbfbf" points="17.5,-595.5 17.5,-652.5 77.5,-652.5 77.5,-595.5 17.5,-595.5"/>
<text text-anchor="middle" x="47.5" y="-640.5" font-family="Helvetica,sans-Serif" font-size="10.00">std::string</text>
<polyline fill="none" stroke="#bfbfbf" points="17.5,-633.5 77.5,-633.5 "/>
<text text-anchor="middle" x="47.5" y="-621.5" font-family="Helvetica,sans-Serif" font-size="10.00"> </text>
<polyline fill="none" stroke="#bfbfbf" points="17.5,-614.5 77.5,-614.5 "/>
<text text-anchor="middle" x="47.5" y="-602.5" font-family="Helvetica,sans-Serif" font-size="10.00"> </text>
</a>
</g>
</g>
<!-- Node3&#45;&gt;Node2 -->
<g id="edge2" class="edge">
<title>Node3&#45;&gt;Node2</title>
<path fill="none" stroke="#404040" d="M47.5,-595.26C47.5,-559 47.5,-494.29 47.5,-444.71"/>
<polygon fill="none" stroke="#404040" points="47.5,-444.46 43.5,-438.46 47.5,-432.46 51.5,-438.46 47.5,-444.46"/>
<text text-anchor="middle" x="67" y="-503" font-family="Helvetica,sans-Serif" font-size="10.00"> &#45;m_nom</text>
</g>
<!-- Node4 -->
<g id="node4" class="node">
<title>Node4</title>
<g id="a_node4"><a xlink:title="STL class.">
<polygon fill="white" stroke="#bfbfbf" points="0,-745.5 0,-813.5 95,-813.5 95,-745.5 0,-745.5"/>
<text text-anchor="start" x="8" y="-801.5" font-family="Helvetica,sans-Serif" font-size="10.00">std::basic_string&lt;</text>
<text text-anchor="middle" x="47.5" y="-790.5" font-family="Helvetica,sans-Serif" font-size="10.00"> char &gt;</text>
<polyline fill="none" stroke="#bfbfbf" points="0,-783.5 95,-783.5 "/>
<text text-anchor="middle" x="47.5" y="-771.5" font-family="Helvetica,sans-Serif" font-size="10.00"> </text>
<polyline fill="none" stroke="#bfbfbf" points="0,-764.5 95,-764.5 "/>
<text text-anchor="middle" x="47.5" y="-752.5" font-family="Helvetica,sans-Serif" font-size="10.00"> </text>
</a>
</g>
</g>
<!-- Node4&#45;&gt;Node3 -->
<g id="edge3" class="edge">
<title>Node4&#45;&gt;Node3</title>
<path fill="none" stroke="midnightblue" d="M47.5,-735.03C47.5,-708.56 47.5,-675.53 47.5,-652.6"/>
<polygon fill="none" stroke="midnightblue" points="44,-735.19 47.5,-745.19 51,-735.19 44,-735.19"/>
</g>
<!-- Node5 -->
<g id="node5" class="node">
<title>Node5</title>
<g id="a_node5"><a xlink:href="classTexture.html" target="_top" xlink:title="class permettant de gerer les textures d&#39;un personnage">
<polygon fill="white" stroke="black" points="112.5,-342 112.5,-410 176.5,-410 176.5,-342 112.5,-342"/>
<text text-anchor="middle" x="144.5" y="-398" font-family="Helvetica,sans-Serif" font-size="10.00">Texture</text>
<polyline fill="none" stroke="black" points="112.5,-391 176.5,-391 "/>
<text text-anchor="start" x="120.5" y="-379" font-family="Helvetica,sans-Serif" font-size="10.00">+ url</text>
<text text-anchor="start" x="120.5" y="-368" font-family="Helvetica,sans-Serif" font-size="10.00">+ lettre</text>
<polyline fill="none" stroke="black" points="112.5,-361 176.5,-361 "/>
<text text-anchor="start" x="120.5" y="-349" font-family="Helvetica,sans-Serif" font-size="10.00">+ Texture()</text>
</a>
</g>
</g>
<!-- Node5&#45;&gt;Node1 -->
<g id="edge4" class="edge">
<title>Node5&#45;&gt;Node1</title>
<path fill="none" stroke="#404040" d="M144.5,-341.93C144.5,-317.08 144.5,-281.33 144.5,-245.66"/>
<polygon fill="none" stroke="#404040" points="144.5,-245.58 140.5,-239.58 144.5,-233.58 148.5,-239.58 144.5,-245.58"/>
<text text-anchor="middle" x="156" y="-255" font-family="Helvetica,sans-Serif" font-size="10.00"> +tex</text>
</g>
<!-- Node6 -->
<g id="node6" class="node">
<title>Node6</title>
<g id="a_node6"><a xlink:href="classPhysic.html" target="_top" xlink:title="permettant de gerer les caracteristiques physique d&#39;un joueur">
<polygon fill="white" stroke="black" points="194.5,-281.5 194.5,-470.5 262.5,-470.5 262.5,-281.5 194.5,-281.5"/>
<text text-anchor="middle" x="228.5" y="-458.5" font-family="Helvetica,sans-Serif" font-size="10.00">Physic</text>
<polyline fill="none" stroke="black" points="194.5,-451.5 262.5,-451.5 "/>
<text text-anchor="middle" x="228.5" y="-439.5" font-family="Helvetica,sans-Serif" font-size="10.00"> </text>
<polyline fill="none" stroke="black" points="194.5,-432.5 262.5,-432.5 "/>
<text text-anchor="start" x="202.5" y="-420.5" font-family="Helvetica,sans-Serif" font-size="10.00">+ Physic()</text>
<text text-anchor="start" x="202.5" y="-409.5" font-family="Helvetica,sans-Serif" font-size="10.00">+ ~Physic()</text>
<text text-anchor="start" x="202.5" y="-398.5" font-family="Helvetica,sans-Serif" font-size="10.00">+ getPos()</text>
<text text-anchor="start" x="202.5" y="-387.5" font-family="Helvetica,sans-Serif" font-size="10.00">+ getPosx()</text>
<text text-anchor="start" x="202.5" y="-376.5" font-family="Helvetica,sans-Serif" font-size="10.00">+ getPosy()</text>
<text text-anchor="start" x="202.5" y="-365.5" font-family="Helvetica,sans-Serif" font-size="10.00">+ setPos()</text>
<text text-anchor="start" x="202.5" y="-354.5" font-family="Helvetica,sans-Serif" font-size="10.00">+ setPosx()</text>
<text text-anchor="start" x="202.5" y="-343.5" font-family="Helvetica,sans-Serif" font-size="10.00">+ setPosy()</text>
<text text-anchor="start" x="202.5" y="-332.5" font-family="Helvetica,sans-Serif" font-size="10.00">+ getVit()</text>
<text text-anchor="start" x="202.5" y="-321.5" font-family="Helvetica,sans-Serif" font-size="10.00">+ setVit()</text>
<text text-anchor="start" x="202.5" y="-310.5" font-family="Helvetica,sans-Serif" font-size="10.00">+ setVitx()</text>
<text text-anchor="start" x="202.5" y="-299.5" font-family="Helvetica,sans-Serif" font-size="10.00">+ setVity()</text>
<text text-anchor="start" x="202.5" y="-288.5" font-family="Helvetica,sans-Serif" font-size="10.00">+ ticks()</text>
</a>
</g>
</g>
<!-- Node6&#45;&gt;Node1 -->
<g id="edge5" class="edge">
<title>Node6&#45;&gt;Node1</title>
<path fill="none" stroke="#404040" d="M197.94,-281.49C194.1,-269.74 190.12,-257.58 186.15,-245.42"/>
<polygon fill="none" stroke="#404040" points="186.07,-245.19 180.41,-240.73 182.34,-233.78 188.01,-238.24 186.07,-245.19"/>
<text text-anchor="middle" x="205" y="-255" font-family="Helvetica,sans-Serif" font-size="10.00"> +phy</text>
</g>
<!-- Node7 -->
<g id="node7" class="node">
<title>Node7</title>
<g id="a_node7"><a xlink:href="classVector2D.html" target="_top" xlink:title="class permettant de gerer des vecteurs">
<polygon fill="white" stroke="black" points="189,-540.5 189,-707.5 268,-707.5 268,-540.5 189,-540.5"/>
<text text-anchor="middle" x="228.5" y="-695.5" font-family="Helvetica,sans-Serif" font-size="10.00">Vector2D</text>
<polyline fill="none" stroke="black" points="189,-688.5 268,-688.5 "/>
<text text-anchor="start" x="197" y="-676.5" font-family="Helvetica,sans-Serif" font-size="10.00">&#45; x</text>
<text text-anchor="start" x="197" y="-665.5" font-family="Helvetica,sans-Serif" font-size="10.00">&#45; y</text>
<polyline fill="none" stroke="black" points="189,-658.5 268,-658.5 "/>
<text text-anchor="start" x="197" y="-646.5" font-family="Helvetica,sans-Serif" font-size="10.00">+ Vector2D()</text>
<text text-anchor="start" x="197" y="-635.5" font-family="Helvetica,sans-Serif" font-size="10.00">+ Vector2D()</text>
<text text-anchor="start" x="197" y="-624.5" font-family="Helvetica,sans-Serif" font-size="10.00">+ ~Vector2D()</text>
<text text-anchor="start" x="197" y="-613.5" font-family="Helvetica,sans-Serif" font-size="10.00">+ operator+()</text>
<text text-anchor="start" x="197" y="-602.5" font-family="Helvetica,sans-Serif" font-size="10.00">+ operator=()</text>
<text text-anchor="start" x="197" y="-591.5" font-family="Helvetica,sans-Serif" font-size="10.00">+ operator+=()</text>
<text text-anchor="start" x="197" y="-580.5" font-family="Helvetica,sans-Serif" font-size="10.00">+ getx()</text>
<text text-anchor="start" x="197" y="-569.5" font-family="Helvetica,sans-Serif" font-size="10.00">+ gety()</text>
<text text-anchor="start" x="197" y="-558.5" font-family="Helvetica,sans-Serif" font-size="10.00">+ setx()</text>
<text text-anchor="start" x="197" y="-547.5" font-family="Helvetica,sans-Serif" font-size="10.00">+ sety()</text>
</a>
</g>
</g>
<!-- Node7&#45;&gt;Node6 -->
<g id="edge6" class="edge">
<title>Node7&#45;&gt;Node6</title>
<path fill="none" stroke="#404040" d="M228.5,-540.4C228.5,-521.99 228.5,-502.23 228.5,-483.03"/>
<polygon fill="none" stroke="#404040" points="228.5,-482.84 224.5,-476.84 228.5,-470.84 232.5,-476.84 228.5,-482.84"/>
<text text-anchor="middle" x="265" y="-514" font-family="Helvetica,sans-Serif" font-size="10.00"> &#45;m_acceleration</text>
<text text-anchor="middle" x="265" y="-503" font-family="Helvetica,sans-Serif" font-size="10.00">&#45;m_position</text>
<text text-anchor="middle" x="265" y="-492" font-family="Helvetica,sans-Serif" font-size="10.00">&#45;m_vitesse</text>
</g>
</g>
</svg>
