<?xml version="1.0" encoding="UTF-8" standalone="no"?>
<!DOCTYPE svg PUBLIC "-//W3C//DTD SVG 1.1//EN"
 "http://www.w3.org/Graphics/SVG/1.1/DTD/svg11.dtd">
<!-- Generated by graphviz version 2.43.0 (0)
 -->
<!-- Title: JeuTxt Pages: 1 -->
<!--zoomable 1332 -->
<svg id="main" version="1.1" xmlns="http://www.w3.org/2000/svg" xmlns:xlink="http://www.w3.org/1999/xlink" xml:space="preserve" onload="init(evt)">
<style type="text/css"><![CDATA[
.edge:hover path { stroke: red; }
.edge:hover polygon { stroke: red; fill: red; }
]]></style>
<script type="text/javascript"><![CDATA[
var edges = document.getElementsByTagName('g');
if (edges && edges.length) {
  for (var i=0;i<edges.length;i++) {
    if (edges[i].id.substr(0,4)=='edge') {
      edges[i].setAttribute('class','edge');
    }
  }
}
]]></script>
        <defs>
                <circle id="rim" cx="0" cy="0" r="7"/>
                <circle id="rim2" cx="0" cy="0" r="3.5"/>
                <g id="zoomPlus">
                        <use xlink:href="#rim" fill="#404040">
                                <set attributeName="fill" to="#808080" begin="zoomplus.mouseover" end="zoomplus.mouseout"/>
                        </use>
                        <path d="M-4,0h8M0,-4v8" fill="none" stroke="white" stroke-width="1.5" pointer-events="none"/>
                </g>
                <g id="zoomMin">
                        <use xlink:href="#rim" fill="#404040">
                                <set attributeName="fill" to="#808080" begin="zoomminus.mouseover" end="zoomminus.mouseout"/>
                        </use>
                        <path d="M-4,0h8" fill="none" stroke="white" stroke-width="1.5" pointer-events="none"/>
                </g>
                <g id="dirArrow">
                        <path fill="none" stroke="white" stroke-width="1.5" d="M0,-3.0v7 M-2.5,-0.5L0,-3.0L2.5,-0.5"/>
                </g>
               <g id="resetDef">
                       <use xlink:href="#rim2" fill="#404040">
                               <set attributeName="fill" to="#808080" begin="reset.mouseover" end="reset.mouseout"/>
                       </use>
               </g>
        </defs>

<script type="text/javascript">
var viewWidth = 556;
var viewHeight = 1332;
var sectionId = 'dynsection-0';
</script>
<script xlink:href="svgpan.js"/>
<svg id="graph" class="graph">
<g id="viewport">
<title>JeuTxt</title>
<polygon fill="white" stroke="transparent" points="-4,4 -4,-1328 551.5,-1328 551.5,4 -4,4"/>
<!-- Node1 -->
<g id="node1" class="node">
<title>Node1</title>
<g id="a_node1"><a xlink:title="permettant de gerer le jeu en version txt">
<polygon fill="#bfbfbf" stroke="black" points="194.5,-0.5 194.5,-79.5 267.5,-79.5 267.5,-0.5 194.5,-0.5"/>
<text text-anchor="middle" x="231" y="-67.5" font-family="Helvetica,sans-Serif" font-size="10.00">JeuTxt</text>
<polyline fill="none" stroke="black" points="194.5,-60.5 267.5,-60.5 "/>
<text text-anchor="middle" x="231" y="-48.5" font-family="Helvetica,sans-Serif" font-size="10.00"> </text>
<polyline fill="none" stroke="black" points="194.5,-41.5 267.5,-41.5 "/>
<text text-anchor="start" x="202.5" y="-29.5" font-family="Helvetica,sans-Serif" font-size="10.00">+ txtBoucle()</text>
<text text-anchor="start" x="202.5" y="-18.5" font-family="Helvetica,sans-Serif" font-size="10.00">+ menuaff()</text>
<text text-anchor="start" x="202.5" y="-7.5" font-family="Helvetica,sans-Serif" font-size="10.00">+ txtAff()</text>
</a>
</g>
</g>
<!-- Node2 -->
<g id="node2" class="node">
<title>Node2</title>
<g id="a_node2"><a xlink:href="classJeu.html" target="_top" xlink:title=" ">
<polygon fill="white" stroke="black" points="172,-127.5 172,-305.5 290,-305.5 290,-127.5 172,-127.5"/>
<text text-anchor="middle" x="231" y="-293.5" font-family="Helvetica,sans-Serif" font-size="10.00">Jeu</text>
<polyline fill="none" stroke="black" points="172,-286.5 290,-286.5 "/>
<text text-anchor="middle" x="231" y="-274.5" font-family="Helvetica,sans-Serif" font-size="10.00"> </text>
<polyline fill="none" stroke="black" points="172,-267.5 290,-267.5 "/>
<text text-anchor="start" x="180" y="-255.5" font-family="Helvetica,sans-Serif" font-size="10.00">+ actionsAutomatique()</text>
<text text-anchor="start" x="180" y="-244.5" font-family="Helvetica,sans-Serif" font-size="10.00">+ MPClavierDown()</text>
<text text-anchor="start" x="180" y="-233.5" font-family="Helvetica,sans-Serif" font-size="10.00">+ MPClavierUp()</text>
<text text-anchor="start" x="180" y="-222.5" font-family="Helvetica,sans-Serif" font-size="10.00">+ SPClavierDown()</text>
<text text-anchor="start" x="180" y="-211.5" font-family="Helvetica,sans-Serif" font-size="10.00">+ SPClavierUp()</text>
<text text-anchor="start" x="180" y="-200.5" font-family="Helvetica,sans-Serif" font-size="10.00">+ actionsMenu()</text>
<text text-anchor="start" x="180" y="-189.5" font-family="Helvetica,sans-Serif" font-size="10.00">+ initPartie()</text>
<text text-anchor="start" x="180" y="-178.5" font-family="Helvetica,sans-Serif" font-size="10.00">+ updatePartie()</text>
<text text-anchor="start" x="180" y="-167.5" font-family="Helvetica,sans-Serif" font-size="10.00">+ quitPartie()</text>
<text text-anchor="start" x="180" y="-156.5" font-family="Helvetica,sans-Serif" font-size="10.00">+ init()</text>
<text text-anchor="start" x="180" y="-145.5" font-family="Helvetica,sans-Serif" font-size="10.00">+ update()</text>
<text text-anchor="start" x="180" y="-134.5" font-family="Helvetica,sans-Serif" font-size="10.00">+ quit()</text>
</a>
</g>
</g>
<!-- Node2&#45;&gt;Node1 -->
<g id="edge1" class="edge">
<title>Node2&#45;&gt;Node1</title>
<path fill="none" stroke="#404040" d="M231,-127.48C231,-115.3 231,-103.13 231,-91.94"/>
<polygon fill="none" stroke="#404040" points="231,-91.76 227,-85.76 231,-79.76 235,-85.76 231,-91.76"/>
<text text-anchor="middle" x="244" y="-101" font-family="Helvetica,sans-Serif" font-size="10.00"> +Jtxt</text>
</g>
<!-- Node3 -->
<g id="node3" class="node">
<title>Node3</title>
<g id="a_node3"><a xlink:href="classterrain.html" target="_top" xlink:title=" ">
<polygon fill="white" stroke="black" points="0,-616.5 0,-772.5 80,-772.5 80,-616.5 0,-616.5"/>
<text text-anchor="middle" x="40" y="-760.5" font-family="Helvetica,sans-Serif" font-size="10.00">terrain</text>
<polyline fill="none" stroke="black" points="0,-753.5 80,-753.5 "/>
<text text-anchor="start" x="8" y="-741.5" font-family="Helvetica,sans-Serif" font-size="10.00">&#45; dimx</text>
<text text-anchor="start" x="8" y="-730.5" font-family="Helvetica,sans-Serif" font-size="10.00">&#45; dimy</text>
<text text-anchor="start" x="8" y="-719.5" font-family="Helvetica,sans-Serif" font-size="10.00">&#45; caract</text>
<polyline fill="none" stroke="black" points="0,-712.5 80,-712.5 "/>
<text text-anchor="start" x="8" y="-700.5" font-family="Helvetica,sans-Serif" font-size="10.00">+ terrain()</text>
<text text-anchor="start" x="8" y="-689.5" font-family="Helvetica,sans-Serif" font-size="10.00">+ ~terrain()</text>
<text text-anchor="start" x="8" y="-678.5" font-family="Helvetica,sans-Serif" font-size="10.00">+ posisvalide()</text>
<text text-anchor="start" x="8" y="-667.5" font-family="Helvetica,sans-Serif" font-size="10.00">+ getXY()</text>
<text text-anchor="start" x="8" y="-656.5" font-family="Helvetica,sans-Serif" font-size="10.00">+ getDimx()</text>
<text text-anchor="start" x="8" y="-645.5" font-family="Helvetica,sans-Serif" font-size="10.00">+ getDimy()</text>
<text text-anchor="start" x="8" y="-634.5" font-family="Helvetica,sans-Serif" font-size="10.00">+ setDim()</text>
<text text-anchor="start" x="8" y="-623.5" font-family="Helvetica,sans-Serif" font-size="10.00">+ setCaract()</text>
</a>
</g>
</g>
<!-- Node3&#45;&gt;Node2 -->
<g id="edge2" class="edge">
<title>Node3&#45;&gt;Node2</title>
<path fill="none" stroke="#404040" d="M51.91,-616.17C64.37,-547.59 87.59,-445.89 126,-364 136.51,-341.6 150.54,-319.06 164.92,-298.61"/>
<polygon fill="none" stroke="#404040" points="165,-298.5 165.24,-291.29 171.99,-288.75 171.74,-295.95 165,-298.5"/>
<text text-anchor="middle" x="139" y="-478.5" font-family="Helvetica,sans-Serif" font-size="10.00"> +ter1</text>
</g>
<!-- Node4 -->
<g id="node4" class="node">
<title>Node4</title>
<g id="a_node4"><a xlink:href="classTexture.html" target="_top" xlink:title="class permettant de gerer les textures d&#39;un personnage">
<polygon fill="white" stroke="black" points="157,-1100 157,-1168 221,-1168 221,-1100 157,-1100"/>
<text text-anchor="middle" x="189" y="-1156" font-family="Helvetica,sans-Serif" font-size="10.00">Texture</text>
<polyline fill="none" stroke="black" points="157,-1149 221,-1149 "/>
<text text-anchor="start" x="165" y="-1137" font-family="Helvetica,sans-Serif" font-size="10.00">+ url</text>
<text text-anchor="start" x="165" y="-1126" font-family="Helvetica,sans-Serif" font-size="10.00">+ lettre</text>
<polyline fill="none" stroke="black" points="157,-1119 221,-1119 "/>
<text text-anchor="start" x="165" y="-1107" font-family="Helvetica,sans-Serif" font-size="10.00">+ Texture()</text>
</a>
</g>
</g>
<!-- Node4&#45;&gt;Node3 -->
<g id="edge3" class="edge">
<title>Node4&#45;&gt;Node3</title>
<path fill="none" stroke="#404040" d="M156.8,-1108.23C124.23,-1081.03 75.68,-1034.1 54,-981 28.65,-918.91 26.16,-842.82 29.46,-784.8"/>
<polygon fill="none" stroke="#404040" points="29.47,-784.69 25.87,-778.44 30.25,-772.71 33.85,-778.96 29.47,-784.69"/>
<text text-anchor="middle" x="93.5" y="-1013" font-family="Helvetica,sans-Serif" font-size="10.00"> +tex</text>
</g>
<!-- Node5 -->
<g id="node5" class="node">
<title>Node5</title>
<g id="a_node5"><a xlink:href="classMenu.html" target="_top" xlink:title="permettant de gerer le menu">
<polygon fill="white" stroke="black" points="161,-441.5 161,-520.5 217,-520.5 217,-441.5 161,-441.5"/>
<text text-anchor="middle" x="189" y="-508.5" font-family="Helvetica,sans-Serif" font-size="10.00">Menu</text>
<polyline fill="none" stroke="black" points="161,-501.5 217,-501.5 "/>
<text text-anchor="start" x="169" y="-489.5" font-family="Helvetica,sans-Serif" font-size="10.00">&#45; m_w</text>
<text text-anchor="start" x="169" y="-478.5" font-family="Helvetica,sans-Serif" font-size="10.00">&#45; m_h</text>
<polyline fill="none" stroke="black" points="161,-471.5 217,-471.5 "/>
<text text-anchor="start" x="169" y="-459.5" font-family="Helvetica,sans-Serif" font-size="10.00">+ Menu()</text>
<text text-anchor="start" x="169" y="-448.5" font-family="Helvetica,sans-Serif" font-size="10.00">+ Menu()</text>
</a>
</g>
</g>
<!-- Node4&#45;&gt;Node5 -->
<g id="edge5" class="edge">
<title>Node4&#45;&gt;Node5</title>
<path fill="none" stroke="#404040" d="M189,-1099.82C189,-993.5 189,-660.77 189,-532.83"/>
<polygon fill="none" stroke="#404040" points="189,-532.74 185,-526.74 189,-520.74 193,-526.74 189,-532.74"/>
<text text-anchor="middle" x="200.5" y="-883.5" font-family="Helvetica,sans-Serif" font-size="10.00"> +tex</text>
</g>
<!-- Node6 -->
<g id="node6" class="node">
<title>Node6</title>
<g id="a_node6"><a xlink:href="classBouton.html" target="_top" xlink:title="permettant de gerer les boutons du menu">
<polygon fill="white" stroke="black" points="63.5,-813.5 63.5,-958.5 152.5,-958.5 152.5,-813.5 63.5,-813.5"/>
<text text-anchor="middle" x="108" y="-946.5" font-family="Helvetica,sans-Serif" font-size="10.00">Bouton</text>
<polyline fill="none" stroke="black" points="63.5,-939.5 152.5,-939.5 "/>
<text text-anchor="start" x="71.5" y="-927.5" font-family="Helvetica,sans-Serif" font-size="10.00">&#45; b_x</text>
<text text-anchor="start" x="71.5" y="-916.5" font-family="Helvetica,sans-Serif" font-size="10.00">&#45; b_y</text>
<text text-anchor="start" x="71.5" y="-905.5" font-family="Helvetica,sans-Serif" font-size="10.00">&#45; b_w</text>
<text text-anchor="start" x="71.5" y="-894.5" font-family="Helvetica,sans-Serif" font-size="10.00">&#45; b_h</text>
<polyline fill="none" stroke="black" points="63.5,-887.5 152.5,-887.5 "/>
<text text-anchor="start" x="71.5" y="-875.5" font-family="Helvetica,sans-Serif" font-size="10.00">+ Bouton()</text>
<text text-anchor="start" x="71.5" y="-864.5" font-family="Helvetica,sans-Serif" font-size="10.00">+ placerBouton()</text>
<text text-anchor="start" x="71.5" y="-853.5" font-family="Helvetica,sans-Serif" font-size="10.00">+ getx()</text>
<text text-anchor="start" x="71.5" y="-842.5" font-family="Helvetica,sans-Serif" font-size="10.00">+ gety()</text>
<text text-anchor="start" x="71.5" y="-831.5" font-family="Helvetica,sans-Serif" font-size="10.00">+ getw()</text>
<text text-anchor="start" x="71.5" y="-820.5" font-family="Helvetica,sans-Serif" font-size="10.00">+ geth()</text>
</a>
</g>
</g>
<!-- Node4&#45;&gt;Node6 -->
<g id="edge7" class="edge">
<title>Node4&#45;&gt;Node6</title>
<path fill="none" stroke="#404040" d="M176.36,-1099.96C168.98,-1080.31 159.64,-1054.84 152,-1032 145.37,-1012.19 138.62,-990.71 132.46,-970.52"/>
<polygon fill="none" stroke="#404040" points="132.39,-970.28 126.82,-965.7 128.91,-958.79 134.48,-963.38 132.39,-970.28"/>
<text text-anchor="middle" x="163.5" y="-1013" font-family="Helvetica,sans-Serif" font-size="10.00"> +tex</text>
</g>
<!-- Node7 -->
<g id="node7" class="node">
<title>Node7</title>
<g id="a_node7"><a xlink:href="classTuiles.html" target="_top" xlink:title=" ">
<polygon fill="white" stroke="black" points="230,-852 230,-920 288,-920 288,-852 230,-852"/>
<text text-anchor="middle" x="259" y="-908" font-family="Helvetica,sans-Serif" font-size="10.00">Tuiles</text>
<polyline fill="none" stroke="black" points="230,-901 288,-901 "/>
<text text-anchor="start" x="238" y="-889" font-family="Helvetica,sans-Serif" font-size="10.00">+ width</text>
<text text-anchor="start" x="238" y="-878" font-family="Helvetica,sans-Serif" font-size="10.00">+ height</text>
<polyline fill="none" stroke="black" points="230,-871 288,-871 "/>
<text text-anchor="start" x="238" y="-859" font-family="Helvetica,sans-Serif" font-size="10.00">+ Tuiles()</text>
</a>
</g>
</g>
<!-- Node4&#45;&gt;Node7 -->
<g id="edge10" class="edge">
<title>Node4&#45;&gt;Node7</title>
<path fill="none" stroke="#404040" d="M198.44,-1099.82C210.79,-1056.42 232.48,-980.21 246.27,-931.73"/>
<polygon fill="none" stroke="#404040" points="246.31,-931.58 244.11,-924.72 249.6,-920.04 251.8,-926.91 246.31,-931.58"/>
<text text-anchor="middle" x="238.5" y="-1013" font-family="Helvetica,sans-Serif" font-size="10.00"> +tex</text>
</g>
<!-- Node9 -->
<g id="node9" class="node">
<title>Node9</title>
<g id="a_node9"><a xlink:href="classPersonnage.html" target="_top" xlink:title="permettant de gerer les caracteristiques d&#39;un personnage">
<polygon fill="white" stroke="black" points="320,-364.5 320,-597.5 442,-597.5 442,-364.5 320,-364.5"/>
<text text-anchor="middle" x="381" y="-585.5" font-family="Helvetica,sans-Serif" font-size="10.00">Personnage</text>
<polyline fill="none" stroke="black" points="320,-578.5 442,-578.5 "/>
<text text-anchor="start" x="328" y="-566.5" font-family="Helvetica,sans-Serif" font-size="10.00">&#45; m_vie</text>
<text text-anchor="start" x="328" y="-555.5" font-family="Helvetica,sans-Serif" font-size="10.00">&#45; m_mana</text>
<polyline fill="none" stroke="black" points="320,-548.5 442,-548.5 "/>
<text text-anchor="start" x="328" y="-536.5" font-family="Helvetica,sans-Serif" font-size="10.00">+ Personnage()</text>
<text text-anchor="start" x="328" y="-525.5" font-family="Helvetica,sans-Serif" font-size="10.00">+ ~Personnage()</text>
<text text-anchor="start" x="328" y="-514.5" font-family="Helvetica,sans-Serif" font-size="10.00">+ bougerAdroite()</text>
<text text-anchor="start" x="328" y="-503.5" font-family="Helvetica,sans-Serif" font-size="10.00">+ bougerAgauche()</text>
<text text-anchor="start" x="328" y="-492.5" font-family="Helvetica,sans-Serif" font-size="10.00">+ sauter()</text>
<text text-anchor="start" x="328" y="-481.5" font-family="Helvetica,sans-Serif" font-size="10.00">+ sauterAdroite()</text>
<text text-anchor="start" x="328" y="-470.5" font-family="Helvetica,sans-Serif" font-size="10.00">+ sauterAgauche()</text>
<text text-anchor="start" x="328" y="-459.5" font-family="Helvetica,sans-Serif" font-size="10.00">+ recevoirDegats()</text>
<text text-anchor="start" x="328" y="-448.5" font-family="Helvetica,sans-Serif" font-size="10.00">+ attaquer()</text>
<text text-anchor="start" x="328" y="-437.5" font-family="Helvetica,sans-Serif" font-size="10.00">+ attaqueUltime()</text>
<text text-anchor="start" x="328" y="-426.5" font-family="Helvetica,sans-Serif" font-size="10.00">+ changerCompetence()</text>
<text text-anchor="start" x="328" y="-415.5" font-family="Helvetica,sans-Serif" font-size="10.00">+ estVivant()</text>
<text text-anchor="start" x="328" y="-404.5" font-family="Helvetica,sans-Serif" font-size="10.00">+ afficherEtat()</text>
<text text-anchor="start" x="328" y="-393.5" font-family="Helvetica,sans-Serif" font-size="10.00">+ getVie()</text>
<text text-anchor="start" x="328" y="-382.5" font-family="Helvetica,sans-Serif" font-size="10.00">+ setVie()</text>
<text text-anchor="start" x="328" y="-371.5" font-family="Helvetica,sans-Serif" font-size="10.00">+ testRegression()</text>
</a>
</g>
</g>
<!-- Node4&#45;&gt;Node9 -->
<g id="edge15" class="edge">
<title>Node4&#45;&gt;Node9</title>
<path fill="none" stroke="#404040" d="M219.42,-1099.77C244.32,-1070.64 278.38,-1026.02 297,-981 304.09,-963.86 338.41,-752 360.93,-609.91"/>
<polygon fill="none" stroke="#404040" points="360.99,-609.52 357.98,-602.97 362.87,-597.67 365.88,-604.22 360.99,-609.52"/>
<text text-anchor="middle" x="343.5" y="-883.5" font-family="Helvetica,sans-Serif" font-size="10.00"> +tex</text>
</g>
<!-- Node5&#45;&gt;Node2 -->
<g id="edge4" class="edge">
<title>Node5&#45;&gt;Node2</title>
<path fill="none" stroke="#404040" d="M192.71,-441.39C195.99,-409.74 201.29,-363.82 208,-324 208.35,-321.95 208.7,-319.88 209.07,-317.79"/>
<polygon fill="none" stroke="#404040" points="209.12,-317.52 206.28,-310.89 211.3,-305.71 214.15,-312.34 209.12,-317.52"/>
<text text-anchor="middle" x="225" y="-332.5" font-family="Helvetica,sans-Serif" font-size="10.00"> +menu</text>
</g>
<!-- Node6&#45;&gt;Node5 -->
<g id="edge6" class="edge">
<title>Node6&#45;&gt;Node5</title>
<path fill="none" stroke="#404040" d="M115.23,-813.35C121.5,-758.82 131.94,-682.14 147,-616 153.42,-587.78 162.92,-556.92 171.26,-531.94"/>
<polygon fill="none" stroke="#404040" points="171.27,-531.91 169.4,-524.94 175.12,-520.54 176.98,-527.51 171.27,-531.91"/>
<text text-anchor="middle" x="161" y="-708.5" font-family="Helvetica,sans-Serif" font-size="10.00"> +son</text>
<text text-anchor="middle" x="161" y="-697.5" font-family="Helvetica,sans-Serif" font-size="10.00">+start</text>
<text text-anchor="middle" x="161" y="-686.5" font-family="Helvetica,sans-Serif" font-size="10.00">+quit</text>
<text text-anchor="middle" x="161" y="-675.5" font-family="Helvetica,sans-Serif" font-size="10.00">+back</text>
</g>
<!-- Node7&#45;&gt;Node2 -->
<g id="edge8" class="edge">
<title>Node7&#45;&gt;Node2</title>
<path fill="none" stroke="#404040" d="M258.83,-851.76C258.22,-764.91 255.34,-524.04 242,-324 241.86,-321.93 241.71,-319.83 241.56,-317.72"/>
<polygon fill="none" stroke="#404040" points="241.54,-317.47 237.08,-311.8 240.59,-305.5 245.05,-311.17 241.54,-317.47"/>
<text text-anchor="middle" x="269" y="-478.5" font-family="Helvetica,sans-Serif" font-size="10.00"> +tuile</text>
</g>
<!-- Node8 -->
<g id="node8" class="node">
<title>Node8</title>
<g id="a_node8"><a xlink:href="classVector2D.html" target="_top" xlink:title="class permettant de gerer des vecteurs">
<polygon fill="white" stroke="black" points="340.5,-1050.5 340.5,-1217.5 419.5,-1217.5 419.5,-1050.5 340.5,-1050.5"/>
<text text-anchor="middle" x="380" y="-1205.5" font-family="Helvetica,sans-Serif" font-size="10.00">Vector2D</text>
<polyline fill="none" stroke="black" points="340.5,-1198.5 419.5,-1198.5 "/>
<text text-anchor="start" x="348.5" y="-1186.5" font-family="Helvetica,sans-Serif" font-size="10.00">&#45; x</text>
<text text-anchor="start" x="348.5" y="-1175.5" font-family="Helvetica,sans-Serif" font-size="10.00">&#45; y</text>
<polyline fill="none" stroke="black" points="340.5,-1168.5 419.5,-1168.5 "/>
<text text-anchor="start" x="348.5" y="-1156.5" font-family="Helvetica,sans-Serif" font-size="10.00">+ Vector2D()</text>
<text text-anchor="start" x="348.5" y="-1145.5" font-family="Helvetica,sans-Serif" font-size="10.00">+ Vector2D()</text>
<text text-anchor="start" x="348.5" y="-1134.5" font-family="Helvetica,sans-Serif" font-size="10.00">+ ~Vector2D()</text>
<text text-anchor="start" x="348.5" y="-1123.5" font-family="Helvetica,sans-Serif" font-size="10.00">+ operator+()</text>
<text text-anchor="start" x="348.5" y="-1112.5" font-family="Helvetica,sans-Serif" font-size="10.00">+ operator=()</text>
<text text-anchor="start" x="348.5" y="-1101.5" font-family="Helvetica,sans-Serif" font-size="10.00">+ operator+=()</text>
<text text-anchor="start" x="348.5" y="-1090.5" font-family="Helvetica,sans-Serif" font-size="10.00">+ getx()</text>
<text text-anchor="start" x="348.5" y="-1079.5" font-family="Helvetica,sans-Serif" font-size="10.00">+ gety()</text>
<text text-anchor="start" x="348.5" y="-1068.5" font-family="Helvetica,sans-Serif" font-size="10.00">+ setx()</text>
<text text-anchor="start" x="348.5" y="-1057.5" font-family="Helvetica,sans-Serif" font-size="10.00">+ sety()</text>
</a>
</g>
</g>
<!-- Node8&#45;&gt;Node7 -->
<g id="edge9" class="edge">
<title>Node8&#45;&gt;Node7</title>
<path fill="none" stroke="#404040" d="M340.44,-1057.57C327.92,-1033.24 314.17,-1006.09 302,-981 294.19,-964.89 285.93,-947.06 278.77,-931.29"/>
<polygon fill="none" stroke="#404040" points="278.71,-931.17 272.59,-927.35 273.76,-920.23 279.88,-924.05 278.71,-931.17"/>
<text text-anchor="middle" x="340.5" y="-1013" font-family="Helvetica,sans-Serif" font-size="10.00"> +pos</text>
</g>
<!-- Node13 -->
<g id="node13" class="node">
<title>Node13</title>
<g id="a_node13"><a xlink:href="classPhysic.html" target="_top" xlink:title="permettant de gerer les caracteristiques physique d&#39;un joueur">
<polygon fill="white" stroke="black" points="366,-791.5 366,-980.5 434,-980.5 434,-791.5 366,-791.5"/>
<text text-anchor="middle" x="400" y="-968.5" font-family="Helvetica,sans-Serif" font-size="10.00">Physic</text>
<polyline fill="none" stroke="black" points="366,-961.5 434,-961.5 "/>
<text text-anchor="middle" x="400" y="-949.5" font-family="Helvetica,sans-Serif" font-size="10.00"> </text>
<polyline fill="none" stroke="black" points="366,-942.5 434,-942.5 "/>
<text text-anchor="start" x="374" y="-930.5" font-family="Helvetica,sans-Serif" font-size="10.00">+ Physic()</text>
<text text-anchor="start" x="374" y="-919.5" font-family="Helvetica,sans-Serif" font-size="10.00">+ ~Physic()</text>
<text text-anchor="start" x="374" y="-908.5" font-family="Helvetica,sans-Serif" font-size="10.00">+ getPos()</text>
<text text-anchor="start" x="374" y="-897.5" font-family="Helvetica,sans-Serif" font-size="10.00">+ getPosx()</text>
<text text-anchor="start" x="374" y="-886.5" font-family="Helvetica,sans-Serif" font-size="10.00">+ getPosy()</text>
<text text-anchor="start" x="374" y="-875.5" font-family="Helvetica,sans-Serif" font-size="10.00">+ setPos()</text>
<text text-anchor="start" x="374" y="-864.5" font-family="Helvetica,sans-Serif" font-size="10.00">+ setPosx()</text>
<text text-anchor="start" x="374" y="-853.5" font-family="Helvetica,sans-Serif" font-size="10.00">+ setPosy()</text>
<text text-anchor="start" x="374" y="-842.5" font-family="Helvetica,sans-Serif" font-size="10.00">+ getVit()</text>
<text text-anchor="start" x="374" y="-831.5" font-family="Helvetica,sans-Serif" font-size="10.00">+ setVit()</text>
<text text-anchor="start" x="374" y="-820.5" font-family="Helvetica,sans-Serif" font-size="10.00">+ setVitx()</text>
<text text-anchor="start" x="374" y="-809.5" font-family="Helvetica,sans-Serif" font-size="10.00">+ setVity()</text>
<text text-anchor="start" x="374" y="-798.5" font-family="Helvetica,sans-Serif" font-size="10.00">+ ticks()</text>
</a>
</g>
</g>
<!-- Node8&#45;&gt;Node13 -->
<g id="edge17" class="edge">
<title>Node8&#45;&gt;Node13</title>
<path fill="none" stroke="#404040" d="M386.72,-1050.4C388.21,-1031.99 389.82,-1012.23 391.38,-993.03"/>
<polygon fill="none" stroke="#404040" points="391.4,-992.8 387.9,-986.49 392.37,-980.84 395.87,-987.14 391.4,-992.8"/>
<text text-anchor="middle" x="427.5" y="-1024" font-family="Helvetica,sans-Serif" font-size="10.00"> &#45;m_acceleration</text>
<text text-anchor="middle" x="427.5" y="-1013" font-family="Helvetica,sans-Serif" font-size="10.00">&#45;m_position</text>
<text text-anchor="middle" x="427.5" y="-1002" font-family="Helvetica,sans-Serif" font-size="10.00">&#45;m_vitesse</text>
</g>
<!-- Node9&#45;&gt;Node2 -->
<g id="edge11" class="edge">
<title>Node9&#45;&gt;Node2</title>
<path fill="none" stroke="#404040" d="M319.99,-373.23C309.23,-354.4 298.06,-334.86 287.43,-316.26"/>
<polygon fill="none" stroke="#404040" points="287.37,-316.15 280.92,-312.92 281.42,-305.73 287.87,-308.96 287.37,-316.15"/>
<text text-anchor="middle" x="313.5" y="-338" font-family="Helvetica,sans-Serif" font-size="10.00"> +SP</text>
<text text-anchor="middle" x="313.5" y="-327" font-family="Helvetica,sans-Serif" font-size="10.00">+MP</text>
</g>
<!-- Node10 -->
<g id="node10" class="node">
<title>Node10</title>
<g id="a_node10"><a xlink:href="classCompetence.html" target="_top" xlink:title=" ">
<polygon fill="white" stroke="black" points="453.5,-830 453.5,-942 546.5,-942 546.5,-830 453.5,-830"/>
<text text-anchor="middle" x="500" y="-930" font-family="Helvetica,sans-Serif" font-size="10.00">Competence</text>
<polyline fill="none" stroke="black" points="453.5,-923 546.5,-923 "/>
<text text-anchor="start" x="461.5" y="-911" font-family="Helvetica,sans-Serif" font-size="10.00">&#45; m_degats</text>
<polyline fill="none" stroke="black" points="453.5,-904 546.5,-904 "/>
<text text-anchor="start" x="461.5" y="-892" font-family="Helvetica,sans-Serif" font-size="10.00">+ Competence()</text>
<text text-anchor="start" x="461.5" y="-881" font-family="Helvetica,sans-Serif" font-size="10.00">+ Competence()</text>
<text text-anchor="start" x="461.5" y="-870" font-family="Helvetica,sans-Serif" font-size="10.00">+ changer()</text>
<text text-anchor="start" x="461.5" y="-859" font-family="Helvetica,sans-Serif" font-size="10.00">+ afficher()</text>
<text text-anchor="start" x="461.5" y="-848" font-family="Helvetica,sans-Serif" font-size="10.00">+ getDegats()</text>
<text text-anchor="start" x="461.5" y="-837" font-family="Helvetica,sans-Serif" font-size="10.00">+ ~Competence()</text>
</a>
</g>
</g>
<!-- Node10&#45;&gt;Node9 -->
<g id="edge12" class="edge">
<title>Node10&#45;&gt;Node9</title>
<path fill="none" stroke="#404040" d="M485.06,-829.97C470.13,-775.48 446.25,-689.76 424,-616 423.35,-613.86 422.7,-611.69 422.04,-609.52"/>
<polygon fill="none" stroke="#404040" points="421.95,-609.24 416.37,-604.68 418.43,-597.77 424.01,-602.33 421.95,-609.24"/>
<text text-anchor="middle" x="505.5" y="-692" font-family="Helvetica,sans-Serif" font-size="10.00"> &#45;m_competence</text>
</g>
<!-- Node11 -->
<g id="node11" class="node">
<title>Node11</title>
<g id="a_node11"><a xlink:title="STL class.">
<polygon fill="white" stroke="#bfbfbf" points="470,-1105.5 470,-1162.5 530,-1162.5 530,-1105.5 470,-1105.5"/>
<text text-anchor="middle" x="500" y="-1150.5" font-family="Helvetica,sans-Serif" font-size="10.00">std::string</text>
<polyline fill="none" stroke="#bfbfbf" points="470,-1143.5 530,-1143.5 "/>
<text text-anchor="middle" x="500" y="-1131.5" font-family="Helvetica,sans-Serif" font-size="10.00"> </text>
<polyline fill="none" stroke="#bfbfbf" points="470,-1124.5 530,-1124.5 "/>
<text text-anchor="middle" x="500" y="-1112.5" font-family="Helvetica,sans-Serif" font-size="10.00"> </text>
</a>
</g>
</g>
<!-- Node11&#45;&gt;Node10 -->
<g id="edge13" class="edge">
<title>Node11&#45;&gt;Node10</title>
<path fill="none" stroke="#404040" d="M500,-1105.26C500,-1069 500,-1004.29 500,-954.71"/>
<polygon fill="none" stroke="#404040" points="500,-954.46 496,-948.46 500,-942.46 504,-948.46 500,-954.46"/>
<text text-anchor="middle" x="519.5" y="-1013" font-family="Helvetica,sans-Serif" font-size="10.00"> &#45;m_nom</text>
</g>
<!-- Node12 -->
<g id="node12" class="node">
<title>Node12</title>
<g id="a_node12"><a xlink:title="STL class.">
<polygon fill="white" stroke="#bfbfbf" points="452.5,-1255.5 452.5,-1323.5 547.5,-1323.5 547.5,-1255.5 452.5,-1255.5"/>
<text text-anchor="start" x="460.5" y="-1311.5" font-family="Helvetica,sans-Serif" font-size="10.00">std::basic_string&lt;</text>
<text text-anchor="middle" x="500" y="-1300.5" font-family="Helvetica,sans-Serif" font-size="10.00"> char &gt;</text>
<polyline fill="none" stroke="#bfbfbf" points="452.5,-1293.5 547.5,-1293.5 "/>
<text text-anchor="middle" x="500" y="-1281.5" font-family="Helvetica,sans-Serif" font-size="10.00"> </text>
<polyline fill="none" stroke="#bfbfbf" points="452.5,-1274.5 547.5,-1274.5 "/>
<text text-anchor="middle" x="500" y="-1262.5" font-family="Helvetica,sans-Serif" font-size="10.00"> </text>
</a>
</g>
</g>
<!-- Node12&#45;&gt;Node11 -->
<g id="edge14" class="edge">
<title>Node12&#45;&gt;Node11</title>
<path fill="none" stroke="midnightblue" d="M500,-1245.03C500,-1218.56 500,-1185.53 500,-1162.6"/>
<polygon fill="none" stroke="midnightblue" points="496.5,-1245.19 500,-1255.19 503.5,-1245.19 496.5,-1245.19"/>
</g>
<!-- Node13&#45;&gt;Node9 -->
<g id="edge16" class="edge">
<title>Node13&#45;&gt;Node9</title>
<path fill="none" stroke="#404040" d="M395.58,-791.28C393.03,-737.21 389.79,-668.48 387.01,-609.55"/>
<polygon fill="none" stroke="#404040" points="387.01,-609.5 382.73,-603.7 386.45,-597.51 390.72,-603.32 387.01,-609.5"/>
<text text-anchor="middle" x="407.5" y="-692" font-family="Helvetica,sans-Serif" font-size="10.00"> +phy</text>
</g>
</g>
</svg>
        <g id="navigator" transform="translate(0 0)" fill="#404254">
                <rect fill="#f2f5e9" fill-opacity="0.5" stroke="#606060" stroke-width=".5" x="0" y="0" width="60" height="60"/>
                <use id="zoomplus" xlink:href="#zoomPlus" x="17" y="9" onmousedown="handleZoom(evt,'in')"/>
                <use id="zoomminus" xlink:href="#zoomMin" x="42" y="9" onmousedown="handleZoom(evt,'out')"/>
                <use id="reset" xlink:href="#resetDef" x="30" y="36" onmousedown="handleReset()"/>
                <g id="arrowUp" xlink:href="#dirArrow" transform="translate(30 24)" onmousedown="handlePan(0,-1)">
                  <use xlink:href="#rim" fill="#404040">
                        <set attributeName="fill" to="#808080" begin="arrowUp.mouseover" end="arrowUp.mouseout"/>
                  </use>
                  <path fill="none" stroke="white" stroke-width="1.5" d="M0,-3.0v7 M-2.5,-0.5L0,-3.0L2.5,-0.5"/>
                </g>
                <g id="arrowRight" xlink:href="#dirArrow" transform="rotate(90) translate(36 -43)" onmousedown="handlePan(1,0)">
                  <use xlink:href="#rim" fill="#404040">
                        <set attributeName="fill" to="#808080" begin="arrowRight.mouseover" end="arrowRight.mouseout"/>
                  </use>
                  <path fill="none" stroke="white" stroke-width="1.5" d="M0,-3.0v7 M-2.5,-0.5L0,-3.0L2.5,-0.5"/>
                </g>
                <g id="arrowDown" xlink:href="#dirArrow" transform="rotate(180) translate(-30 -48)" onmousedown="handlePan(0,1)">
                  <use xlink:href="#rim" fill="#404040">
                        <set attributeName="fill" to="#808080" begin="arrowDown.mouseover" end="arrowDown.mouseout"/>
                  </use>
                  <path fill="none" stroke="white" stroke-width="1.5" d="M0,-3.0v7 M-2.5,-0.5L0,-3.0L2.5,-0.5"/>
                </g>
                <g id="arrowLeft" xlink:href="#dirArrow" transform="rotate(270) translate(-36 17)" onmousedown="handlePan(-1,0)">
                  <use xlink:href="#rim" fill="#404040">
                        <set attributeName="fill" to="#808080" begin="arrowLeft.mouseover" end="arrowLeft.mouseout"/>
                  </use>
                  <path fill="none" stroke="white" stroke-width="1.5" d="M0,-3.0v7 M-2.5,-0.5L0,-3.0L2.5,-0.5"/>
                </g>
        </g>
        <svg viewBox="0 0 15 15" width="100%" height="30px" preserveAspectRatio="xMaxYMin meet">
         <g id="arrow_out" transform="scale(0.3 0.3)">
          <a xlink:href="classJeuTxt__coll__graph_org.svg" target="_base">
           <rect id="button" ry="5" rx="5" y="6" x="6" height="38" width="38"
                fill="#f2f5e9" fill-opacity="0.5" stroke="#606060" stroke-width="1.0"/>
           <path id="arrow"
             d="M 11.500037,31.436501 C 11.940474,20.09759 22.043105,11.32322 32.158766,21.979434 L 37.068811,17.246167 C 37.068811,17.246167 37.088388,32 37.088388,32 L 22.160133,31.978069 C 22.160133,31.978069 26.997745,27.140456 26.997745,27.140456 C 18.528582,18.264221 13.291696,25.230495 11.500037,31.436501 z"
             style="fill:#404040;"/>
          </a>
         </g>
        </svg>
</svg>
