<?xml version="1.0" encoding="UTF-8" standalone="no"?>
<!DOCTYPE svg PUBLIC "-//W3C//DTD SVG 1.1//EN"
 "http://www.w3.org/Graphics/SVG/1.1/DTD/svg11.dtd">
<!-- Generated by graphviz version 2.43.0 (0)
 -->
<!-- Title: Tuiles Pages: 1 -->
<svg width="170pt" height="292pt"
 viewBox="0.00 0.00 169.50 292.00" xmlns="http://www.w3.org/2000/svg" xmlns:xlink="http://www.w3.org/1999/xlink">
<g id="graph0" class="graph" transform="scale(1 1) rotate(0) translate(4 288)">
<title>Tuiles</title>
<polygon fill="white" stroke="transparent" points="-4,4 -4,-288 165.5,-288 165.5,4 -4,4"/>
<!-- Node1 -->
<g id="node1" class="node">
<title>Node1</title>
<g id="a_node1"><a xlink:title=" ">
<polygon fill="#bfbfbf" stroke="black" points="55.5,-0.5 55.5,-68.5 113.5,-68.5 113.5,-0.5 55.5,-0.5"/>
<text text-anchor="middle" x="84.5" y="-56.5" font-family="Helvetica,sans-Serif" font-size="10.00">Tuiles</text>
<polyline fill="none" stroke="black" points="55.5,-49.5 113.5,-49.5 "/>
<text text-anchor="start" x="63.5" y="-37.5" font-family="Helvetica,sans-Serif" font-size="10.00">+ width</text>
<text text-anchor="start" x="63.5" y="-26.5" font-family="Helvetica,sans-Serif" font-size="10.00">+ height</text>
<polyline fill="none" stroke="black" points="55.5,-19.5 113.5,-19.5 "/>
<text text-anchor="start" x="63.5" y="-7.5" font-family="Helvetica,sans-Serif" font-size="10.00">+ Tuiles()</text>
</a>
</g>
</g>
<!-- Node2 -->
<g id="node2" class="node">
<title>Node2</title>
<g id="a_node2"><a xlink:href="classVector2D.html" target="_top" xlink:title="class permettant de gerer des vecteurs">
<polygon fill="white" stroke="black" points="0,-116.5 0,-283.5 79,-283.5 79,-116.5 0,-116.5"/>
<text text-anchor="middle" x="39.5" y="-271.5" font-family="Helvetica,sans-Serif" font-size="10.00">Vector2D</text>
<polyline fill="none" stroke="black" points="0,-264.5 79,-264.5 "/>
<text text-anchor="start" x="8" y="-252.5" font-family="Helvetica,sans-Serif" font-size="10.00">&#45; x</text>
<text text-anchor="start" x="8" y="-241.5" font-family="Helvetica,sans-Serif" font-size="10.00">&#45; y</text>
<polyline fill="none" stroke="black" points="0,-234.5 79,-234.5 "/>
<text text-anchor="start" x="8" y="-222.5" font-family="Helvetica,sans-Serif" font-size="10.00">+ Vector2D()</text>
<text text-anchor="start" x="8" y="-211.5" font-family="Helvetica,sans-Serif" font-size="10.00">+ Vector2D()</text>
<text text-anchor="start" x="8" y="-200.5" font-family="Helvetica,sans-Serif" font-size="10.00">+ ~Vector2D()</text>
<text text-anchor="start" x="8" y="-189.5" font-family="Helvetica,sans-Serif" font-size="10.00">+ operator+()</text>
<text text-anchor="start" x="8" y="-178.5" font-family="Helvetica,sans-Serif" font-size="10.00">+ operator=()</text>
<text text-anchor="start" x="8" y="-167.5" font-family="Helvetica,sans-Serif" font-size="10.00">+ operator+=()</text>
<text text-anchor="start" x="8" y="-156.5" font-family="Helvetica,sans-Serif" font-size="10.00">+ getx()</text>
<text text-anchor="start" x="8" y="-145.5" font-family="Helvetica,sans-Serif" font-size="10.00">+ gety()</text>
<text text-anchor="start" x="8" y="-134.5" font-family="Helvetica,sans-Serif" font-size="10.00">+ setx()</text>
<text text-anchor="start" x="8" y="-123.5" font-family="Helvetica,sans-Serif" font-size="10.00">+ sety()</text>
</a>
</g>
</g>
<!-- Node2&#45;&gt;Node1 -->
<g id="edge1" class="edge">
<title>Node2&#45;&gt;Node1</title>
<path fill="none" stroke="#404040" d="M62.26,-116.29C65.69,-103.84 69.11,-91.43 72.2,-80.19"/>
<polygon fill="none" stroke="#404040" points="72.23,-80.09 69.96,-73.25 75.41,-68.52 77.68,-75.37 72.23,-80.09"/>
<text text-anchor="middle" x="83" y="-90" font-family="Helvetica,sans-Serif" font-size="10.00"> +pos</text>
</g>
<!-- Node3 -->
<g id="node3" class="node">
<title>Node3</title>
<g id="a_node3"><a xlink:href="classTexture.html" target="_top" xlink:title="class permettant de gerer les textures d&#39;un personnage">
<polygon fill="white" stroke="black" points="97.5,-166 97.5,-234 161.5,-234 161.5,-166 97.5,-166"/>
<text text-anchor="middle" x="129.5" y="-222" font-family="Helvetica,sans-Serif" font-size="10.00">Texture</text>
<polyline fill="none" stroke="black" points="97.5,-215 161.5,-215 "/>
<text text-anchor="start" x="105.5" y="-203" font-family="Helvetica,sans-Serif" font-size="10.00">+ url</text>
<text text-anchor="start" x="105.5" y="-192" font-family="Helvetica,sans-Serif" font-size="10.00">+ lettre</text>
<polyline fill="none" stroke="black" points="97.5,-185 161.5,-185 "/>
<text text-anchor="start" x="105.5" y="-173" font-family="Helvetica,sans-Serif" font-size="10.00">+ Texture()</text>
</a>
</g>
</g>
<!-- Node3&#45;&gt;Node1 -->
<g id="edge2" class="edge">
<title>Node3&#45;&gt;Node1</title>
<path fill="none" stroke="#404040" d="M120.76,-165.62C114.88,-143.33 106.87,-113.37 99.5,-87 98.91,-84.87 98.29,-82.7 97.67,-80.5"/>
<polygon fill="none" stroke="#404040" points="97.6,-80.25 92.1,-75.58 94.29,-68.71 99.79,-73.38 97.6,-80.25"/>
<text text-anchor="middle" x="113" y="-90" font-family="Helvetica,sans-Serif" font-size="10.00"> +tex</text>
</g>
</g>
</svg>
