<?xml version="1.0" encoding="UTF-8" standalone="no"?>
<!DOCTYPE svg PUBLIC "-//W3C//DTD SVG 1.1//EN"
 "http://www.w3.org/Graphics/SVG/1.1/DTD/svg11.dtd">
<!-- Generated by graphviz version 2.43.0 (0)
 -->
<!-- Title: src/Competence.cpp Pages: 1 -->
<svg width="382pt" height="140pt"
 viewBox="0.00 0.00 382.00 140.00" xmlns="http://www.w3.org/2000/svg" xmlns:xlink="http://www.w3.org/1999/xlink">
<g id="graph0" class="graph" transform="scale(1 1) rotate(0) translate(4 136)">
<title>src/Competence.cpp</title>
<polygon fill="white" stroke="transparent" points="-4,4 -4,-136 378,-136 378,4 -4,4"/>
<!-- Node1 -->
<g id="node1" class="node">
<title>Node1</title>
<g id="a_node1"><a xlink:title=" ">
<polygon fill="#bfbfbf" stroke="black" points="133.5,-112.5 133.5,-131.5 240.5,-131.5 240.5,-112.5 133.5,-112.5"/>
<text text-anchor="middle" x="187" y="-119.5" font-family="Helvetica,sans-Serif" font-size="10.00">src/Competence.cpp</text>
</a>
</g>
</g>
<!-- Node2 -->
<g id="node2" class="node">
<title>Node2</title>
<g id="a_node2"><a xlink:href="Competence_8h.html" target="_top" xlink:title="fichier de déclaration de la class competance">
<polygon fill="white" stroke="black" points="147,-56.5 147,-75.5 227,-75.5 227,-56.5 147,-56.5"/>
<text text-anchor="middle" x="187" y="-63.5" font-family="Helvetica,sans-Serif" font-size="10.00">Competence.h</text>
</a>
</g>
</g>
<!-- Node1&#45;&gt;Node2 -->
<g id="edge1" class="edge">
<title>Node1&#45;&gt;Node2</title>
<path fill="none" stroke="midnightblue" d="M187,-112.08C187,-105.01 187,-94.86 187,-85.99"/>
<polygon fill="midnightblue" stroke="midnightblue" points="190.5,-85.75 187,-75.75 183.5,-85.75 190.5,-85.75"/>
</g>
<!-- Node3 -->
<g id="node3" class="node">
<title>Node3</title>
<g id="a_node3"><a xlink:title=" ">
<polygon fill="white" stroke="#bfbfbf" points="0,-0.5 0,-19.5 54,-19.5 54,-0.5 0,-0.5"/>
<text text-anchor="middle" x="27" y="-7.5" font-family="Helvetica,sans-Serif" font-size="10.00">iostream</text>
</a>
</g>
</g>
<!-- Node2&#45;&gt;Node3 -->
<g id="edge2" class="edge">
<title>Node2&#45;&gt;Node3</title>
<path fill="none" stroke="midnightblue" d="M161.65,-56.44C134.73,-47.36 92,-32.94 61.91,-22.78"/>
<polygon fill="midnightblue" stroke="midnightblue" points="62.83,-19.4 52.23,-19.52 60.59,-26.03 62.83,-19.4"/>
</g>
<!-- Node4 -->
<g id="node4" class="node">
<title>Node4</title>
<g id="a_node4"><a xlink:title=" ">
<polygon fill="white" stroke="#bfbfbf" points="72.5,-0.5 72.5,-19.5 113.5,-19.5 113.5,-0.5 72.5,-0.5"/>
<text text-anchor="middle" x="93" y="-7.5" font-family="Helvetica,sans-Serif" font-size="10.00">string</text>
</a>
</g>
</g>
<!-- Node2&#45;&gt;Node4 -->
<g id="edge3" class="edge">
<title>Node2&#45;&gt;Node4</title>
<path fill="none" stroke="midnightblue" d="M171.9,-56.32C157.1,-47.82 134.31,-34.73 117.02,-24.8"/>
<polygon fill="midnightblue" stroke="midnightblue" points="118.48,-21.6 108.07,-19.65 114.99,-27.67 118.48,-21.6"/>
</g>
<!-- Node5 -->
<g id="node5" class="node">
<title>Node5</title>
<g id="a_node5"><a xlink:title=" ">
<polygon fill="white" stroke="#bfbfbf" points="132,-0.5 132,-19.5 178,-19.5 178,-0.5 132,-0.5"/>
<text text-anchor="middle" x="155" y="-7.5" font-family="Helvetica,sans-Serif" font-size="10.00">stdio.h</text>
</a>
</g>
</g>
<!-- Node2&#45;&gt;Node5 -->
<g id="edge4" class="edge">
<title>Node2&#45;&gt;Node5</title>
<path fill="none" stroke="midnightblue" d="M181.72,-56.08C177.29,-48.61 170.84,-37.72 165.38,-28.52"/>
<polygon fill="midnightblue" stroke="midnightblue" points="168.29,-26.57 160.19,-19.75 162.27,-30.14 168.29,-26.57"/>
</g>
<!-- Node6 -->
<g id="node6" class="node">
<title>Node6</title>
<g id="a_node6"><a xlink:title=" ">
<polygon fill="white" stroke="#bfbfbf" points="196,-0.5 196,-19.5 244,-19.5 244,-0.5 196,-0.5"/>
<text text-anchor="middle" x="220" y="-7.5" font-family="Helvetica,sans-Serif" font-size="10.00">stdlib.h</text>
</a>
</g>
</g>
<!-- Node2&#45;&gt;Node6 -->
<g id="edge5" class="edge">
<title>Node2&#45;&gt;Node6</title>
<path fill="none" stroke="midnightblue" d="M192.45,-56.08C197.01,-48.61 203.67,-37.72 209.29,-28.52"/>
<polygon fill="midnightblue" stroke="midnightblue" points="212.42,-30.11 214.65,-19.75 206.45,-26.46 212.42,-30.11"/>
</g>
<!-- Node7 -->
<g id="node7" class="node">
<title>Node7</title>
<g id="a_node7"><a xlink:title=" ">
<polygon fill="white" stroke="#bfbfbf" points="262.5,-0.5 262.5,-19.5 311.5,-19.5 311.5,-0.5 262.5,-0.5"/>
<text text-anchor="middle" x="287" y="-7.5" font-family="Helvetica,sans-Serif" font-size="10.00">cassert</text>
</a>
</g>
</g>
<!-- Node2&#45;&gt;Node7 -->
<g id="edge6" class="edge">
<title>Node2&#45;&gt;Node7</title>
<path fill="none" stroke="midnightblue" d="M203.07,-56.32C218.96,-47.74 243.51,-34.49 261.96,-24.52"/>
<polygon fill="midnightblue" stroke="midnightblue" points="263.84,-27.49 270.97,-19.65 260.51,-21.33 263.84,-27.49"/>
</g>
<!-- Node8 -->
<g id="node8" class="node">
<title>Node8</title>
<g id="a_node8"><a xlink:title=" ">
<polygon fill="white" stroke="#bfbfbf" points="330,-0.5 330,-19.5 374,-19.5 374,-0.5 330,-0.5"/>
<text text-anchor="middle" x="352" y="-7.5" font-family="Helvetica,sans-Serif" font-size="10.00">time.h</text>
</a>
</g>
</g>
<!-- Node2&#45;&gt;Node8 -->
<g id="edge7" class="edge">
<title>Node2&#45;&gt;Node8</title>
<path fill="none" stroke="midnightblue" d="M213.14,-56.44C242.25,-46.92 289.29,-31.52 320.43,-21.33"/>
<polygon fill="midnightblue" stroke="midnightblue" points="321.52,-24.66 329.94,-18.22 319.35,-18 321.52,-24.66"/>
</g>
</g>
</svg>
