<?xml version="1.0" encoding="UTF-8" standalone="no"?>
<!DOCTYPE svg PUBLIC "-//W3C//DTD SVG 1.1//EN"
 "http://www.w3.org/Graphics/SVG/1.1/DTD/svg11.dtd">
<!-- Generated by graphviz version 2.43.0 (0)
 -->
<!-- Title: src/Competence.h Pages: 1 -->
<svg width="480pt" height="252pt"
 viewBox="0.00 0.00 479.50 252.00" xmlns="http://www.w3.org/2000/svg" xmlns:xlink="http://www.w3.org/1999/xlink">
<g id="graph0" class="graph" transform="scale(1 1) rotate(0) translate(4 248)">
<title>src/Competence.h</title>
<polygon fill="white" stroke="transparent" points="-4,4 -4,-248 475.5,-248 475.5,4 -4,4"/>
<!-- Node1 -->
<g id="node1" class="node">
<title>Node1</title>
<g id="a_node1"><a xlink:title="fichier de déclaration de la class competance">
<polygon fill="#bfbfbf" stroke="black" points="173,-224.5 173,-243.5 270,-243.5 270,-224.5 173,-224.5"/>
<text text-anchor="middle" x="221.5" y="-231.5" font-family="Helvetica,sans-Serif" font-size="10.00">src/Competence.h</text>
</a>
</g>
</g>
<!-- Node2 -->
<g id="node2" class="node">
<title>Node2</title>
<g id="a_node2"><a xlink:href="Competence_8cpp.html" target="_top" xlink:title=" ">
<polygon fill="white" stroke="black" points="109,-168.5 109,-187.5 216,-187.5 216,-168.5 109,-168.5"/>
<text text-anchor="middle" x="162.5" y="-175.5" font-family="Helvetica,sans-Serif" font-size="10.00">src/Competence.cpp</text>
</a>
</g>
</g>
<!-- Node1&#45;&gt;Node2 -->
<g id="edge1" class="edge">
<title>Node1&#45;&gt;Node2</title>
<path fill="none" stroke="midnightblue" d="M204.61,-217.54C194.09,-207.91 180.93,-195.87 172.15,-187.83"/>
<polygon fill="midnightblue" stroke="midnightblue" points="202.28,-220.15 212.02,-224.32 207.01,-214.99 202.28,-220.15"/>
</g>
<!-- Node3 -->
<g id="node3" class="node">
<title>Node3</title>
<g id="a_node3"><a xlink:href="Personnage_8h.html" target="_top" xlink:title="fichier de déclaration de la class Personnage">
<polygon fill="white" stroke="black" points="234,-168.5 234,-187.5 327,-187.5 327,-168.5 234,-168.5"/>
<text text-anchor="middle" x="280.5" y="-175.5" font-family="Helvetica,sans-Serif" font-size="10.00">src/Personnage.h</text>
</a>
</g>
</g>
<!-- Node1&#45;&gt;Node3 -->
<g id="edge2" class="edge">
<title>Node1&#45;&gt;Node3</title>
<path fill="none" stroke="midnightblue" d="M238.39,-217.54C248.91,-207.91 262.07,-195.87 270.85,-187.83"/>
<polygon fill="midnightblue" stroke="midnightblue" points="235.99,-214.99 230.98,-224.32 240.72,-220.15 235.99,-214.99"/>
</g>
<!-- Node4 -->
<g id="node4" class="node">
<title>Node4</title>
<g id="a_node4"><a xlink:href="Jeu_8h.html" target="_top" xlink:title=" ">
<polygon fill="white" stroke="black" points="158,-112.5 158,-131.5 237,-131.5 237,-112.5 158,-112.5"/>
<text text-anchor="middle" x="197.5" y="-119.5" font-family="Helvetica,sans-Serif" font-size="10.00">src/core/Jeu.h</text>
</a>
</g>
</g>
<!-- Node3&#45;&gt;Node4 -->
<g id="edge3" class="edge">
<title>Node3&#45;&gt;Node4</title>
<path fill="none" stroke="midnightblue" d="M258.4,-162.62C243.24,-152.76 223.62,-139.99 210.8,-131.65"/>
<polygon fill="midnightblue" stroke="midnightblue" points="256.87,-165.8 267.16,-168.32 260.69,-159.94 256.87,-165.8"/>
</g>
<!-- Node6 -->
<g id="node6" class="node">
<title>Node6</title>
<g id="a_node6"><a xlink:href="JeuSDL_8h.html" target="_top" xlink:title="fichier d&#39;implementation de la classeJeuSDl">
<polygon fill="white" stroke="black" points="249.5,-56.5 249.5,-75.5 341.5,-75.5 341.5,-56.5 249.5,-56.5"/>
<text text-anchor="middle" x="295.5" y="-63.5" font-family="Helvetica,sans-Serif" font-size="10.00">src/sdl/JeuSDL.h</text>
</a>
</g>
</g>
<!-- Node3&#45;&gt;Node6 -->
<g id="edge13" class="edge">
<title>Node3&#45;&gt;Node6</title>
<path fill="none" stroke="midnightblue" d="M283.04,-158.35C286.33,-134.25 291.91,-93.31 294.33,-75.59"/>
<polygon fill="midnightblue" stroke="midnightblue" points="279.56,-157.99 281.68,-168.37 286.5,-158.93 279.56,-157.99"/>
</g>
<!-- Node12 -->
<g id="node12" class="node">
<title>Node12</title>
<g id="a_node12"><a xlink:href="Personnage_8cpp.html" target="_top" xlink:title=" ">
<polygon fill="white" stroke="black" points="308.5,-112.5 308.5,-131.5 412.5,-131.5 412.5,-112.5 308.5,-112.5"/>
<text text-anchor="middle" x="360.5" y="-119.5" font-family="Helvetica,sans-Serif" font-size="10.00">src/Personnage.cpp</text>
</a>
</g>
</g>
<!-- Node3&#45;&gt;Node12 -->
<g id="edge12" class="edge">
<title>Node3&#45;&gt;Node12</title>
<path fill="none" stroke="midnightblue" d="M301.8,-162.62C316.42,-152.76 335.33,-139.99 347.68,-131.65"/>
<polygon fill="midnightblue" stroke="midnightblue" points="299.68,-159.83 293.35,-168.32 303.6,-165.63 299.68,-159.83"/>
</g>
<!-- Node5 -->
<g id="node5" class="node">
<title>Node5</title>
<g id="a_node5"><a xlink:href="Jeu_8cpp.html" target="_top" xlink:title=" ">
<polygon fill="white" stroke="black" points="17,-56.5 17,-75.5 106,-75.5 106,-56.5 17,-56.5"/>
<text text-anchor="middle" x="61.5" y="-63.5" font-family="Helvetica,sans-Serif" font-size="10.00">src/core/Jeu.cpp</text>
</a>
</g>
</g>
<!-- Node4&#45;&gt;Node5 -->
<g id="edge4" class="edge">
<title>Node4&#45;&gt;Node5</title>
<path fill="none" stroke="midnightblue" d="M166.37,-108.64C140.84,-98.5 105.39,-84.43 82.95,-75.52"/>
<polygon fill="midnightblue" stroke="midnightblue" points="165.36,-112.01 175.95,-112.44 167.95,-105.5 165.36,-112.01"/>
</g>
<!-- Node4&#45;&gt;Node6 -->
<g id="edge5" class="edge">
<title>Node4&#45;&gt;Node6</title>
<path fill="none" stroke="midnightblue" d="M222.09,-107.45C240.18,-97.48 264.23,-84.23 279.79,-75.65"/>
<polygon fill="midnightblue" stroke="midnightblue" points="220.31,-104.43 213.25,-112.32 223.69,-110.56 220.31,-104.43"/>
</g>
<!-- Node9 -->
<g id="node9" class="node">
<title>Node9</title>
<g id="a_node9"><a xlink:href="JeuTXT_8h.html" target="_top" xlink:title="fichier de déclaration de la class JeuTxt">
<polygon fill="white" stroke="black" points="124,-56.5 124,-75.5 213,-75.5 213,-56.5 124,-56.5"/>
<text text-anchor="middle" x="168.5" y="-63.5" font-family="Helvetica,sans-Serif" font-size="10.00">src/txt/JeuTXT.h</text>
</a>
</g>
</g>
<!-- Node4&#45;&gt;Node9 -->
<g id="edge8" class="edge">
<title>Node4&#45;&gt;Node9</title>
<path fill="none" stroke="midnightblue" d="M187.82,-102.98C182.9,-93.82 177.14,-83.09 173.2,-75.75"/>
<polygon fill="midnightblue" stroke="midnightblue" points="184.9,-104.93 192.71,-112.08 191.06,-101.62 184.9,-104.93"/>
</g>
<!-- Node7 -->
<g id="node7" class="node">
<title>Node7</title>
<g id="a_node7"><a xlink:href="JeuSDL_8cpp.html" target="_top" xlink:title=" ">
<polygon fill="white" stroke="black" points="242,-0.5 242,-19.5 345,-19.5 345,-0.5 242,-0.5"/>
<text text-anchor="middle" x="293.5" y="-7.5" font-family="Helvetica,sans-Serif" font-size="10.00">src/sdl/JeuSDL.cpp</text>
</a>
</g>
</g>
<!-- Node6&#45;&gt;Node7 -->
<g id="edge6" class="edge">
<title>Node6&#45;&gt;Node7</title>
<path fill="none" stroke="midnightblue" d="M294.79,-45.8C294.46,-36.91 294.08,-26.78 293.82,-19.75"/>
<polygon fill="midnightblue" stroke="midnightblue" points="291.3,-46.22 295.17,-56.08 298.3,-45.96 291.3,-46.22"/>
</g>
<!-- Node8 -->
<g id="node8" class="node">
<title>Node8</title>
<g id="a_node8"><a xlink:href="mainSDL_8cpp.html" target="_top" xlink:title=" ">
<polygon fill="white" stroke="black" points="363.5,-0.5 363.5,-19.5 471.5,-19.5 471.5,-0.5 363.5,-0.5"/>
<text text-anchor="middle" x="417.5" y="-7.5" font-family="Helvetica,sans-Serif" font-size="10.00">src/sdl/mainSDL.cpp</text>
</a>
</g>
</g>
<!-- Node6&#45;&gt;Node8 -->
<g id="edge7" class="edge">
<title>Node6&#45;&gt;Node8</title>
<path fill="none" stroke="midnightblue" d="M324.04,-52.37C346.89,-42.26 378.31,-28.35 398.26,-19.52"/>
<polygon fill="midnightblue" stroke="midnightblue" points="322.56,-49.2 314.83,-56.44 325.39,-55.6 322.56,-49.2"/>
</g>
<!-- Node9&#45;&gt;Node9 -->
<g id="edge10" class="edge">
<title>Node9&#45;&gt;Node9</title>
<path fill="none" stroke="midnightblue" d="M205.19,-76.46C219.29,-76.91 231,-73.42 231,-66 231,-56.87 213.27,-53.69 195.16,-56.47"/>
<polygon fill="midnightblue" stroke="midnightblue" points="205.44,-72.97 195.16,-75.53 204.79,-79.94 205.44,-72.97"/>
</g>
<!-- Node10 -->
<g id="node10" class="node">
<title>Node10</title>
<g id="a_node10"><a xlink:href="JeuTXT_8cpp.html" target="_top" xlink:title=" ">
<polygon fill="white" stroke="black" points="0,-0.5 0,-19.5 99,-19.5 99,-0.5 0,-0.5"/>
<text text-anchor="middle" x="49.5" y="-7.5" font-family="Helvetica,sans-Serif" font-size="10.00">src/txt/JeuTXT.cpp</text>
</a>
</g>
</g>
<!-- Node9&#45;&gt;Node10 -->
<g id="edge9" class="edge">
<title>Node9&#45;&gt;Node10</title>
<path fill="none" stroke="midnightblue" d="M140.36,-52.23C118.1,-42.13 87.64,-28.31 68.27,-19.52"/>
<polygon fill="midnightblue" stroke="midnightblue" points="139.09,-55.5 149.64,-56.44 141.98,-49.12 139.09,-55.5"/>
</g>
<!-- Node11 -->
<g id="node11" class="node">
<title>Node11</title>
<g id="a_node11"><a xlink:href="mainTXT_8cpp.html" target="_top" xlink:title=" ">
<polygon fill="white" stroke="black" points="117.5,-0.5 117.5,-19.5 221.5,-19.5 221.5,-0.5 117.5,-0.5"/>
<text text-anchor="middle" x="169.5" y="-7.5" font-family="Helvetica,sans-Serif" font-size="10.00">src/txt/mainTXT.cpp</text>
</a>
</g>
</g>
<!-- Node9&#45;&gt;Node11 -->
<g id="edge11" class="edge">
<title>Node9&#45;&gt;Node11</title>
<path fill="none" stroke="midnightblue" d="M168.86,-45.8C169.02,-36.91 169.21,-26.78 169.34,-19.75"/>
<polygon fill="midnightblue" stroke="midnightblue" points="165.35,-46.02 168.67,-56.08 172.35,-46.15 165.35,-46.02"/>
</g>
</g>
</svg>
