<?xml version="1.0" encoding="UTF-8" standalone="no"?>
<!DOCTYPE svg PUBLIC "-//W3C//DTD SVG 1.1//EN"
 "http://www.w3.org/Graphics/SVG/1.1/DTD/svg11.dtd">
<!-- Generated by graphviz version 2.43.0 (0)
 -->
<!-- Title: src/txt/JeuTXT.h Pages: 1 -->
<svg width="230pt" height="85pt"
 viewBox="0.00 0.00 229.50 84.68" xmlns="http://www.w3.org/2000/svg" xmlns:xlink="http://www.w3.org/1999/xlink">
<g id="graph0" class="graph" transform="scale(1 1) rotate(0) translate(4 80.68)">
<title>src/txt/JeuTXT.h</title>
<polygon fill="white" stroke="transparent" points="-4,4 -4,-80.68 225.5,-80.68 225.5,4 -4,4"/>
<!-- Node1 -->
<g id="node1" class="node">
<title>Node1</title>
<g id="a_node1"><a xlink:title="fichier de déclaration de la class JeuTxt">
<polygon fill="#bfbfbf" stroke="black" points="65,-56.5 65,-75.5 154,-75.5 154,-56.5 65,-56.5"/>
<text text-anchor="middle" x="109.5" y="-63.5" font-family="Helvetica,sans-Serif" font-size="10.00">src/txt/JeuTXT.h</text>
</a>
</g>
</g>
<!-- Node1&#45;&gt;Node1 -->
<g id="edge2" class="edge">
<title>Node1&#45;&gt;Node1</title>
<path fill="none" stroke="midnightblue" d="M146.19,-76.46C160.29,-76.91 172,-73.42 172,-66 172,-56.87 154.27,-53.69 136.16,-56.47"/>
<polygon fill="midnightblue" stroke="midnightblue" points="146.44,-72.97 136.16,-75.53 145.79,-79.94 146.44,-72.97"/>
</g>
<!-- Node2 -->
<g id="node2" class="node">
<title>Node2</title>
<g id="a_node2"><a xlink:href="JeuTXT_8cpp.html" target="_top" xlink:title=" ">
<polygon fill="white" stroke="black" points="0,-0.5 0,-19.5 99,-19.5 99,-0.5 0,-0.5"/>
<text text-anchor="middle" x="49.5" y="-7.5" font-family="Helvetica,sans-Serif" font-size="10.00">src/txt/JeuTXT.cpp</text>
</a>
</g>
</g>
<!-- Node1&#45;&gt;Node2 -->
<g id="edge1" class="edge">
<title>Node1&#45;&gt;Node2</title>
<path fill="none" stroke="midnightblue" d="M92.32,-49.54C81.62,-39.91 68.24,-27.87 59.32,-19.83"/>
<polygon fill="midnightblue" stroke="midnightblue" points="90.09,-52.24 99.86,-56.32 94.77,-47.03 90.09,-52.24"/>
</g>
<!-- Node3 -->
<g id="node3" class="node">
<title>Node3</title>
<g id="a_node3"><a xlink:href="mainTXT_8cpp.html" target="_top" xlink:title=" ">
<polygon fill="white" stroke="black" points="117.5,-0.5 117.5,-19.5 221.5,-19.5 221.5,-0.5 117.5,-0.5"/>
<text text-anchor="middle" x="169.5" y="-7.5" font-family="Helvetica,sans-Serif" font-size="10.00">src/txt/mainTXT.cpp</text>
</a>
</g>
</g>
<!-- Node1&#45;&gt;Node3 -->
<g id="edge3" class="edge">
<title>Node1&#45;&gt;Node3</title>
<path fill="none" stroke="midnightblue" d="M126.68,-49.54C137.38,-39.91 150.76,-27.87 159.68,-19.83"/>
<polygon fill="midnightblue" stroke="midnightblue" points="124.23,-47.03 119.14,-56.32 128.91,-52.24 124.23,-47.03"/>
</g>
</g>
</svg>
