<?xml version="1.0" encoding="UTF-8" standalone="no"?>
<!DOCTYPE svg PUBLIC "-//W3C//DTD SVG 1.1//EN"
 "http://www.w3.org/Graphics/SVG/1.1/DTD/svg11.dtd">
<!-- Generated by graphviz version 2.43.0 (0)
 -->
<!-- Title: src/Menu.cpp Pages: 1 -->
<svg width="306pt" height="196pt"
 viewBox="0.00 0.00 305.50 196.00" xmlns="http://www.w3.org/2000/svg" xmlns:xlink="http://www.w3.org/1999/xlink">
<g id="graph0" class="graph" transform="scale(1 1) rotate(0) translate(4 192)">
<title>src/Menu.cpp</title>
<polygon fill="white" stroke="transparent" points="-4,4 -4,-192 301.5,-192 301.5,4 -4,4"/>
<!-- Node1 -->
<g id="node1" class="node">
<title>Node1</title>
<g id="a_node1"><a xlink:title=" ">
<polygon fill="#bfbfbf" stroke="black" points="95,-168.5 95,-187.5 171,-187.5 171,-168.5 95,-168.5"/>
<text text-anchor="middle" x="133" y="-175.5" font-family="Helvetica,sans-Serif" font-size="10.00">src/Menu.cpp</text>
</a>
</g>
</g>
<!-- Node2 -->
<g id="node2" class="node">
<title>Node2</title>
<g id="a_node2"><a xlink:href="Menu_8h.html" target="_top" xlink:title="fichier de déclaration de la class Menu et bouton">
<polygon fill="white" stroke="black" points="108.5,-112.5 108.5,-131.5 157.5,-131.5 157.5,-112.5 108.5,-112.5"/>
<text text-anchor="middle" x="133" y="-119.5" font-family="Helvetica,sans-Serif" font-size="10.00">Menu.h</text>
</a>
</g>
</g>
<!-- Node1&#45;&gt;Node2 -->
<g id="edge1" class="edge">
<title>Node1&#45;&gt;Node2</title>
<path fill="none" stroke="midnightblue" d="M133,-168.08C133,-161.01 133,-150.86 133,-141.99"/>
<polygon fill="midnightblue" stroke="midnightblue" points="136.5,-141.75 133,-131.75 129.5,-141.75 136.5,-141.75"/>
</g>
<!-- Node3 -->
<g id="node3" class="node">
<title>Node3</title>
<g id="a_node3"><a xlink:title=" ">
<polygon fill="white" stroke="#bfbfbf" points="0,-56.5 0,-75.5 54,-75.5 54,-56.5 0,-56.5"/>
<text text-anchor="middle" x="27" y="-63.5" font-family="Helvetica,sans-Serif" font-size="10.00">iostream</text>
</a>
</g>
</g>
<!-- Node2&#45;&gt;Node3 -->
<g id="edge2" class="edge">
<title>Node2&#45;&gt;Node3</title>
<path fill="none" stroke="midnightblue" d="M115.97,-112.32C98.97,-103.66 72.62,-90.24 53.01,-80.25"/>
<polygon fill="midnightblue" stroke="midnightblue" points="54.49,-77.08 43.99,-75.65 51.31,-83.31 54.49,-77.08"/>
</g>
<!-- Node4 -->
<g id="node4" class="node">
<title>Node4</title>
<g id="a_node4"><a xlink:title=" ">
<polygon fill="white" stroke="#bfbfbf" points="154.5,-0.5 154.5,-19.5 195.5,-19.5 195.5,-0.5 154.5,-0.5"/>
<text text-anchor="middle" x="175" y="-7.5" font-family="Helvetica,sans-Serif" font-size="10.00">string</text>
</a>
</g>
</g>
<!-- Node2&#45;&gt;Node4 -->
<g id="edge3" class="edge">
<title>Node2&#45;&gt;Node4</title>
<path fill="none" stroke="midnightblue" d="M123.28,-112.43C110.23,-99.85 89.9,-75.73 101,-56 110.34,-39.39 128.56,-28.2 144.58,-21.13"/>
<polygon fill="midnightblue" stroke="midnightblue" points="146.22,-24.25 154.18,-17.25 143.59,-17.76 146.22,-24.25"/>
</g>
<!-- Node5 -->
<g id="node5" class="node">
<title>Node5</title>
<g id="a_node5"><a xlink:title=" ">
<polygon fill="white" stroke="#bfbfbf" points="110,-56.5 110,-75.5 156,-75.5 156,-56.5 110,-56.5"/>
<text text-anchor="middle" x="133" y="-63.5" font-family="Helvetica,sans-Serif" font-size="10.00">stdio.h</text>
</a>
</g>
</g>
<!-- Node2&#45;&gt;Node5 -->
<g id="edge4" class="edge">
<title>Node2&#45;&gt;Node5</title>
<path fill="none" stroke="midnightblue" d="M133,-112.08C133,-105.01 133,-94.86 133,-85.99"/>
<polygon fill="midnightblue" stroke="midnightblue" points="136.5,-85.75 133,-75.75 129.5,-85.75 136.5,-85.75"/>
</g>
<!-- Node6 -->
<g id="node6" class="node">
<title>Node6</title>
<g id="a_node6"><a xlink:title=" ">
<polygon fill="white" stroke="#bfbfbf" points="174,-56.5 174,-75.5 222,-75.5 222,-56.5 174,-56.5"/>
<text text-anchor="middle" x="198" y="-63.5" font-family="Helvetica,sans-Serif" font-size="10.00">stdlib.h</text>
</a>
</g>
</g>
<!-- Node2&#45;&gt;Node6 -->
<g id="edge5" class="edge">
<title>Node2&#45;&gt;Node6</title>
<path fill="none" stroke="midnightblue" d="M143.44,-112.32C153.15,-104.26 167.82,-92.08 179.5,-82.37"/>
<polygon fill="midnightblue" stroke="midnightblue" points="181.91,-84.92 187.37,-75.83 177.44,-79.53 181.91,-84.92"/>
</g>
<!-- Node7 -->
<g id="node7" class="node">
<title>Node7</title>
<g id="a_node7"><a xlink:href="Texture_8h.html" target="_top" xlink:title="fichier de déclaration de la class texture">
<polygon fill="white" stroke="black" points="240.5,-56.5 240.5,-75.5 297.5,-75.5 297.5,-56.5 240.5,-56.5"/>
<text text-anchor="middle" x="269" y="-63.5" font-family="Helvetica,sans-Serif" font-size="10.00">Texture.h</text>
</a>
</g>
</g>
<!-- Node2&#45;&gt;Node7 -->
<g id="edge6" class="edge">
<title>Node2&#45;&gt;Node7</title>
<path fill="none" stroke="midnightblue" d="M154.55,-112.44C177.03,-103.52 212.49,-89.44 237.98,-79.32"/>
<polygon fill="midnightblue" stroke="midnightblue" points="239.55,-82.46 247.55,-75.52 236.97,-75.95 239.55,-82.46"/>
</g>
<!-- Node7&#45;&gt;Node4 -->
<g id="edge7" class="edge">
<title>Node7&#45;&gt;Node4</title>
<path fill="none" stroke="midnightblue" d="M253.9,-56.32C239.1,-47.82 216.31,-34.73 199.02,-24.8"/>
<polygon fill="midnightblue" stroke="midnightblue" points="200.48,-21.6 190.07,-19.65 196.99,-27.67 200.48,-21.6"/>
</g>
</g>
</svg>
