<?xml version="1.0" encoding="UTF-8" standalone="no"?>
<!DOCTYPE svg PUBLIC "-//W3C//DTD SVG 1.1//EN"
 "http://www.w3.org/Graphics/SVG/1.1/DTD/svg11.dtd">
<!-- Generated by graphviz version 2.43.0 (0)
 -->
<!-- Title: src/Menu.h Pages: 1 -->
<svg width="478pt" height="196pt"
 viewBox="0.00 0.00 477.50 196.00" xmlns="http://www.w3.org/2000/svg" xmlns:xlink="http://www.w3.org/1999/xlink">
<g id="graph0" class="graph" transform="scale(1 1) rotate(0) translate(4 192)">
<title>src/Menu.h</title>
<polygon fill="white" stroke="transparent" points="-4,4 -4,-192 473.5,-192 473.5,4 -4,4"/>
<!-- Node1 -->
<g id="node1" class="node">
<title>Node1</title>
<g id="a_node1"><a xlink:title="fichier de déclaration de la class Menu et bouton">
<polygon fill="#bfbfbf" stroke="black" points="191,-168.5 191,-187.5 256,-187.5 256,-168.5 191,-168.5"/>
<text text-anchor="middle" x="223.5" y="-175.5" font-family="Helvetica,sans-Serif" font-size="10.00">src/Menu.h</text>
</a>
</g>
</g>
<!-- Node2 -->
<g id="node2" class="node">
<title>Node2</title>
<g id="a_node2"><a xlink:href="Jeu_8h.html" target="_top" xlink:title=" ">
<polygon fill="white" stroke="black" points="136,-112.5 136,-131.5 215,-131.5 215,-112.5 136,-112.5"/>
<text text-anchor="middle" x="175.5" y="-119.5" font-family="Helvetica,sans-Serif" font-size="10.00">src/core/Jeu.h</text>
</a>
</g>
</g>
<!-- Node1&#45;&gt;Node2 -->
<g id="edge1" class="edge">
<title>Node1&#45;&gt;Node2</title>
<path fill="none" stroke="midnightblue" d="M208.77,-160.43C200.36,-150.97 190.15,-139.48 183.28,-131.75"/>
<polygon fill="midnightblue" stroke="midnightblue" points="206.31,-162.93 215.57,-168.08 211.55,-158.28 206.31,-162.93"/>
</g>
<!-- Node10 -->
<g id="node10" class="node">
<title>Node10</title>
<g id="a_node10"><a xlink:href="Menu_8cpp.html" target="_top" xlink:title=" ">
<polygon fill="white" stroke="black" points="233.5,-112.5 233.5,-131.5 309.5,-131.5 309.5,-112.5 233.5,-112.5"/>
<text text-anchor="middle" x="271.5" y="-119.5" font-family="Helvetica,sans-Serif" font-size="10.00">src/Menu.cpp</text>
</a>
</g>
</g>
<!-- Node1&#45;&gt;Node10 -->
<g id="edge10" class="edge">
<title>Node1&#45;&gt;Node10</title>
<path fill="none" stroke="midnightblue" d="M238.23,-160.43C246.64,-150.97 256.85,-139.48 263.72,-131.75"/>
<polygon fill="midnightblue" stroke="midnightblue" points="235.45,-158.28 231.43,-168.08 240.69,-162.93 235.45,-158.28"/>
</g>
<!-- Node3 -->
<g id="node3" class="node">
<title>Node3</title>
<g id="a_node3"><a xlink:href="Jeu_8cpp.html" target="_top" xlink:title=" ">
<polygon fill="white" stroke="black" points="22,-56.5 22,-75.5 111,-75.5 111,-56.5 22,-56.5"/>
<text text-anchor="middle" x="66.5" y="-63.5" font-family="Helvetica,sans-Serif" font-size="10.00">src/core/Jeu.cpp</text>
</a>
</g>
</g>
<!-- Node2&#45;&gt;Node3 -->
<g id="edge2" class="edge">
<title>Node2&#45;&gt;Node3</title>
<path fill="none" stroke="midnightblue" d="M148.98,-107.86C128.77,-97.85 101.51,-84.35 83.97,-75.65"/>
<polygon fill="midnightblue" stroke="midnightblue" points="147.47,-111.02 157.99,-112.32 150.58,-104.75 147.47,-111.02"/>
</g>
<!-- Node4 -->
<g id="node4" class="node">
<title>Node4</title>
<g id="a_node4"><a xlink:href="JeuSDL_8h.html" target="_top" xlink:title="fichier d&#39;implementation de la classeJeuSDl">
<polygon fill="white" stroke="black" points="129.5,-56.5 129.5,-75.5 221.5,-75.5 221.5,-56.5 129.5,-56.5"/>
<text text-anchor="middle" x="175.5" y="-63.5" font-family="Helvetica,sans-Serif" font-size="10.00">src/sdl/JeuSDL.h</text>
</a>
</g>
</g>
<!-- Node2&#45;&gt;Node4 -->
<g id="edge3" class="edge">
<title>Node2&#45;&gt;Node4</title>
<path fill="none" stroke="midnightblue" d="M175.5,-101.8C175.5,-92.91 175.5,-82.78 175.5,-75.75"/>
<polygon fill="midnightblue" stroke="midnightblue" points="172,-102.08 175.5,-112.08 179,-102.08 172,-102.08"/>
</g>
<!-- Node7 -->
<g id="node7" class="node">
<title>Node7</title>
<g id="a_node7"><a xlink:href="JeuTXT_8h.html" target="_top" xlink:title="fichier de déclaration de la class JeuTxt">
<polygon fill="white" stroke="black" points="253,-56.5 253,-75.5 342,-75.5 342,-56.5 253,-56.5"/>
<text text-anchor="middle" x="297.5" y="-63.5" font-family="Helvetica,sans-Serif" font-size="10.00">src/txt/JeuTXT.h</text>
</a>
</g>
</g>
<!-- Node2&#45;&gt;Node7 -->
<g id="edge6" class="edge">
<title>Node2&#45;&gt;Node7</title>
<path fill="none" stroke="midnightblue" d="M204.04,-108.37C226.89,-98.26 258.31,-84.35 278.26,-75.52"/>
<polygon fill="midnightblue" stroke="midnightblue" points="202.56,-105.2 194.83,-112.44 205.39,-111.6 202.56,-105.2"/>
</g>
<!-- Node5 -->
<g id="node5" class="node">
<title>Node5</title>
<g id="a_node5"><a xlink:href="JeuSDL_8cpp.html" target="_top" xlink:title=" ">
<polygon fill="white" stroke="black" points="0,-0.5 0,-19.5 103,-19.5 103,-0.5 0,-0.5"/>
<text text-anchor="middle" x="51.5" y="-7.5" font-family="Helvetica,sans-Serif" font-size="10.00">src/sdl/JeuSDL.cpp</text>
</a>
</g>
</g>
<!-- Node4&#45;&gt;Node5 -->
<g id="edge4" class="edge">
<title>Node4&#45;&gt;Node5</title>
<path fill="none" stroke="midnightblue" d="M146.49,-52.37C123.27,-42.26 91.34,-28.35 71.06,-19.52"/>
<polygon fill="midnightblue" stroke="midnightblue" points="145.29,-55.66 155.85,-56.44 148.08,-49.24 145.29,-55.66"/>
</g>
<!-- Node6 -->
<g id="node6" class="node">
<title>Node6</title>
<g id="a_node6"><a xlink:href="mainSDL_8cpp.html" target="_top" xlink:title=" ">
<polygon fill="white" stroke="black" points="121.5,-0.5 121.5,-19.5 229.5,-19.5 229.5,-0.5 121.5,-0.5"/>
<text text-anchor="middle" x="175.5" y="-7.5" font-family="Helvetica,sans-Serif" font-size="10.00">src/sdl/mainSDL.cpp</text>
</a>
</g>
</g>
<!-- Node4&#45;&gt;Node6 -->
<g id="edge5" class="edge">
<title>Node4&#45;&gt;Node6</title>
<path fill="none" stroke="midnightblue" d="M175.5,-45.8C175.5,-36.91 175.5,-26.78 175.5,-19.75"/>
<polygon fill="midnightblue" stroke="midnightblue" points="172,-46.08 175.5,-56.08 179,-46.08 172,-46.08"/>
</g>
<!-- Node7&#45;&gt;Node7 -->
<g id="edge8" class="edge">
<title>Node7&#45;&gt;Node7</title>
<path fill="none" stroke="midnightblue" d="M334.19,-76.46C348.29,-76.91 360,-73.42 360,-66 360,-56.87 342.27,-53.69 324.16,-56.47"/>
<polygon fill="midnightblue" stroke="midnightblue" points="334.44,-72.97 324.16,-75.53 333.79,-79.94 334.44,-72.97"/>
</g>
<!-- Node8 -->
<g id="node8" class="node">
<title>Node8</title>
<g id="a_node8"><a xlink:href="JeuTXT_8cpp.html" target="_top" xlink:title=" ">
<polygon fill="white" stroke="black" points="248,-0.5 248,-19.5 347,-19.5 347,-0.5 248,-0.5"/>
<text text-anchor="middle" x="297.5" y="-7.5" font-family="Helvetica,sans-Serif" font-size="10.00">src/txt/JeuTXT.cpp</text>
</a>
</g>
</g>
<!-- Node7&#45;&gt;Node8 -->
<g id="edge7" class="edge">
<title>Node7&#45;&gt;Node8</title>
<path fill="none" stroke="midnightblue" d="M297.5,-45.8C297.5,-36.91 297.5,-26.78 297.5,-19.75"/>
<polygon fill="midnightblue" stroke="midnightblue" points="294,-46.08 297.5,-56.08 301,-46.08 294,-46.08"/>
</g>
<!-- Node9 -->
<g id="node9" class="node">
<title>Node9</title>
<g id="a_node9"><a xlink:href="mainTXT_8cpp.html" target="_top" xlink:title=" ">
<polygon fill="white" stroke="black" points="365.5,-0.5 365.5,-19.5 469.5,-19.5 469.5,-0.5 365.5,-0.5"/>
<text text-anchor="middle" x="417.5" y="-7.5" font-family="Helvetica,sans-Serif" font-size="10.00">src/txt/mainTXT.cpp</text>
</a>
</g>
</g>
<!-- Node7&#45;&gt;Node9 -->
<g id="edge9" class="edge">
<title>Node7&#45;&gt;Node9</title>
<path fill="none" stroke="midnightblue" d="M325.87,-52.23C348.32,-42.13 379.04,-28.31 398.57,-19.52"/>
<polygon fill="midnightblue" stroke="midnightblue" points="324.2,-49.15 316.51,-56.44 327.07,-55.53 324.2,-49.15"/>
</g>
</g>
</svg>
