<?xml version="1.0" encoding="UTF-8" standalone="no"?>
<!DOCTYPE svg PUBLIC "-//W3C//DTD SVG 1.1//EN"
 "http://www.w3.org/Graphics/SVG/1.1/DTD/svg11.dtd">
<!-- Generated by graphviz version 2.43.0 (0)
 -->
<!-- Title: src/Physic.cpp Pages: 1 -->
<svg width="136pt" height="196pt"
 viewBox="0.00 0.00 136.00 196.00" xmlns="http://www.w3.org/2000/svg" xmlns:xlink="http://www.w3.org/1999/xlink">
<g id="graph0" class="graph" transform="scale(1 1) rotate(0) translate(4 192)">
<title>src/Physic.cpp</title>
<polygon fill="white" stroke="transparent" points="-4,4 -4,-192 132,-192 132,4 -4,4"/>
<!-- Node1 -->
<g id="node1" class="node">
<title>Node1</title>
<g id="a_node1"><a xlink:title=" ">
<polygon fill="#bfbfbf" stroke="black" points="28,-168.5 28,-187.5 110,-187.5 110,-168.5 28,-168.5"/>
<text text-anchor="middle" x="69" y="-175.5" font-family="Helvetica,sans-Serif" font-size="10.00">src/Physic.cpp</text>
</a>
</g>
</g>
<!-- Node2 -->
<g id="node2" class="node">
<title>Node2</title>
<g id="a_node2"><a xlink:href="Physic_8h.html" target="_top" xlink:title="fichier de déclaration de la class Physic">
<polygon fill="white" stroke="black" points="41.5,-112.5 41.5,-131.5 96.5,-131.5 96.5,-112.5 41.5,-112.5"/>
<text text-anchor="middle" x="69" y="-119.5" font-family="Helvetica,sans-Serif" font-size="10.00">Physic.h</text>
</a>
</g>
</g>
<!-- Node1&#45;&gt;Node2 -->
<g id="edge1" class="edge">
<title>Node1&#45;&gt;Node2</title>
<path fill="none" stroke="midnightblue" d="M69,-168.08C69,-161.01 69,-150.86 69,-141.99"/>
<polygon fill="midnightblue" stroke="midnightblue" points="72.5,-141.75 69,-131.75 65.5,-141.75 72.5,-141.75"/>
</g>
<!-- Node3 -->
<g id="node3" class="node">
<title>Node3</title>
<g id="a_node3"><a xlink:href="Vector2D_8h.html" target="_top" xlink:title="fichier de déclaration des classes rect et vector2D">
<polygon fill="white" stroke="black" points="0,-56.5 0,-75.5 66,-75.5 66,-56.5 0,-56.5"/>
<text text-anchor="middle" x="33" y="-63.5" font-family="Helvetica,sans-Serif" font-size="10.00">Vector2D.h</text>
</a>
</g>
</g>
<!-- Node2&#45;&gt;Node3 -->
<g id="edge2" class="edge">
<title>Node2&#45;&gt;Node3</title>
<path fill="none" stroke="midnightblue" d="M63.06,-112.08C58.02,-104.53 50.66,-93.49 44.49,-84.23"/>
<polygon fill="midnightblue" stroke="midnightblue" points="47.29,-82.13 38.83,-75.75 41.47,-86.01 47.29,-82.13"/>
</g>
<!-- Node5 -->
<g id="node5" class="node">
<title>Node5</title>
<g id="a_node5"><a xlink:title=" ">
<polygon fill="white" stroke="#bfbfbf" points="84,-56.5 84,-75.5 128,-75.5 128,-56.5 84,-56.5"/>
<text text-anchor="middle" x="106" y="-63.5" font-family="Helvetica,sans-Serif" font-size="10.00">time.h</text>
</a>
</g>
</g>
<!-- Node2&#45;&gt;Node5 -->
<g id="edge4" class="edge">
<title>Node2&#45;&gt;Node5</title>
<path fill="none" stroke="midnightblue" d="M75.11,-112.08C80.28,-104.53 87.85,-93.49 94.19,-84.23"/>
<polygon fill="midnightblue" stroke="midnightblue" points="97.24,-85.98 100,-75.75 91.46,-82.02 97.24,-85.98"/>
</g>
<!-- Node4 -->
<g id="node4" class="node">
<title>Node4</title>
<g id="a_node4"><a xlink:title=" ">
<polygon fill="white" stroke="#bfbfbf" points="6,-0.5 6,-19.5 60,-19.5 60,-0.5 6,-0.5"/>
<text text-anchor="middle" x="33" y="-7.5" font-family="Helvetica,sans-Serif" font-size="10.00">iostream</text>
</a>
</g>
</g>
<!-- Node3&#45;&gt;Node4 -->
<g id="edge3" class="edge">
<title>Node3&#45;&gt;Node4</title>
<path fill="none" stroke="midnightblue" d="M33,-56.08C33,-49.01 33,-38.86 33,-29.99"/>
<polygon fill="midnightblue" stroke="midnightblue" points="36.5,-29.75 33,-19.75 29.5,-29.75 36.5,-29.75"/>
</g>
</g>
</svg>
