<?xml version="1.0" encoding="UTF-8" standalone="no"?>
<!DOCTYPE svg PUBLIC "-//W3C//DTD SVG 1.1//EN"
 "http://www.w3.org/Graphics/SVG/1.1/DTD/svg11.dtd">
<!-- Generated by graphviz version 2.43.0 (0)
 -->
<!-- Title: src/Physic.h Pages: 1 -->
<svg width="480pt" height="252pt"
 viewBox="0.00 0.00 479.50 252.00" xmlns="http://www.w3.org/2000/svg" xmlns:xlink="http://www.w3.org/1999/xlink">
<g id="graph0" class="graph" transform="scale(1 1) rotate(0) translate(4 248)">
<title>src/Physic.h</title>
<polygon fill="white" stroke="transparent" points="-4,4 -4,-248 475.5,-248 475.5,4 -4,4"/>
<!-- Node1 -->
<g id="node1" class="node">
<title>Node1</title>
<g id="a_node1"><a xlink:title="fichier de déclaration de la class Physic">
<polygon fill="#bfbfbf" stroke="black" points="297,-224.5 297,-243.5 368,-243.5 368,-224.5 297,-224.5"/>
<text text-anchor="middle" x="332.5" y="-231.5" font-family="Helvetica,sans-Serif" font-size="10.00">src/Physic.h</text>
</a>
</g>
</g>
<!-- Node2 -->
<g id="node2" class="node">
<title>Node2</title>
<g id="a_node2"><a xlink:href="Personnage_8h.html" target="_top" xlink:title="fichier de déclaration de la class Personnage">
<polygon fill="white" stroke="black" points="233,-168.5 233,-187.5 326,-187.5 326,-168.5 233,-168.5"/>
<text text-anchor="middle" x="279.5" y="-175.5" font-family="Helvetica,sans-Serif" font-size="10.00">src/Personnage.h</text>
</a>
</g>
</g>
<!-- Node1&#45;&gt;Node2 -->
<g id="edge1" class="edge">
<title>Node1&#45;&gt;Node2</title>
<path fill="none" stroke="midnightblue" d="M316.52,-216.72C307.18,-207.2 295.75,-195.56 288.09,-187.75"/>
<polygon fill="midnightblue" stroke="midnightblue" points="314.25,-219.4 323.75,-224.08 319.24,-214.49 314.25,-219.4"/>
</g>
<!-- Node12 -->
<g id="node12" class="node">
<title>Node12</title>
<g id="a_node12"><a xlink:href="Physic_8cpp.html" target="_top" xlink:title=" ">
<polygon fill="white" stroke="black" points="344.5,-168.5 344.5,-187.5 426.5,-187.5 426.5,-168.5 344.5,-168.5"/>
<text text-anchor="middle" x="385.5" y="-175.5" font-family="Helvetica,sans-Serif" font-size="10.00">src/Physic.cpp</text>
</a>
</g>
</g>
<!-- Node1&#45;&gt;Node12 -->
<g id="edge13" class="edge">
<title>Node1&#45;&gt;Node12</title>
<path fill="none" stroke="midnightblue" d="M348.48,-216.72C357.82,-207.2 369.25,-195.56 376.91,-187.75"/>
<polygon fill="midnightblue" stroke="midnightblue" points="345.76,-214.49 341.25,-224.08 350.75,-219.4 345.76,-214.49"/>
</g>
<!-- Node3 -->
<g id="node3" class="node">
<title>Node3</title>
<g id="a_node3"><a xlink:href="Jeu_8h.html" target="_top" xlink:title=" ">
<polygon fill="white" stroke="black" points="157,-112.5 157,-131.5 236,-131.5 236,-112.5 157,-112.5"/>
<text text-anchor="middle" x="196.5" y="-119.5" font-family="Helvetica,sans-Serif" font-size="10.00">src/core/Jeu.h</text>
</a>
</g>
</g>
<!-- Node2&#45;&gt;Node3 -->
<g id="edge2" class="edge">
<title>Node2&#45;&gt;Node3</title>
<path fill="none" stroke="midnightblue" d="M257.4,-162.62C242.24,-152.76 222.62,-139.99 209.8,-131.65"/>
<polygon fill="midnightblue" stroke="midnightblue" points="255.87,-165.8 266.16,-168.32 259.69,-159.94 255.87,-165.8"/>
</g>
<!-- Node5 -->
<g id="node5" class="node">
<title>Node5</title>
<g id="a_node5"><a xlink:href="JeuSDL_8h.html" target="_top" xlink:title="fichier d&#39;implementation de la classeJeuSDl">
<polygon fill="white" stroke="black" points="248.5,-56.5 248.5,-75.5 340.5,-75.5 340.5,-56.5 248.5,-56.5"/>
<text text-anchor="middle" x="294.5" y="-63.5" font-family="Helvetica,sans-Serif" font-size="10.00">src/sdl/JeuSDL.h</text>
</a>
</g>
</g>
<!-- Node2&#45;&gt;Node5 -->
<g id="edge12" class="edge">
<title>Node2&#45;&gt;Node5</title>
<path fill="none" stroke="midnightblue" d="M282.04,-158.35C285.33,-134.25 290.91,-93.31 293.33,-75.59"/>
<polygon fill="midnightblue" stroke="midnightblue" points="278.56,-157.99 280.68,-168.37 285.5,-158.93 278.56,-157.99"/>
</g>
<!-- Node11 -->
<g id="node11" class="node">
<title>Node11</title>
<g id="a_node11"><a xlink:href="Personnage_8cpp.html" target="_top" xlink:title=" ">
<polygon fill="white" stroke="black" points="307.5,-112.5 307.5,-131.5 411.5,-131.5 411.5,-112.5 307.5,-112.5"/>
<text text-anchor="middle" x="359.5" y="-119.5" font-family="Helvetica,sans-Serif" font-size="10.00">src/Personnage.cpp</text>
</a>
</g>
</g>
<!-- Node2&#45;&gt;Node11 -->
<g id="edge11" class="edge">
<title>Node2&#45;&gt;Node11</title>
<path fill="none" stroke="midnightblue" d="M300.8,-162.62C315.42,-152.76 334.33,-139.99 346.68,-131.65"/>
<polygon fill="midnightblue" stroke="midnightblue" points="298.68,-159.83 292.35,-168.32 302.6,-165.63 298.68,-159.83"/>
</g>
<!-- Node4 -->
<g id="node4" class="node">
<title>Node4</title>
<g id="a_node4"><a xlink:href="Jeu_8cpp.html" target="_top" xlink:title=" ">
<polygon fill="white" stroke="black" points="16,-56.5 16,-75.5 105,-75.5 105,-56.5 16,-56.5"/>
<text text-anchor="middle" x="60.5" y="-63.5" font-family="Helvetica,sans-Serif" font-size="10.00">src/core/Jeu.cpp</text>
</a>
</g>
</g>
<!-- Node3&#45;&gt;Node4 -->
<g id="edge3" class="edge">
<title>Node3&#45;&gt;Node4</title>
<path fill="none" stroke="midnightblue" d="M165.37,-108.64C139.84,-98.5 104.39,-84.43 81.95,-75.52"/>
<polygon fill="midnightblue" stroke="midnightblue" points="164.36,-112.01 174.95,-112.44 166.95,-105.5 164.36,-112.01"/>
</g>
<!-- Node3&#45;&gt;Node5 -->
<g id="edge4" class="edge">
<title>Node3&#45;&gt;Node5</title>
<path fill="none" stroke="midnightblue" d="M221.09,-107.45C239.18,-97.48 263.23,-84.23 278.79,-75.65"/>
<polygon fill="midnightblue" stroke="midnightblue" points="219.31,-104.43 212.25,-112.32 222.69,-110.56 219.31,-104.43"/>
</g>
<!-- Node8 -->
<g id="node8" class="node">
<title>Node8</title>
<g id="a_node8"><a xlink:href="JeuTXT_8h.html" target="_top" xlink:title="fichier de déclaration de la class JeuTxt">
<polygon fill="white" stroke="black" points="123,-56.5 123,-75.5 212,-75.5 212,-56.5 123,-56.5"/>
<text text-anchor="middle" x="167.5" y="-63.5" font-family="Helvetica,sans-Serif" font-size="10.00">src/txt/JeuTXT.h</text>
</a>
</g>
</g>
<!-- Node3&#45;&gt;Node8 -->
<g id="edge7" class="edge">
<title>Node3&#45;&gt;Node8</title>
<path fill="none" stroke="midnightblue" d="M186.82,-102.98C181.9,-93.82 176.14,-83.09 172.2,-75.75"/>
<polygon fill="midnightblue" stroke="midnightblue" points="183.9,-104.93 191.71,-112.08 190.06,-101.62 183.9,-104.93"/>
</g>
<!-- Node6 -->
<g id="node6" class="node">
<title>Node6</title>
<g id="a_node6"><a xlink:href="JeuSDL_8cpp.html" target="_top" xlink:title=" ">
<polygon fill="white" stroke="black" points="242,-0.5 242,-19.5 345,-19.5 345,-0.5 242,-0.5"/>
<text text-anchor="middle" x="293.5" y="-7.5" font-family="Helvetica,sans-Serif" font-size="10.00">src/sdl/JeuSDL.cpp</text>
</a>
</g>
</g>
<!-- Node5&#45;&gt;Node6 -->
<g id="edge5" class="edge">
<title>Node5&#45;&gt;Node6</title>
<path fill="none" stroke="midnightblue" d="M294.14,-45.8C293.98,-36.91 293.79,-26.78 293.66,-19.75"/>
<polygon fill="midnightblue" stroke="midnightblue" points="290.65,-46.15 294.33,-56.08 297.65,-46.02 290.65,-46.15"/>
</g>
<!-- Node7 -->
<g id="node7" class="node">
<title>Node7</title>
<g id="a_node7"><a xlink:href="mainSDL_8cpp.html" target="_top" xlink:title=" ">
<polygon fill="white" stroke="black" points="363.5,-0.5 363.5,-19.5 471.5,-19.5 471.5,-0.5 363.5,-0.5"/>
<text text-anchor="middle" x="417.5" y="-7.5" font-family="Helvetica,sans-Serif" font-size="10.00">src/sdl/mainSDL.cpp</text>
</a>
</g>
</g>
<!-- Node5&#45;&gt;Node7 -->
<g id="edge6" class="edge">
<title>Node5&#45;&gt;Node7</title>
<path fill="none" stroke="midnightblue" d="M323.27,-52.37C346.31,-42.26 377.98,-28.35 398.1,-19.52"/>
<polygon fill="midnightblue" stroke="midnightblue" points="321.74,-49.22 313.99,-56.44 324.55,-55.63 321.74,-49.22"/>
</g>
<!-- Node8&#45;&gt;Node8 -->
<g id="edge9" class="edge">
<title>Node8&#45;&gt;Node8</title>
<path fill="none" stroke="midnightblue" d="M204.19,-76.46C218.29,-76.91 230,-73.42 230,-66 230,-56.87 212.27,-53.69 194.16,-56.47"/>
<polygon fill="midnightblue" stroke="midnightblue" points="204.44,-72.97 194.16,-75.53 203.79,-79.94 204.44,-72.97"/>
</g>
<!-- Node9 -->
<g id="node9" class="node">
<title>Node9</title>
<g id="a_node9"><a xlink:href="JeuTXT_8cpp.html" target="_top" xlink:title=" ">
<polygon fill="white" stroke="black" points="0,-0.5 0,-19.5 99,-19.5 99,-0.5 0,-0.5"/>
<text text-anchor="middle" x="49.5" y="-7.5" font-family="Helvetica,sans-Serif" font-size="10.00">src/txt/JeuTXT.cpp</text>
</a>
</g>
</g>
<!-- Node8&#45;&gt;Node9 -->
<g id="edge8" class="edge">
<title>Node8&#45;&gt;Node9</title>
<path fill="none" stroke="midnightblue" d="M139.6,-52.23C117.53,-42.13 87.32,-28.31 68.11,-19.52"/>
<polygon fill="midnightblue" stroke="midnightblue" points="138.25,-55.46 148.8,-56.44 141.17,-49.1 138.25,-55.46"/>
</g>
<!-- Node10 -->
<g id="node10" class="node">
<title>Node10</title>
<g id="a_node10"><a xlink:href="mainTXT_8cpp.html" target="_top" xlink:title=" ">
<polygon fill="white" stroke="black" points="117.5,-0.5 117.5,-19.5 221.5,-19.5 221.5,-0.5 117.5,-0.5"/>
<text text-anchor="middle" x="169.5" y="-7.5" font-family="Helvetica,sans-Serif" font-size="10.00">src/txt/mainTXT.cpp</text>
</a>
</g>
</g>
<!-- Node8&#45;&gt;Node10 -->
<g id="edge10" class="edge">
<title>Node8&#45;&gt;Node10</title>
<path fill="none" stroke="midnightblue" d="M168.21,-45.8C168.54,-36.91 168.92,-26.78 169.18,-19.75"/>
<polygon fill="midnightblue" stroke="midnightblue" points="164.7,-45.96 167.83,-56.08 171.7,-46.22 164.7,-45.96"/>
</g>
</g>
</svg>
