<?xml version="1.0" encoding="UTF-8" standalone="no"?>
<!DOCTYPE svg PUBLIC "-//W3C//DTD SVG 1.1//EN"
 "http://www.w3.org/Graphics/SVG/1.1/DTD/svg11.dtd">
<!-- Generated by graphviz version 2.43.0 (0)
 -->
<!-- Title: src/Texture.h Pages: 1 -->
<svg width="480pt" height="308pt"
 viewBox="0.00 0.00 479.50 308.00" xmlns="http://www.w3.org/2000/svg" xmlns:xlink="http://www.w3.org/1999/xlink">
<g id="graph0" class="graph" transform="scale(1 1) rotate(0) translate(4 304)">
<title>src/Texture.h</title>
<polygon fill="white" stroke="transparent" points="-4,4 -4,-304 475.5,-304 475.5,4 -4,4"/>
<!-- Node1 -->
<g id="node1" class="node">
<title>Node1</title>
<g id="a_node1"><a xlink:title="fichier de déclaration de la class texture">
<polygon fill="#bfbfbf" stroke="black" points="250.5,-280.5 250.5,-299.5 324.5,-299.5 324.5,-280.5 250.5,-280.5"/>
<text text-anchor="middle" x="287.5" y="-287.5" font-family="Helvetica,sans-Serif" font-size="10.00">src/Texture.h</text>
</a>
</g>
</g>
<!-- Node2 -->
<g id="node2" class="node">
<title>Node2</title>
<g id="a_node2"><a xlink:href="Menu_8h.html" target="_top" xlink:title="fichier de déclaration de la class Menu et bouton">
<polygon fill="white" stroke="black" points="141,-224.5 141,-243.5 206,-243.5 206,-224.5 141,-224.5"/>
<text text-anchor="middle" x="173.5" y="-231.5" font-family="Helvetica,sans-Serif" font-size="10.00">src/Menu.h</text>
</a>
</g>
</g>
<!-- Node1&#45;&gt;Node2 -->
<g id="edge1" class="edge">
<title>Node1&#45;&gt;Node2</title>
<path fill="none" stroke="midnightblue" d="M260.26,-276.1C238.96,-266.01 209.96,-252.27 191.48,-243.52"/>
<polygon fill="midnightblue" stroke="midnightblue" points="258.9,-279.33 269.44,-280.44 261.9,-273 258.9,-279.33"/>
</g>
<!-- Node12 -->
<g id="node12" class="node">
<title>Node12</title>
<g id="a_node12"><a xlink:href="Personnage_8h.html" target="_top" xlink:title="fichier de déclaration de la class Personnage">
<polygon fill="white" stroke="black" points="230,-168.5 230,-187.5 323,-187.5 323,-168.5 230,-168.5"/>
<text text-anchor="middle" x="276.5" y="-175.5" font-family="Helvetica,sans-Serif" font-size="10.00">src/Personnage.h</text>
</a>
</g>
</g>
<!-- Node1&#45;&gt;Node12 -->
<g id="edge12" class="edge">
<title>Node1&#45;&gt;Node12</title>
<path fill="none" stroke="midnightblue" d="M281.37,-270.39C279.03,-262.37 276.66,-252.82 275.5,-244 272.89,-224.08 274.39,-200.44 275.55,-187.88"/>
<polygon fill="midnightblue" stroke="midnightblue" points="278.1,-271.66 284.41,-280.17 284.79,-269.58 278.1,-271.66"/>
</g>
<!-- Node14 -->
<g id="node14" class="node">
<title>Node14</title>
<g id="a_node14"><a xlink:href="Terrain_8h.html" target="_top" xlink:title="fichier de déclaration de la class terrain">
<polygon fill="white" stroke="black" points="284,-224.5 284,-243.5 355,-243.5 355,-224.5 284,-224.5"/>
<text text-anchor="middle" x="319.5" y="-231.5" font-family="Helvetica,sans-Serif" font-size="10.00">src/Terrain.h</text>
</a>
</g>
</g>
<!-- Node1&#45;&gt;Node14 -->
<g id="edge16" class="edge">
<title>Node1&#45;&gt;Node14</title>
<path fill="none" stroke="midnightblue" d="M298,-271.27C303.47,-262.05 309.92,-251.17 314.31,-243.75"/>
<polygon fill="midnightblue" stroke="midnightblue" points="294.87,-269.7 292.78,-280.08 300.89,-273.26 294.87,-269.7"/>
</g>
<!-- Node16 -->
<g id="node16" class="node">
<title>Node16</title>
<g id="a_node16"><a xlink:href="Texture_8cpp.html" target="_top" xlink:title=" ">
<polygon fill="white" stroke="black" points="373.5,-224.5 373.5,-243.5 457.5,-243.5 457.5,-224.5 373.5,-224.5"/>
<text text-anchor="middle" x="415.5" y="-231.5" font-family="Helvetica,sans-Serif" font-size="10.00">src/Texture.cpp</text>
</a>
</g>
</g>
<!-- Node1&#45;&gt;Node16 -->
<g id="edge19" class="edge">
<title>Node1&#45;&gt;Node16</title>
<path fill="none" stroke="midnightblue" d="M317.12,-276.5C341.12,-266.38 374.28,-252.39 395.31,-243.52"/>
<polygon fill="midnightblue" stroke="midnightblue" points="315.64,-273.33 307.78,-280.44 318.36,-279.78 315.64,-273.33"/>
</g>
<!-- Node3 -->
<g id="node3" class="node">
<title>Node3</title>
<g id="a_node3"><a xlink:href="Jeu_8h.html" target="_top" xlink:title=" ">
<polygon fill="white" stroke="black" points="97,-112.5 97,-131.5 176,-131.5 176,-112.5 97,-112.5"/>
<text text-anchor="middle" x="136.5" y="-119.5" font-family="Helvetica,sans-Serif" font-size="10.00">src/core/Jeu.h</text>
</a>
</g>
</g>
<!-- Node2&#45;&gt;Node3 -->
<g id="edge2" class="edge">
<title>Node2&#45;&gt;Node3</title>
<path fill="none" stroke="midnightblue" d="M151.33,-218.16C141.78,-210.42 131.65,-200.05 126.5,-188 118.43,-169.1 126.65,-144.64 132.25,-131.79"/>
<polygon fill="midnightblue" stroke="midnightblue" points="149.33,-221.04 159.42,-224.26 153.54,-215.45 149.33,-221.04"/>
</g>
<!-- Node11 -->
<g id="node11" class="node">
<title>Node11</title>
<g id="a_node11"><a xlink:href="Menu_8cpp.html" target="_top" xlink:title=" ">
<polygon fill="white" stroke="black" points="135.5,-168.5 135.5,-187.5 211.5,-187.5 211.5,-168.5 135.5,-168.5"/>
<text text-anchor="middle" x="173.5" y="-175.5" font-family="Helvetica,sans-Serif" font-size="10.00">src/Menu.cpp</text>
</a>
</g>
</g>
<!-- Node2&#45;&gt;Node11 -->
<g id="edge11" class="edge">
<title>Node2&#45;&gt;Node11</title>
<path fill="none" stroke="midnightblue" d="M173.5,-213.8C173.5,-204.91 173.5,-194.78 173.5,-187.75"/>
<polygon fill="midnightblue" stroke="midnightblue" points="170,-214.08 173.5,-224.08 177,-214.08 170,-214.08"/>
</g>
<!-- Node4 -->
<g id="node4" class="node">
<title>Node4</title>
<g id="a_node4"><a xlink:href="Jeu_8cpp.html" target="_top" xlink:title=" ">
<polygon fill="white" stroke="black" points="1,-56.5 1,-75.5 90,-75.5 90,-56.5 1,-56.5"/>
<text text-anchor="middle" x="45.5" y="-63.5" font-family="Helvetica,sans-Serif" font-size="10.00">src/core/Jeu.cpp</text>
</a>
</g>
</g>
<!-- Node3&#45;&gt;Node4 -->
<g id="edge3" class="edge">
<title>Node3&#45;&gt;Node4</title>
<path fill="none" stroke="midnightblue" d="M113.21,-107.18C96.46,-97.24 74.4,-84.15 60.08,-75.65"/>
<polygon fill="midnightblue" stroke="midnightblue" points="111.49,-110.23 121.88,-112.32 115.07,-104.21 111.49,-110.23"/>
</g>
<!-- Node5 -->
<g id="node5" class="node">
<title>Node5</title>
<g id="a_node5"><a xlink:href="JeuSDL_8h.html" target="_top" xlink:title="fichier d&#39;implementation de la classeJeuSDl">
<polygon fill="white" stroke="black" points="264.5,-56.5 264.5,-75.5 356.5,-75.5 356.5,-56.5 264.5,-56.5"/>
<text text-anchor="middle" x="310.5" y="-63.5" font-family="Helvetica,sans-Serif" font-size="10.00">src/sdl/JeuSDL.h</text>
</a>
</g>
</g>
<!-- Node3&#45;&gt;Node5 -->
<g id="edge4" class="edge">
<title>Node3&#45;&gt;Node5</title>
<path fill="none" stroke="midnightblue" d="M173.76,-109.44C206.57,-99.26 253.58,-84.66 283.06,-75.52"/>
<polygon fill="midnightblue" stroke="midnightblue" points="172.58,-106.14 164.07,-112.44 174.66,-112.82 172.58,-106.14"/>
</g>
<!-- Node8 -->
<g id="node8" class="node">
<title>Node8</title>
<g id="a_node8"><a xlink:href="JeuTXT_8h.html" target="_top" xlink:title="fichier de déclaration de la class JeuTxt">
<polygon fill="white" stroke="black" points="108,-56.5 108,-75.5 197,-75.5 197,-56.5 108,-56.5"/>
<text text-anchor="middle" x="152.5" y="-63.5" font-family="Helvetica,sans-Serif" font-size="10.00">src/txt/JeuTXT.h</text>
</a>
</g>
</g>
<!-- Node3&#45;&gt;Node8 -->
<g id="edge7" class="edge">
<title>Node3&#45;&gt;Node8</title>
<path fill="none" stroke="midnightblue" d="M142.01,-102.4C144.69,-93.36 147.78,-82.94 149.91,-75.75"/>
<polygon fill="midnightblue" stroke="midnightblue" points="138.63,-101.5 139.14,-112.08 145.34,-103.49 138.63,-101.5"/>
</g>
<!-- Node6 -->
<g id="node6" class="node">
<title>Node6</title>
<g id="a_node6"><a xlink:href="JeuSDL_8cpp.html" target="_top" xlink:title=" ">
<polygon fill="white" stroke="black" points="242,-0.5 242,-19.5 345,-19.5 345,-0.5 242,-0.5"/>
<text text-anchor="middle" x="293.5" y="-7.5" font-family="Helvetica,sans-Serif" font-size="10.00">src/sdl/JeuSDL.cpp</text>
</a>
</g>
</g>
<!-- Node5&#45;&gt;Node6 -->
<g id="edge5" class="edge">
<title>Node5&#45;&gt;Node6</title>
<path fill="none" stroke="midnightblue" d="M304.64,-46.4C301.8,-37.36 298.52,-26.94 296.25,-19.75"/>
<polygon fill="midnightblue" stroke="midnightblue" points="301.35,-47.6 307.69,-56.08 308.03,-45.49 301.35,-47.6"/>
</g>
<!-- Node7 -->
<g id="node7" class="node">
<title>Node7</title>
<g id="a_node7"><a xlink:href="mainSDL_8cpp.html" target="_top" xlink:title=" ">
<polygon fill="white" stroke="black" points="363.5,-0.5 363.5,-19.5 471.5,-19.5 471.5,-0.5 363.5,-0.5"/>
<text text-anchor="middle" x="417.5" y="-7.5" font-family="Helvetica,sans-Serif" font-size="10.00">src/sdl/mainSDL.cpp</text>
</a>
</g>
</g>
<!-- Node5&#45;&gt;Node7 -->
<g id="edge6" class="edge">
<title>Node5&#45;&gt;Node7</title>
<path fill="none" stroke="midnightblue" d="M336.8,-51.73C356.61,-41.73 383.21,-28.31 400.35,-19.65"/>
<polygon fill="midnightblue" stroke="midnightblue" points="335.04,-48.69 327.69,-56.32 338.2,-54.94 335.04,-48.69"/>
</g>
<!-- Node8&#45;&gt;Node8 -->
<g id="edge9" class="edge">
<title>Node8&#45;&gt;Node8</title>
<path fill="none" stroke="midnightblue" d="M189.19,-76.46C203.29,-76.91 215,-73.42 215,-66 215,-56.87 197.27,-53.69 179.16,-56.47"/>
<polygon fill="midnightblue" stroke="midnightblue" points="189.44,-72.97 179.16,-75.53 188.79,-79.94 189.44,-72.97"/>
</g>
<!-- Node9 -->
<g id="node9" class="node">
<title>Node9</title>
<g id="a_node9"><a xlink:href="JeuTXT_8cpp.html" target="_top" xlink:title=" ">
<polygon fill="white" stroke="black" points="0,-0.5 0,-19.5 99,-19.5 99,-0.5 0,-0.5"/>
<text text-anchor="middle" x="49.5" y="-7.5" font-family="Helvetica,sans-Serif" font-size="10.00">src/txt/JeuTXT.cpp</text>
</a>
</g>
</g>
<!-- Node8&#45;&gt;Node9 -->
<g id="edge8" class="edge">
<title>Node8&#45;&gt;Node9</title>
<path fill="none" stroke="midnightblue" d="M126.92,-51.59C107.88,-41.61 82.44,-28.27 66.01,-19.65"/>
<polygon fill="midnightblue" stroke="midnightblue" points="125.47,-54.78 135.95,-56.32 128.72,-48.58 125.47,-54.78"/>
</g>
<!-- Node10 -->
<g id="node10" class="node">
<title>Node10</title>
<g id="a_node10"><a xlink:href="mainTXT_8cpp.html" target="_top" xlink:title=" ">
<polygon fill="white" stroke="black" points="117.5,-0.5 117.5,-19.5 221.5,-19.5 221.5,-0.5 117.5,-0.5"/>
<text text-anchor="middle" x="169.5" y="-7.5" font-family="Helvetica,sans-Serif" font-size="10.00">src/txt/mainTXT.cpp</text>
</a>
</g>
</g>
<!-- Node8&#45;&gt;Node10 -->
<g id="edge10" class="edge">
<title>Node8&#45;&gt;Node10</title>
<path fill="none" stroke="midnightblue" d="M158.36,-46.4C161.2,-37.36 164.48,-26.94 166.75,-19.75"/>
<polygon fill="midnightblue" stroke="midnightblue" points="154.97,-45.49 155.31,-56.08 161.65,-47.6 154.97,-45.49"/>
</g>
<!-- Node12&#45;&gt;Node3 -->
<g id="edge13" class="edge">
<title>Node12&#45;&gt;Node3</title>
<path fill="none" stroke="midnightblue" d="M244.8,-164.77C218.5,-154.63 181.78,-140.47 158.58,-131.52"/>
<polygon fill="midnightblue" stroke="midnightblue" points="243.73,-168.11 254.32,-168.44 246.25,-161.58 243.73,-168.11"/>
</g>
<!-- Node12&#45;&gt;Node5 -->
<g id="edge15" class="edge">
<title>Node12&#45;&gt;Node5</title>
<path fill="none" stroke="midnightblue" d="M291.26,-160.4C297.46,-152.39 304.03,-142.3 307.5,-132 313.99,-112.73 312.83,-88.42 311.58,-75.69"/>
<polygon fill="midnightblue" stroke="midnightblue" points="288.5,-158.25 284.83,-168.19 293.9,-162.7 288.5,-158.25"/>
</g>
<!-- Node13 -->
<g id="node13" class="node">
<title>Node13</title>
<g id="a_node13"><a xlink:href="Personnage_8cpp.html" target="_top" xlink:title=" ">
<polygon fill="white" stroke="black" points="194.5,-112.5 194.5,-131.5 298.5,-131.5 298.5,-112.5 194.5,-112.5"/>
<text text-anchor="middle" x="246.5" y="-119.5" font-family="Helvetica,sans-Serif" font-size="10.00">src/Personnage.cpp</text>
</a>
</g>
</g>
<!-- Node12&#45;&gt;Node13 -->
<g id="edge14" class="edge">
<title>Node12&#45;&gt;Node13</title>
<path fill="none" stroke="midnightblue" d="M266.65,-159.27C261.53,-150.05 255.48,-139.17 251.36,-131.75"/>
<polygon fill="midnightblue" stroke="midnightblue" points="263.63,-161.04 271.55,-168.08 269.75,-157.64 263.63,-161.04"/>
</g>
<!-- Node14&#45;&gt;Node12 -->
<g id="edge17" class="edge">
<title>Node14&#45;&gt;Node12</title>
<path fill="none" stroke="midnightblue" d="M306.08,-216.14C298.59,-206.74 289.56,-195.4 283.47,-187.75"/>
<polygon fill="midnightblue" stroke="midnightblue" points="303.43,-218.44 312.4,-224.08 308.91,-214.08 303.43,-218.44"/>
</g>
<!-- Node15 -->
<g id="node15" class="node">
<title>Node15</title>
<g id="a_node15"><a xlink:href="Terrain_8cpp.html" target="_top" xlink:title=" ">
<polygon fill="white" stroke="black" points="341,-168.5 341,-187.5 422,-187.5 422,-168.5 341,-168.5"/>
<text text-anchor="middle" x="381.5" y="-175.5" font-family="Helvetica,sans-Serif" font-size="10.00">src/Terrain.cpp</text>
</a>
</g>
</g>
<!-- Node14&#45;&gt;Node15 -->
<g id="edge18" class="edge">
<title>Node14&#45;&gt;Node15</title>
<path fill="none" stroke="midnightblue" d="M337.25,-217.54C348.31,-207.91 362.13,-195.87 371.36,-187.83"/>
<polygon fill="midnightblue" stroke="midnightblue" points="334.7,-215.12 329.46,-224.32 339.3,-220.4 334.7,-215.12"/>
</g>
</g>
</svg>
